<svg xmlns="http://www.w3.org/2000/svg" viewBox="0 0 25.15 20.65"><defs><style>.cls-1{fill:#fff;stroke:#22294d;stroke-miterlimit:10;}.cls-2{fill:#e00613;}.cls-3{fill:#2d3d8f;}</style></defs><title>PANAMÁ</title><g id="Capa_2" data-name="Capa 2"><g id="Capa_1-2" data-name="Capa 1"><rect class="cls-1" x="0.5" y="0.5" width="24.15" height="19.65" rx="3.55"/><path class="cls-2" d="M12.75,2.71h8a1.52,1.52,0,0,1,1.52,1.52v6.1a0,0,0,0,1,0,0h-9.5a0,0,0,0,1,0,0V2.71A0,0,0,0,1,12.75,2.71Z"/><path class="cls-3" d="M3.25,10.32h9.5a0,0,0,0,1,0,0v7.62a0,0,0,0,1,0,0h-8a1.52,1.52,0,0,1-1.52-1.52v-6.1A0,0,0,0,1,3.25,10.32Z"/><polygon class="cls-2" points="17.38 12.48 17.86 13.45 18.93 13.61 18.16 14.37 18.34 15.44 17.38 14.93 16.42 15.44 16.6 14.37 15.82 13.61 16.9 13.45 17.38 12.48"/><polygon class="cls-3" points="8 5.04 8.48 6.01 9.56 6.17 8.78 6.92 8.96 7.99 8 7.49 7.04 7.99 7.23 6.92 6.45 6.17 7.52 6.01 8 5.04"/></g></g></svg>