<svg xmlns="http://www.w3.org/2000/svg" viewBox="0 0 23.49 30.16"><defs><style>.cls-1{fill:#fff;}</style></defs><title>APLICAR</title><g id="Capa_2" data-name="Capa 2"><g id="Capa_1-2" data-name="Capa 1"><path class="cls-1" d="M6.34,7.13h0a1,1,0,0,1-1-1V3.4a1,1,0,0,1,2,0V6.11A1,1,0,0,1,6.34,7.13Z"/><path class="cls-1" d="M11.86,29.67v-.49h-.23A1.63,1.63,0,0,1,10,27.54V23.17a2.58,2.58,0,0,0-.47-1.49l0,0L1.24,12.45l-.37.32.4-.28A1.61,1.61,0,0,1,1,11.57a1.66,1.66,0,0,1,.46-1.14,1.57,1.57,0,0,1,1.18-.5H20.87a1.57,1.57,0,0,1,1.18.5,1.66,1.66,0,0,1,.46,1.14,1.61,1.61,0,0,1-.29.92l.4.28-.37-.32L14,21.66l0,0a2.58,2.58,0,0,0-.47,1.49v4.37a1.63,1.63,0,0,1-1.63,1.64v1a2.61,2.61,0,0,0,2.61-2.62V23.17a1.65,1.65,0,0,1,.29-.93l-.4-.28.36.33L23,13.08l0,0a2.59,2.59,0,0,0,.47-1.48,2.67,2.67,0,0,0-.73-1.82A2.6,2.6,0,0,0,20.87,9H2.62a2.6,2.6,0,0,0-1.89.8A2.67,2.67,0,0,0,0,11.57a2.59,2.59,0,0,0,.47,1.48l0,0,8.28,9.21L9.13,22l-.4.28a1.65,1.65,0,0,1,.29.93v4.37a2.61,2.61,0,0,0,2.61,2.62h.23Z"/><path class="cls-1" d="M16,8.06V6.82a1,1,0,1,1,2,0V8.06Z"/><path class="cls-1" d="M16.54.77V3.14a.49.49,0,1,0,1,0V.77a.49.49,0,1,0-1,0"/><path class="cls-1" d="M10.73,6.43V7.52a.49.49,0,1,0,1,0V6.43a.49.49,0,0,0-1,0"/><path class="cls-1" d="M2.62,1.19v3.9a.49.49,0,1,0,1,0V1.19a.49.49,0,0,0-1,0"/><path class="cls-1" d="M8.73,11H2.58a.49.49,0,0,0,0,1H8.73a.49.49,0,1,0,0-1"/><path class="cls-1" d="M13.2,4.75h0a1,1,0,0,1-1-1V1a1,1,0,0,1,2,0V3.73A1,1,0,0,1,13.2,4.75Z"/></g></g></svg>