<svg xmlns="http://www.w3.org/2000/svg" viewBox="0 0 38.26 38.57"><defs><style>.cls-1{fill:#2d3e8e;}</style></defs><title>BUSCADOR</title><g id="Capa_2" data-name="Capa 2"><g id="Capa_1-2" data-name="Capa 1"><path class="cls-1" d="M11.44,7.18H13V5.58a.3.3,0,0,0-.28-.29H11.44c-.19,0-.28.1-.28.29V6.9A.24.24,0,0,0,11.44,7.18Z"/><path class="cls-1" d="M11.16,9.08V10.4a.31.31,0,0,0,.28.28h1.31A.24.24,0,0,0,13,10.4V8.79H11.44C11.16,8.79,11.16,8.89,11.16,9.08Z"/><path class="cls-1" d="M15,9.74a2.73,2.73,0,0,0,2.72,2.74h.66a.3.3,0,0,0,.28-.28V10.87a.3.3,0,0,0-.28-.28h-.66a.84.84,0,0,1-.84-.85v-1h1.5a.43.43,0,0,0,.28-.38v-1a.3.3,0,0,0-.28-.28h-1.6V5.58a.3.3,0,0,0-.28-.29H15.28c-.09,0-.18.19-.18.29V7.09H13.22v1.7H15.1Z"/><path class="cls-1" d="M34.13,4.07A13.48,13.48,0,0,0,24.47,0a14.12,14.12,0,0,0-5.25,1A2.27,2.27,0,0,0,18,4,2.24,2.24,0,0,0,20.91,5.2a9.82,9.82,0,0,1,3.66-.76,9.35,9.35,0,0,1,6.56,2.74,9.11,9.11,0,0,1,2.72,6.62,9.51,9.51,0,0,1-2.72,6.62,8.94,8.94,0,0,1-6.56,2.74A9.35,9.35,0,0,1,18,20.42h0a9.53,9.53,0,0,1-2.72-5.67,2.21,2.21,0,1,0-4.4.47,14,14,0,0,0,2.53,6.71L11.25,24a3.3,3.3,0,0,0-.94-.09,4.26,4.26,0,0,0-3,1.23L1.22,31.29a4.17,4.17,0,0,0-1.22,3,4.32,4.32,0,0,0,1.22,3h0a4.08,4.08,0,0,0,3,1.23,4.24,4.24,0,0,0,3-1.23l6.1-6.14a4.16,4.16,0,0,0,1.21-3c0-.28-.09-.66-.09-.94h0A4,4,0,0,1,19,26.5a13.12,13.12,0,0,0,5.53,1.2,13.34,13.34,0,0,0,9.66-4.07,13.76,13.76,0,0,0,4-9.73A15.16,15.16,0,0,0,34.13,4.07Z"/></g></g></svg>