<svg xmlns="http://www.w3.org/2000/svg" viewBox="0 0 23.48 23.52"><defs><style>.cls-1{fill:#22284d;}</style></defs><title>CELULAR</title><g id="Capa_2" data-name="Capa 2"><g id="Capa_1-2" data-name="Capa 1"><path class="cls-1" d="M12,0A11.44,11.44,0,0,0,.47,10.92v.54a11.29,11.29,0,0,0,1.58,5.78v.12l-2,6a.09.09,0,0,0,.13.12l6.27-2q.06-.07.12,0A11.3,11.3,0,0,0,12,22.89,11.5,11.5,0,0,0,23.48,11.42v-.29A11.4,11.4,0,0,0,12,0Zm0,20.69A9.25,9.25,0,0,1,8,19.81c-.34-.16-1-.54-1.21-.66H6.66l-3.12,1c-.08,0-.16,0-.12-.13l1-3c0-.08,0-.12,0-.16s-.16-.25-.25-.3a9.11,9.11,0,0,1-1.57-5.15,6.93,6.93,0,0,1,0-.91,9.26,9.26,0,0,1,9.3-8.39,9.4,9.4,0,0,1,9.31,8.56,4.41,4.41,0,0,1,0,.7A9.33,9.33,0,0,1,11.93,20.69Z"/><path class="cls-1" d="M16.92,13.62c-.21-.12-1.62-.83-1.91-.91s-.5-.17-.75.17-.71.87-.87,1.08-.25.16-.5,0a10.21,10.21,0,0,1-2.2-1.37,8.17,8.17,0,0,1-1.54-1.87c-.13-.21,0-.29.12-.46s.5-.58.54-.62L10,9.35a.71.71,0,0,0,0-.59c0-.08-.79-1.86-.87-2-.21-.5-.46-.5-.67-.5S7.32,6.27,7,6.6l0,.05a3,3,0,0,0-.87,2.28,4.47,4.47,0,0,0,.16,1,6.24,6.24,0,0,0,1,1.95s.7,1,1.08,1.41A9.44,9.44,0,0,0,12,16a8.79,8.79,0,0,0,2.74.79c.16,0,.54-.08.62-.08a2.89,2.89,0,0,0,1.95-1.37A2.23,2.23,0,0,0,17.5,14,2.43,2.43,0,0,0,16.92,13.62Z"/></g></g></svg>