<svg xmlns="http://www.w3.org/2000/svg" viewBox="0 0 22.46 23.45"><defs><style>.cls-1{fill:#fff;}</style></defs><title>CENTRO AYUDA</title><g id="Capa_2" data-name="Capa 2"><g id="Capa_1-2" data-name="Capa 1"><path class="cls-1" d="M11.21,17.2a.91.91,0,0,0,.9-.72,3.56,3.56,0,0,1,1.44-2.08A3,3,0,0,0,15,11.94c0-1.87-1.5-3.1-3.82-3.1a3.61,3.61,0,0,0-3.32,1.72A1,1,0,0,0,8.69,12a1,1,0,0,0,1-.53,1.56,1.56,0,0,1,1.49-.83,1.4,1.4,0,0,1,1.57,1.4,1.85,1.85,0,0,1-.86,1.4,4,4,0,0,0-1.55,2.64A.93.93,0,0,0,11.21,17.2Z"/><path class="cls-1" d="M18,11.58h-.42a6.34,6.34,0,0,1-4.7,6.12,1.38,1.38,0,0,0-.62.41c-.24.25-.46.55-.66.77a1.32,1.32,0,0,1-.25.24l-.08.05h-.06a2.84,2.84,0,0,1-.64-.66,4.58,4.58,0,0,0-.42-.46,1.34,1.34,0,0,0-.55-.35A6.34,6.34,0,0,1,4.9,11.58a6.33,6.33,0,0,1,12.66,0h.84a7.17,7.17,0,1,0-9,6.93s.11,0,.23.18.41.49.65.76a3.6,3.6,0,0,0,.41.37,1.18,1.18,0,0,0,.58.2A1.1,1.1,0,0,0,12,19.7a6.41,6.41,0,0,0,.71-.79,2.9,2.9,0,0,1,.27-.3c.08-.07.14-.1.14-.09a7.18,7.18,0,0,0,5.33-6.94Z"/><path class="cls-1" d="M12.84,21.8a1.65,1.65,0,1,1-1.65-1.64A1.65,1.65,0,0,1,12.84,21.8Z"/><path class="cls-1" d="M20.29,14.77v-.42h-.56A1.34,1.34,0,0,1,18.4,13V8.73A1.34,1.34,0,0,1,19.73,7.4h.56a1.34,1.34,0,0,1,1.33,1.33V13a1.33,1.33,0,0,1-1.33,1.33v.84A2.17,2.17,0,0,0,22.46,13V8.73a2.17,2.17,0,0,0-2.17-2.17h-.56a2.17,2.17,0,0,0-2.17,2.17V13a2.17,2.17,0,0,0,2.17,2.17h.56Z"/><path class="cls-1" d="M2.73,14.77v-.42H2.17A1.34,1.34,0,0,1,.84,13V8.73A1.34,1.34,0,0,1,2.17,7.4h.56A1.34,1.34,0,0,1,4.06,8.73V13a1.34,1.34,0,0,1-1.33,1.33v.84A2.17,2.17,0,0,0,4.9,13V8.73A2.17,2.17,0,0,0,2.73,6.56H2.17A2.17,2.17,0,0,0,0,8.73V13a2.17,2.17,0,0,0,2.17,2.17h.56Z"/><rect class="cls-1" x="1.91" y="6.34" width="1.15" height="0.68"/><rect class="cls-1" x="19.44" y="6.34" width="1.15" height="0.68"/><path class="cls-1" d="M2.77,6.82a9,9,0,0,1,16.85-.2.42.42,0,0,0,.54.25.43.43,0,0,0,.25-.55A9.82,9.82,0,0,0,2,6.54a.42.42,0,0,0,.25.54A.43.43,0,0,0,2.77,6.82Z"/><path class="cls-1" d="M22.17,14a5.24,5.24,0,0,1-.34,1.5,9.8,9.8,0,0,1-.59,1.33,5,5,0,0,1-.88,1.23,4.14,4.14,0,0,1-.63.43,2.19,2.19,0,0,1-.76.25h0c-.26,0-.54-.11-.8-.06a4.69,4.69,0,0,0-.79.29,2,2,0,0,1-.8.13l-.81,0a.45.45,0,0,1-.43-.47.46.46,0,0,1,.39-.43l.8-.1a2,2,0,0,1,.81.05,4.07,4.07,0,0,0,.81.22c.27,0,.53-.15.8-.13h0a1.54,1.54,0,0,0,.56-.23,3.23,3.23,0,0,0,.49-.39,4.47,4.47,0,0,0,.67-1.09,9.09,9.09,0,0,0,.48-1.26A4.62,4.62,0,0,0,21.32,14v0a.43.43,0,0,1,.43-.42.42.42,0,0,1,.42.43Z"/></g></g></svg>