<svg xmlns="http://www.w3.org/2000/svg" viewBox="0 0 26.62 27.79"><defs><style>.cls-1{fill:#02dcff;}.cls-2{fill:#fff;}.cls-3{fill:#fffffb;}</style></defs><title>CENTRO DE AYUDA</title><g id="Capa_2" data-name="Capa 2"><g id="Capa_1-2" data-name="Capa 1"><path class="cls-1" d="M3.84,17.5h0a1.71,1.71,0,0,1-1.71-1.71V11.07a1.72,1.72,0,1,1,3.43,0v4.72A1.72,1.72,0,0,1,3.84,17.5Z"/><path class="cls-1" d="M22.68,17.5h0A1.72,1.72,0,0,1,21,15.79V11.07a1.72,1.72,0,1,1,3.43,0v4.72A1.71,1.71,0,0,1,22.68,17.5Z"/><path class="cls-1" d="M13.28,20.38a1.08,1.08,0,0,0,1.07-.85,4.25,4.25,0,0,1,1.7-2.47,3.6,3.6,0,0,0,1.66-2.91c0-2.22-1.78-3.68-4.53-3.68a4.25,4.25,0,0,0-3.92,2,1.2,1.2,0,0,0,1,1.74,1.16,1.16,0,0,0,1.12-.63,1.86,1.86,0,0,1,1.76-1A1.66,1.66,0,0,1,15,14.31,2.17,2.17,0,0,1,14,16a4.78,4.78,0,0,0-1.84,3.12A1.11,1.11,0,0,0,13.28,20.38Z"/><path class="cls-2" d="M21.31,13.72h-.5A7.5,7.5,0,0,1,15.23,21a1.57,1.57,0,0,0-.72.49c-.29.29-.55.65-.78.91a2.48,2.48,0,0,1-.31.29l-.09.05h-.07a3.26,3.26,0,0,1-.76-.78c-.16-.18-.32-.38-.49-.55a1.69,1.69,0,0,0-.66-.41,7.5,7.5,0,1,1,9.46-7.24h1a8.5,8.5,0,1,0-10.72,8.21.77.77,0,0,1,.28.22c.22.22.48.57.77.89a2.88,2.88,0,0,0,.48.44,1.16,1.16,0,0,0,1.54-.14,7.93,7.93,0,0,0,.84-.93,4.39,4.39,0,0,1,.32-.36.83.83,0,0,1,.17-.11,8.51,8.51,0,0,0,6.32-8.22Z"/><path class="cls-1" d="M15.22,25.83a2,2,0,1,1-2-1.95A2,2,0,0,1,15.22,25.83Z"/><path class="cls-2" d="M24,17.5V17h-.66a1.57,1.57,0,0,1-1.57-1.57V10.34a1.57,1.57,0,0,1,1.57-1.57H24a1.59,1.59,0,0,1,1.58,1.57v5.09A1.58,1.58,0,0,1,24,17v1a2.58,2.58,0,0,0,2.58-2.57V10.34A2.58,2.58,0,0,0,24,7.77h-.66a2.57,2.57,0,0,0-2.57,2.57v5.09A2.57,2.57,0,0,0,23.38,18H24Z"/><path class="cls-2" d="M3.24,17.5V17H2.57A1.57,1.57,0,0,1,1,15.43V10.34A1.57,1.57,0,0,1,2.57,8.77h.67a1.58,1.58,0,0,1,1.57,1.57v5.09A1.57,1.57,0,0,1,3.24,17v1a2.57,2.57,0,0,0,2.57-2.57V10.34A2.57,2.57,0,0,0,3.24,7.77H2.57A2.57,2.57,0,0,0,0,10.34v5.09A2.57,2.57,0,0,0,2.57,18h.67Z"/><rect class="cls-3" x="2.26" y="7.51" width="1.36" height="0.81"/><rect class="cls-3" x="23.03" y="7.51" width="1.36" height="0.81"/><path class="cls-2" d="M3.29,8.08a10.63,10.63,0,0,1,20-.23.49.49,0,0,0,.64.29.5.5,0,0,0,.29-.65,11.64,11.64,0,0,0-21.84.25.5.5,0,0,0,1,.34Z"/><path class="cls-2" d="M26.26,16.62a5.9,5.9,0,0,1-.4,1.76A11.11,11.11,0,0,1,25.17,20a5.73,5.73,0,0,1-1.05,1.46,4,4,0,0,1-.75.51,2.32,2.32,0,0,1-.9.29h0c-.31.05-.64-.13-.95-.07a5.58,5.58,0,0,0-.94.34,2.21,2.21,0,0,1-.94.15l-1,0a.54.54,0,0,1-.51-.56.54.54,0,0,1,.47-.51l.94-.12a2.41,2.41,0,0,1,1,.06,4.28,4.28,0,0,0,1,.26c.32,0,.62-.17.94-.15h0a1.84,1.84,0,0,0,.66-.27,4.57,4.57,0,0,0,.58-.47,4.9,4.9,0,0,0,.8-1.28,12.87,12.87,0,0,0,.57-1.5,5.54,5.54,0,0,0,.29-1.46v0a.51.51,0,0,1,.51-.49.49.49,0,0,1,.49.5Z"/></g></g></svg>