<svg xmlns="http://www.w3.org/2000/svg" viewBox="0 0 24.09 15.46"><defs><style>.cls-1{fill:#fff;}</style></defs><title>CERRAR SESIÓN</title><g id="Capa_2" data-name="Capa 2"><g id="Capa_1-2" data-name="Capa 1"><path class="cls-1" d="M13.21,13.92H3.07a1,1,0,0,1-.51-.15,1.84,1.84,0,0,1-.7-.79,3.09,3.09,0,0,1-.31-1.38V3.86a2.82,2.82,0,0,1,.52-1.72,1.46,1.46,0,0,1,.49-.45,1,1,0,0,1,.51-.14H13.21a.78.78,0,0,0,0-1.55H3.07A2.62,2.62,0,0,0,1.8.34,3.37,3.37,0,0,0,.48,1.79,4.51,4.51,0,0,0,0,3.86V11.6a4.42,4.42,0,0,0,.83,2.65,3.23,3.23,0,0,0,1,.87,2.51,2.51,0,0,0,1.27.34H13.21a.77.77,0,0,0,0-1.54Z"/><path class="cls-1" d="M23.86,7.07,19.09,2.3A.77.77,0,0,0,18,3.39h0L21.57,7H8A.77.77,0,0,0,8,8.5H21.33l-3.57,3.57a.78.78,0,0,0,0,1.1.77.77,0,0,0,1.09,0l5-5A.77.77,0,0,0,23.86,7.07Z"/></g></g></svg>