<svg xmlns="http://www.w3.org/2000/svg" viewBox="0 0 24.14 23.34"><defs><style>.cls-1{fill:#02dcff;}.cls-2{fill:#fff;}</style></defs><title>CONTACTENOS</title><g id="Capa_2" data-name="Capa 2"><g id="Capa_1-2" data-name="Capa 1"><path class="cls-1" d="M2.48,20.26l4.9-6.08L2.24,10.31l0,0A2.19,2.19,0,0,0,1.39,12v6.87a2.16,2.16,0,0,0,1,1.84A.49.49,0,0,1,2.48,20.26Z"/><path class="cls-1" d="M20.62,12.24l-.09-.07-4.25,3.14a6.49,6.49,0,0,1-3.69,1.17,6.41,6.41,0,0,1-3.84-1.27l-.57-.43L3.26,20.89,3.07,21a1.68,1.68,0,0,0,.45.05H19.31a2.15,2.15,0,0,0,2.13-2.16v-5A2.17,2.17,0,0,0,20.62,12.24Z"/><path class="cls-2" d="M23.2,8.07a.52.52,0,0,0-.14-.19L19.3,4.93V3.27a.51.51,0,0,0-.5-.5H16.54L13.74.57h0a2.64,2.64,0,0,0-3.28,0h0L7.65,2.77H5.34A.51.51,0,0,0,5,2.92l0,0A0,0,0,0,1,5,3a.51.51,0,0,0-.15.36V5L1.08,7.92l0,0h0L1,8H1a2.66,2.66,0,0,0-1,2.09v10.6a2.66,2.66,0,0,0,2.66,2.66H21.48a2.66,2.66,0,0,0,2.66-2.66V10.08A2.63,2.63,0,0,0,23.2,8.07ZM18.27,3.81v7l-2.9,2.06a6.12,6.12,0,0,1-7.07-.09L5.81,11V5.35a.61.61,0,0,0,0-.13V3.81Zm3.64,4.44-2.64,1.88v-4ZM11.08,1.36h0a1.63,1.63,0,0,1,2,0h0L15,2.81H9.23ZM4.81,6.27v4L2.21,8.3ZM23.14,20.68a1.67,1.67,0,0,1-1.66,1.66H2.66A1.66,1.66,0,0,1,1,20.68V10.08A1.69,1.69,0,0,1,1.4,9l5.85,4.34-4.84,6a.5.5,0,0,0,.78.63L8.08,13.9a7,7,0,0,0,7.41.1l4.68,6a.51.51,0,0,0,.71.09.52.52,0,0,0,.08-.71l-4.62-5.9L22.68,9a1.62,1.62,0,0,1,.46,1.13Z"/><path class="cls-2" d="M7.09,5.16h.4v.5H7.11L7,5.73V6.1l.08.07h.37l.07-.07V5.68h.5v.24a.76.76,0,0,0,.73.78H9L9,6.63V6.26L9,6.19H8.78a.25.25,0,0,1-.25-.26V5.69H9L9,5.6V5.23L9,5.16H8.54V4.7l-.08-.08H8.08L8,4.7v.44l0,0H7.53V4.72l-.07-.08H7.09L7,4.72v.37Z"/><path class="cls-2" d="M12,6.16h4.24a.5.5,0,0,0,.5-.5.5.5,0,0,0-.5-.5H12a.5.5,0,0,0-.5.5A.5.5,0,0,0,12,6.16Z"/><path class="cls-2" d="M16.28,7.74H7.55a.5.5,0,0,0-.5.5.5.5,0,0,0,.5.5h8.73a.5.5,0,0,0,.5-.5A.5.5,0,0,0,16.28,7.74Z"/><path class="cls-2" d="M10.43,9.81H7.55a.5.5,0,0,0-.5.5.5.5,0,0,0,.5.5h2.88a.51.51,0,0,0,.5-.5A.5.5,0,0,0,10.43,9.81Z"/></g></g></svg>