<svg xmlns="http://www.w3.org/2000/svg" viewBox="0 0 36.17 34.63"><defs><style>.cls-1{fill:#2d3e8e;}</style></defs><title>CONTACTOS</title><g id="Capa_2" data-name="Capa 2"><g id="Capa_1-2" data-name="Capa 1"><path class="cls-1" d="M0,13.06c.05-.62.09-1.25.15-1.86.25-2.56,2-4,4.06-5a4.09,4.09,0,0,1,3.2,0A1.87,1.87,0,0,1,8.6,7.57c.5,1.87,1,3.73,1.53,5.6a2.38,2.38,0,0,1-.69,2.56c-.38.34-.74.7-1.12,1.05A1.53,1.53,0,0,0,8.1,19a34.32,34.32,0,0,0,7.12,7.27c1.18.89,1.53.86,2.58-.14.37-.35.75-.69,1.1-1.07a2.09,2.09,0,0,1,2.2-.6c2,.55,4,1.14,5.95,1.75.94.29,1.2,1.08,1.37,2,.55,2.9-2.62,6.16-5.21,6.37a15,15,0,0,1-9.15-2.09A33.46,33.46,0,0,1,1.8,19.83,14.68,14.68,0,0,1,0,13.06Z"/><path class="cls-1" d="M36.17,17.48A1.3,1.3,0,0,1,35,18.9a1.34,1.34,0,0,1-1.54-1,36.48,36.48,0,0,0-1.77-4.45C28.43,7.27,23.1,3.91,16.26,2.76a1.46,1.46,0,0,1-1.35-1c-.31-1,.51-1.9,1.68-1.74A23.77,23.77,0,0,1,24,2.3,22.69,22.69,0,0,1,36.1,17.11,1.76,1.76,0,0,1,36.17,17.48Z"/><path class="cls-1" d="M17.1,5.84a15.64,15.64,0,0,1,11.37,7.64,25.32,25.32,0,0,1,1.67,3.89,1.34,1.34,0,0,1-.85,1.88,1.36,1.36,0,0,1-1.76-1.08c-1.71-5.51-5.47-8.67-11.11-9.65A1.34,1.34,0,0,1,15.16,7C15.24,6.24,15.85,5.77,17.1,5.84Z"/><path class="cls-1" d="M16.67,11.17a9.37,9.37,0,0,1,6.64,4.18A10.9,10.9,0,0,1,24.52,18a2,2,0,0,1-.22,1.55A1.31,1.31,0,0,1,22,19a7,7,0,0,0-5.92-5.14A1.33,1.33,0,0,1,15,12.35C15.07,11.63,15.65,11.15,16.67,11.17Z"/></g></g></svg>