<svg xmlns="http://www.w3.org/2000/svg" viewBox="0 0 8.87 10.66"><defs><style>.cls-1{fill:#1d1d1b;}</style></defs><title>CONTRASEÑA</title><g id="Capa_2" data-name="Capa 2"><g id="Capa_1-2" data-name="Capa 1"><path class="cls-1" d="M7.32,3.75V2.19A2.19,2.19,0,0,0,5.13,0H3.74A2.19,2.19,0,0,0,1.55,2.19V3.75A2.23,2.23,0,0,0,0,5.87V8.42a2.24,2.24,0,0,0,2.24,2.24H6.63A2.24,2.24,0,0,0,8.87,8.42V5.87A2.23,2.23,0,0,0,7.32,3.75ZM4.87,6.86V8.54A.43.43,0,0,1,4.44,9,.44.44,0,0,1,4,8.54V6.86a.85.85,0,0,1-.39-.7.83.83,0,0,1,1.65,0A.85.85,0,0,1,4.87,6.86ZM6.31,3.63H2.56V2.19A1.18,1.18,0,0,1,3.74,1H5.13A1.18,1.18,0,0,1,6.31,2.19Z"/></g></g></svg>