<svg xmlns="http://www.w3.org/2000/svg" viewBox="0 0 25.23 24.41"><defs><style>.cls-1{fill:#02dcff;}.cls-2{fill:#22284d;}</style></defs><title>CORREO ELECTR</title><g id="Capa_2" data-name="Capa 2"><g id="Capa_1-2" data-name="Capa 1"><path class="cls-1" d="M2.8,21l5-6.23-5.27-4,0,0a2.21,2.21,0,0,0-.83,1.74v7a2.22,2.22,0,0,0,1.05,1.89A.5.5,0,0,1,2.8,21Z"/><path class="cls-1" d="M21.37,12.79l-.09-.08-4.35,3.22a6.59,6.59,0,0,1-7.72-.1l-.58-.44-5,6.25-.19.15a2.31,2.31,0,0,0,.46.05H20a2.21,2.21,0,0,0,2.18-2.22V14.53A2.22,2.22,0,0,0,21.37,12.79Z"/><polygon class="cls-2" points="20.05 3.06 20.05 3.06 20.05 3.06 20.05 3.06"/><path class="cls-2" d="M24.22,8.36h0l-.15-.19,0,0-3.78-3V3.61a.75.75,0,0,0-.77-.77H17.29L14.49.64h0A3,3,0,0,0,12.66,0h-.05a3,3,0,0,0-1.8.64h0L8,2.84H5.73a.8.8,0,0,0-.55.22v0h0a.77.77,0,0,0-.22.54V5.25L1.18,8.18l0,0h0A3,3,0,0,0,0,10.58V21.43a3,3,0,0,0,3,3H22.25a3,3,0,0,0,3-3V10.58A3,3,0,0,0,24.22,8.36ZM11.75,1.85h0a1.46,1.46,0,0,1,1.77,0v0h0l1.29,1H10.45Zm8.49,8.29v-3l2,1.59ZM23.7,21.43a1.46,1.46,0,0,1-1.45,1.44H3a1.43,1.43,0,0,1-1.44-1.44V10.58a1.49,1.49,0,0,1,.22-.74L7.32,14,2.53,19.91a.72.72,0,0,0-.17.48.76.76,0,0,0,.28.6.8.8,0,0,0,.48.17.76.76,0,0,0,.6-.29L8.6,14.82a7.28,7.28,0,0,0,7.45.09l4.66,5.95a.76.76,0,0,0,.61.3.83.83,0,0,0,.47-.16.8.8,0,0,0,.3-.61.75.75,0,0,0-.17-.47l-4.57-5.84,6.07-4.3a1.51,1.51,0,0,1,.28.8Zm-5-10.2-2.87,2a6,6,0,0,1-3.4,1.06A6,6,0,0,1,8.9,13.17L6.46,11.36V5.76l0-.1V4.41H18.71ZM3,8.75l2-1.55v3Z"/><path class="cls-2" d="M17.14,6.06H8A.77.77,0,1,0,8,7.59h9.11a.77.77,0,1,0,0-1.53Z"/><path class="cls-2" d="M14,9.78H11a.77.77,0,0,0,0,1.54H14a.77.77,0,1,0,0-1.54Z"/></g></g></svg>