<svg xmlns="http://www.w3.org/2000/svg" viewBox="0 0 27.88 20.42"><defs><style>.cls-1{fill:#fff;}.cls-2{fill:#02dcff;}</style></defs><title>DESCARGAR PDF</title><g id="Capa_2" data-name="Capa 2"><g id="Capa_1-2" data-name="Capa 1"><path class="cls-1" d="M10.89,18.22a.69.69,0,0,1-.69-.69V10.08H9v7.45a1.94,1.94,0,0,0,1.94,1.94H22l-1-1.25Z"/><path class="cls-1" d="M20,0h-9.1A1.94,1.94,0,0,0,9,1.94V3.31H10.2V1.94a.69.69,0,0,1,.69-.69h8.52V4.41a1,1,0,0,0,1.05,1h2.6v1.8a1.59,1.59,0,0,1,.72-.17h.53V4.68Z"/><rect class="cls-1" x="11.79" y="11.6" width="7.22" height="0.98"/><rect class="cls-1" x="11.79" y="13.72" width="7.22" height="0.98"/><rect class="cls-1" x="11.79" y="15.83" width="7.22" height="0.98"/><path class="cls-2" d="M8.82,6.21H7.9V9.34h.92a1.39,1.39,0,0,0,1.35-1.57A1.39,1.39,0,0,0,8.82,6.21Z"/><path class="cls-2" d="M4.63,6.21H3.74V7.78h.89A.73.73,0,0,0,5.42,7,.75.75,0,0,0,4.63,6.21Z"/><path class="cls-2" d="M16.36,3.85H1.54A1.54,1.54,0,0,0,0,5.39v5a1.54,1.54,0,0,0,1.54,1.54H16.36a1.54,1.54,0,0,0,1.55-1.54v-5A1.54,1.54,0,0,0,16.36,3.85ZM4.69,8.5h-1v1.56H2.87V5.49H4.72A1.46,1.46,0,0,1,6.32,7,1.49,1.49,0,0,1,4.69,8.5Zm4.13,1.56H7V5.49H8.82a2.14,2.14,0,0,1,2.25,2.28A2.15,2.15,0,0,1,8.82,10.06Zm5.94-3.85h-2v1.3h1.73v.72H12.75v1.83h-.87V5.49h2.88Z"/><polygon class="cls-2" points="25.4 15.83 25.4 8.75 23.22 8.75 23.22 15.83 20.73 15.83 24.31 20.42 27.88 15.83 25.4 15.83"/></g></g></svg>