<svg xmlns="http://www.w3.org/2000/svg" viewBox="0 0 31.54 41.64"><defs><style>.cls-1{fill:#2d3e8e;}</style></defs><title>DISTANCIA</title><g id="Capa_2" data-name="Capa 2"><g id="Capa_1-2" data-name="Capa 1"><path class="cls-1" d="M15.77,0A15.75,15.75,0,0,0,0,15.72,15.52,15.52,0,0,0,7.67,29.16l8.15,12.48L24,29.11A15.71,15.71,0,0,0,15.77,0Zm0,27.92A12.21,12.21,0,1,1,28,15.72,12.19,12.19,0,0,1,15.77,27.92Z"/><path class="cls-1" d="M20.79,20a2.24,2.24,0,0,1-2.21-2.32V15.34H22l.05-.16V12.42L22,12.26H18.85v.16h-.32V8.7l-.06-.17H15.82l-.16.17v3.72H12.15V9.61L12,9.45H9.4l-.16.16v2.76l.16.16h2.7v2.92H9.4l-.16.16v2.75l.16.17H12l.17-.17V15.55h3.56v2.27a5,5,0,0,0,1.51,3.73,5.26,5.26,0,0,0,3.51,1.57h1.3l.05-.17V20.2L22.09,20Z"/></g></g></svg>