<svg xmlns="http://www.w3.org/2000/svg" viewBox="0 0 20.37 19.7"><defs><style>.cls-1{fill:#fff;}</style></defs><title>E-MAIL</title><g id="Capa_2" data-name="Capa 2"><g id="Capa_1-2" data-name="Capa 1"><path class="cls-1" d="M19.58,6.81a.31.31,0,0,0-.12-.16L16.29,4.16V2.76a.43.43,0,0,0-.13-.3.41.41,0,0,0-.3-.12H14L11.6.48h0A2.25,2.25,0,0,0,10.21,0,2.21,2.21,0,0,0,8.83.48h0L6.46,2.34H4.51a.42.42,0,0,0-.3.12,0,0,0,0,1,0,0h0a.43.43,0,0,0-.13.3V4.22L.91,6.69l0,0h0l0,0h0A2.26,2.26,0,0,0,0,8.51v8.94A2.24,2.24,0,0,0,2.24,19.7H18.13a2.24,2.24,0,0,0,2.24-2.25V8.51A2.21,2.21,0,0,0,19.58,6.81Zm-4.16-3.6V9.15L13,10.89A5.18,5.18,0,0,1,10,11.8a5.12,5.12,0,0,1-3-1L4.91,9.26V4.51a.36.36,0,0,0,0-.11V3.21ZM18.5,7,16.26,8.55V5.21ZM9.35,1.15h0a1.41,1.41,0,0,1,.86-.3,1.36,1.36,0,0,1,.86.3h0l1.56,1.22H7.79ZM4.06,5.29V8.63L1.87,7ZM19.53,17.45a1.4,1.4,0,0,1-1.4,1.4H2.24a1.4,1.4,0,0,1-1.4-1.4V8.51a1.42,1.42,0,0,1,.34-.91l4.94,3.66L2,16.33a.42.42,0,1,0,.65.53l4.13-5.12a6,6,0,0,0,3.2.94,5.93,5.93,0,0,0,3.06-.87l4,5a.42.42,0,1,0,.66-.53l-3.9-5,5.35-3.8a1.38,1.38,0,0,1,.39,1Z"/><path class="cls-1" d="M6,4.35h.34v.42H6l-.06.07v.31L6,5.21h.31l.06-.06V4.79h.42V5a.64.64,0,0,0,.62.65h.16l.06-.06V5.29l-.06-.06H7.41A.21.21,0,0,1,7.2,5V4.8h.37l.06-.06V4.42l-.06-.07H7.2V4L7.13,3.9H6.82L6.76,4v.38h-.4V4l-.07-.06H6L5.92,4v.31Z"/><path class="cls-1" d="M10.16,5.2h3.58a.43.43,0,0,0,0-.85H10.16a.43.43,0,0,0,0,.85Z"/><path class="cls-1" d="M13.74,6.54H6.37A.42.42,0,0,0,6,7a.42.42,0,0,0,.42.42h7.37A.42.42,0,0,0,14.16,7,.41.41,0,0,0,13.74,6.54Z"/><path class="cls-1" d="M8.8,8.28H6.37A.42.42,0,0,0,6,8.7a.42.42,0,0,0,.42.42H8.8a.42.42,0,0,0,.42-.42A.42.42,0,0,0,8.8,8.28Z"/></g></g></svg>