<svg xmlns="http://www.w3.org/2000/svg" viewBox="0 0 16.19 8.69"><defs><style>.cls-1{fill:#1d1d1b;}</style></defs><title>ESCONDER CONTRASEÑA</title><g id="Capa_2" data-name="Capa 2"><g id="Capa_1-2" data-name="Capa 1"><path class="cls-1" d="M16.14.88A.62.62,0,1,0,15,.37h0a7.31,7.31,0,0,1-1.68,2.15,7.85,7.85,0,0,1-5.43,2A7.09,7.09,0,0,1,2.58,2.44,6.56,6.56,0,0,1,1.51,1,3.22,3.22,0,0,1,1.28.56L1.23.44l0,0h0A.61.61,0,0,0,.42,0,.61.61,0,0,0,0,.83H0A7.43,7.43,0,0,0,1.69,3.32l.25.24L.19,5.27a.63.63,0,0,0,0,.89.62.62,0,0,0,.88,0L2.93,4.34a8.37,8.37,0,0,0,1.43.76L3.74,7.67A.62.62,0,1,0,5,8l.6-2.49a9,9,0,0,0,1.72.25V8.07a.63.63,0,0,0,1.25,0V5.73a9.08,9.08,0,0,0,1.79-.26l.57,2.39a.62.62,0,1,0,1.21-.3L11.5,5.09A9.56,9.56,0,0,0,13,4.33l1.77,1.73a.63.63,0,0,0,.87-.9L14,3.57c.09-.08.19-.15.27-.23A8.27,8.27,0,0,0,16.14.88Z"/></g></g></svg>