<svg xmlns="http://www.w3.org/2000/svg" viewBox="0 0 26.62 26.06"><defs><style>.cls-1{fill:#fff;}</style></defs><title>ESTADOS DE CUENTA</title><g id="Capa_2" data-name="Capa 2"><g id="Capa_1-2" data-name="Capa 1"><path class="cls-1" d="M9.58,8.21H23.51v-1H9.58Z"/><path class="cls-1" d="M26.62,5.31V2.55h0A2.81,2.81,0,0,0,25.93.69,2.48,2.48,0,0,0,24.13,0H5.79A2.76,2.76,0,0,0,4,.69a2.62,2.62,0,0,0-.69,1.79V22.69h0a.92.92,0,0,1-.21.69.68.68,0,0,1-.55.2h0a.71.71,0,0,1-.55-.2,1,1,0,0,1-.21-.69V5h0V5h1V3.24H0V14.55H0v.34H0v1.52H0v.07H0V23H0a2.46,2.46,0,0,0,.55,1.52,2.17,2.17,0,0,0,1.38.76h0a10.06,10.06,0,0,0,1.45.07H5.86V23.65h-1A6.74,6.74,0,0,0,5,22.41H5V3H5V2.41a.76.76,0,0,1,.76-.69h0a.65.65,0,0,1,.55.21,1.1,1.1,0,0,1,.21.76V25.24h0v.69l.28.07a4.44,4.44,0,0,0,.89.06,2.43,2.43,0,0,0,1.52-.48h0a2,2,0,0,1,1.1-.41,1.69,1.69,0,0,1,1,.41h0a1.67,1.67,0,0,0,1.1.42,1.69,1.69,0,0,0,1.11-.42h0a1.67,1.67,0,0,1,1-.41,1.38,1.38,0,0,1,.9.34h0l.2.14a1.49,1.49,0,0,0,2-.07h0a2.06,2.06,0,0,1,1.11-.41,1.5,1.5,0,0,1,1,.41h0a1.66,1.66,0,0,0,2.21,0h0a1.66,1.66,0,0,1,1-.41,1.69,1.69,0,0,1,1,.41,2.34,2.34,0,0,0,1.59.48A3.78,3.78,0,0,0,26.2,26h.28v-.69h0v-17h0A22,22,0,0,0,26.62,5.31Zm-1.73,19a2.73,2.73,0,0,0-.55-.27h0a2.52,2.52,0,0,0-1.52-.56,2.19,2.19,0,0,0-1.38.56h0a1,1,0,0,1-1.37,0h0a2.23,2.23,0,0,0-1.45-.56,2.15,2.15,0,0,0-1.38.56,1.15,1.15,0,0,1-.69.27,1.35,1.35,0,0,1-.83-.34h0a1.92,1.92,0,0,0-1.31-.49,2.12,2.12,0,0,0-1.24.49,1.11,1.11,0,0,1-.83.34,1.88,1.88,0,0,1-.89-.34h0a2.35,2.35,0,0,0-1.24-.49A2.23,2.23,0,0,0,9,23.86H9a4.44,4.44,0,0,1-.82.41V22.34h0V3.24c0-.55-.07-1-.07-1.52H23.79c.27,0,.48,0,.62.14a.53.53,0,0,1,.34.42,1,1,0,0,1,.07.48h0V15.58c.14,5.86.07,2.69.07,8.69Z"/><path class="cls-1" d="M18.69,18.62a2,2,0,0,0-.9-1.93c-.62-.42-1.17-.83-1.79-1.18a.87.87,0,0,1-.42-1.17c.21-.48.69-.69,1.45-.55a1,1,0,0,1,.76.83v.76h1c.13-1.52-.14-1.93-1.59-2.69v-1h-1a4.2,4.2,0,0,1-.06.9.31.31,0,0,1-.21.28,1.74,1.74,0,0,0-1.31,1.51,1.85,1.85,0,0,0,.83,1.93l1.86,1.24a.86.86,0,0,1,.41,1.18,1.11,1.11,0,0,1-1.38.55.91.91,0,0,1-.76-.9v-.76h-1c-.14,1.11.07,1.93.83,2.28a1.23,1.23,0,0,1,.82,1h0v1h1v-.62h0v-.69a.39.39,0,0,1,.27-.42A1.72,1.72,0,0,0,18.69,18.62Z"/><path class="cls-1" d="M23.51,2.48H9.58v1H23.51Z"/><path class="cls-1" d="M16.48,10H9.58v1h6.9Z"/><path class="cls-1" d="M16.55,5.65v-1H9.65v1Z"/><path class="cls-1" d="M19.86,5.65h3.65v-1H19.86Z"/><path class="cls-1" d="M19.86,11h3.65V10H19.86Z"/><path class="cls-1" d="M20.41,21.93h1V21h-1Z"/><path class="cls-1" d="M11.79,21.93h1V21h-1Z"/><path class="cls-1" d="M18.27,21.93h1V21h-1Z"/><path class="cls-1" d="M9.58,21.93h1V21h-1Z"/><path class="cls-1" d="M13.93,21.93h1V21h-1Z"/><path class="cls-1" d="M22.62,21.93h.89V21h-.89Z"/></g></g></svg>