<svg xmlns="http://www.w3.org/2000/svg" viewBox="0 0 28.11 28.74"><defs><style>.cls-1{fill:#575756;}</style></defs><title>FECHA</title><g id="Capa_2" data-name="Capa 2"><g id="Capa_1-2" data-name="Capa 1"><path class="cls-1" d="M24.18,3.61V1.69a1.7,1.7,0,0,0-3.39,0V3.6H7.49V1.69a1.7,1.7,0,0,0-3.39,0V3.6h0A4.08,4.08,0,0,0,0,7.68V24.54a4.2,4.2,0,0,0,4.2,4.2H23.91a4.2,4.2,0,0,0,4.2-4.2V7.68A4.07,4.07,0,0,0,24.18,3.61Zm2.76,20.93a3,3,0,0,1-3,3H4.2a3,3,0,0,1-3-3V10.46H26.94Z"/><rect class="cls-1" x="4.1" y="12.47" width="5.02" height="5.02" rx="0.96"/><rect class="cls-1" x="11.61" y="12.47" width="5.02" height="5.02" rx="0.96"/><rect class="cls-1" x="4.1" y="19.83" width="5.02" height="5.02" rx="0.96"/><rect class="cls-1" x="11.61" y="19.83" width="5.02" height="5.02" rx="0.96"/><rect class="cls-1" x="19.22" y="12.47" width="5.02" height="5.02" rx="0.96"/><rect class="cls-1" x="19.22" y="19.83" width="5.02" height="5.02" rx="0.96"/></g></g></svg>