<svg xmlns="http://www.w3.org/2000/svg" viewBox="0 0 34.72 44.57"><defs><style>.cls-1{fill:#2d3e8e;}</style></defs><title>FILTRO</title><g id="Capa_2" data-name="Capa 2"><g id="Capa_1-2" data-name="Capa 1"><path class="cls-1" d="M9.37,10.53h0A1.51,1.51,0,0,1,7.86,9V5a1.51,1.51,0,1,1,3,0V9A1.51,1.51,0,0,1,9.37,10.53Z"/><path class="cls-1" d="M23.66,11.91V10.07a1.51,1.51,0,0,1,3,0v1.84Z"/><path class="cls-1" d="M24.44,1.13V4.64a.73.73,0,1,0,1.45,0V1.13a.73.73,0,0,0-1.45,0"/><path class="cls-1" d="M15.86,9.5v1.61a.72.72,0,1,0,1.44,0V9.5a.72.72,0,1,0-1.44,0"/><path class="cls-1" d="M3.88,1.76V7.53a.72.72,0,0,0,1.44,0V1.76a.72.72,0,1,0-1.44,0"/><path class="cls-1" d="M33.64,14.41a3.8,3.8,0,0,0-2.79-1.18h-27a3.8,3.8,0,0,0-2.79,1.18A3.93,3.93,0,0,0,0,17.1a3.79,3.79,0,0,0,.7,2.19l0,0L12.91,32.89a2.45,2.45,0,0,1,.42,1.36v6.46a3.86,3.86,0,0,0,3.86,3.86h.34a3.86,3.86,0,0,0,3.86-3.86V34.25a2.45,2.45,0,0,1,.42-1.36L34,19.33l0,0a3.79,3.79,0,0,0,.7-2.19A3.93,3.93,0,0,0,33.64,14.41ZM12.9,17.65H3.81a.73.73,0,0,1-.72-.73.72.72,0,0,1,.72-.72H12.9a.72.72,0,0,1,.72.72A.73.73,0,0,1,12.9,17.65Z"/><path class="cls-1" d="M19.5,7h0A1.5,1.5,0,0,1,18,5.51v-4a1.51,1.51,0,1,1,3,0v4A1.5,1.5,0,0,1,19.5,7Z"/></g></g></svg>