<?xml version="1.0" encoding="utf-8"?>
<!-- Generator: Adobe Illustrator 24.0.2, SVG Export Plug-In . SVG Version: 6.00 Build 0)  -->
<svg version="1.1" id="Capa_1" xmlns="http://www.w3.org/2000/svg" xmlns:xlink="http://www.w3.org/1999/xlink" x="0px" y="0px"
	 viewBox="0 0 129.9 67.5" style="enable-background:new 0 0 129.9 67.5;" xml:space="preserve">
<style type="text/css">
	.st0{fill:#FFFFFF;}
	.st1{fill:#DBFE00;}
</style>
<g>
	<path class="st0" d="M58.7,0H37.6v8.5h10.2h10.9c9.5,0,15.8,7.3,15.8,18.4s-6.3,18.4-15.8,18.4h-9.5l-7.7,8.5h17.2
		c15.9,0,26.5-10.8,26.5-26.9S74.7,0,58.7,0z"/>
	<path class="st0" d="M108.9,13.9c-12.6,0-21.1,8.2-21.1,20.4c0,5.9,2,10.9,5.5,14.5l12.9,17.4c1.3,1.8,4,1.8,5.3,0l12.9-17.4
		c3.5-3.6,5.5-8.5,5.5-14.5C129.9,22.1,121.4,13.9,108.9,13.9z M108.8,46.3c-6.6,0-12-5.4-12-12c0-6.6,5.4-12,12-12
		c6.6,0,12,5.4,12,12C120.9,40.9,115.5,46.3,108.8,46.3z"/>
	<path class="st1" d="M1,22.1l17,12.2c0.7,0.5,1.1,1.3,1,2.1L17,60c-0.2,2.3,2.6,3.5,4.2,1.8l36.3-40.1c1.4-1.5,0.3-4-1.8-4l-53.4,0
		C0.1,17.8-0.9,20.7,1,22.1z"/>
	<circle class="st1" cx="108.9" cy="34.3" r="7.6"/>
</g>
</svg>
