<svg xmlns="http://www.w3.org/2000/svg" viewBox="0 0 86.3 93.46"><defs><style>.cls-1{fill:#22274e;}</style></defs><title>ICON-USUARIOS</title><g id="Capa_2" data-name="Capa 2"><g id="Capa_1-2" data-name="Capa 1"><path class="cls-1" d="M59.54,53.55A29.21,29.21,0,1,0,27,53.46a43.18,43.18,0,0,0-27,40H8.13A34.49,34.49,0,0,1,18.38,68.69,34.84,34.84,0,0,1,43.15,58.44,34.47,34.47,0,0,1,67.92,68.69,34.84,34.84,0,0,1,78.17,93.46H86.3A43.2,43.2,0,0,0,59.54,53.55ZM22.25,29.22a21.13,21.13,0,1,1,6.19,14.9A20.9,20.9,0,0,1,22.25,29.22Z"/></g></g></svg>