<?xml version="1.0" encoding="utf-8"?>
<!-- Generator: Adobe Illustrator 24.0.2, SVG Export Plug-In . SVG Version: 6.00 Build 0)  -->
<svg version="1.1" id="Capa_1" xmlns="http://www.w3.org/2000/svg" xmlns:xlink="http://www.w3.org/1999/xlink" x="0px" y="0px"
	 viewBox="0 0 90.9 90.5" style="enable-background:new 0 0 90.9 90.5;" xml:space="preserve">
<style type="text/css">
	.st0{fill:#DBFE01;}
	.st1{fill:#FFFFFF;}
</style>
<g>
	<g>
		<path class="st0" d="M40.5,51.1l-0.1-2.4c-0.1-0.3-0.2-0.6-0.5-0.5l-2.4,0.1c-0.3,0-0.5,0.2-0.5,0.5l0.1,2.9l2.9-0.1
			C40.3,51.6,40.5,51.3,40.5,51.1z"/>
		<path class="st0" d="M22.6,56L20.2,56c-0.3,0-0.5,0.2-0.5,0.5l0.1,2.9l2.9-0.1c0.3,0,0.5-0.2,0.5-0.5l-0.1-2.4
			C23,56.2,22.9,56,22.6,56z"/>
		<path class="st0" d="M33.1,60.3l-2.6,0.1c-0.3,0-0.5,0.3-0.5,0.5l0.1,3.2l3.2-0.1c0.3,0,0.5-0.3,0.5-0.5l-0.1-2.6
			C33.6,60.6,33.3,60.3,33.1,60.3z"/>
		<path class="st0" d="M43.5,63.6l-2.6,0.1c-0.3,0-0.5,0.3-0.5,0.5l0.1,3.2l3.2-0.1c0.3,0,0.5-0.3,0.5-0.5L44,64.2
			C44,63.9,43.7,63.6,43.5,63.6z"/>
		<path class="st0" d="M42.2,59.8l-0.1-2.4c0-0.3-0.2-0.5-0.5-0.5l-2.4,0.1c-0.3,0-0.5,0.2-0.5,0.5l0.1,2.9l2.9-0.1
			C42,60.3,42.2,60,42.2,59.8z"/>
		<path class="st0" d="M46.2,52l-2.4,0.1c-0.3,0-0.5,0.2-0.5,0.5l0.1,2.9l2.9-0.1c0.3,0,0.5-0.2,0.5-0.5l-0.1-2.4
			C46.7,52.2,46.5,52,46.2,52z"/>
		<path class="st0" d="M62.3,37.8h-6.4c-0.8,0-1.3,0.6-1.3,1.3v6.4c0,0.8,0.6,1.2,1.2,1.2h7.8V39C63.5,38.2,62.9,37.8,62.3,37.8z"/>
		<path class="st0" d="M89.6,65h-3.2c-2.6,0-4.4-2-4.4-4.4v-4.3c0-0.1,0.1-0.2,0.2-0.2h7.6c0.3-0.1,0.9-0.8,0.9-1.4v-6.4
			c0-0.8-0.6-1.2-1.2-1.2H82c-0.1,0-0.2-0.1-0.2-0.2v-7.6c0-0.8-0.6-1.2-1.2-1.2h-6.4c-0.8,0-1.2,0.6-1.2,1.2v7.6
			c0,0.1-0.1,0.2-0.2,0.2h-8.8v9h8.8c0.1,0,0.2,0.1,0.2,0.2v4.2c0,7.6,6.1,13.6,13.6,13.6h3.2c0.8,0,1.2-0.6,1.2-1.2v-6.4
			C90.9,65.5,90.3,65,89.6,65z"/>
		<path class="st0" d="M54.5,57.1v6.4c0,0.7,0.6,1.3,1.3,1.3h6.4c0.8,0,1.2-0.6,1.2-1.2v-7.8h-7.8C54.9,55.9,54.5,56.5,54.5,57.1z"
			/>
	</g>
	<path class="st1" d="M70.6,76.5l-0.3-5.1h-6.8l0.4,5.6c0,0.1,0,0.3,0,0.4c0.1,0.9-0.1,1.7-0.5,2.4c-0.5,1.2-1.3,2.1-2.2,2.8
		c-0.5,0.3-1,0.6-1.7,0.8c-0.6,0.2-1.2,0.3-1.9,0.3H7.2l3.3-51.6c0.1-0.8,0.3-1.6,0.6-2.3c0.5-1,1.3-2,2.3-2.6c1-0.6,2.1-1,3.3-1
		h5.6v7.9c-1.6,0.5-2.7,1.9-2.7,3.8c0,2.3,1.7,4,4,4c2.3,0,4-1.7,4-4c0-1.9-1-3.3-2.6-3.8v-7.9h20.4v7.9c-1.6,0.5-2.7,1.9-2.7,3.8
		c0,2.3,1.7,4,4,4c2.3,0,4-1.7,4-4c0-1.9-1-3.3-2.6-3.8v-7.9h6.5c0.8,0,1.6,0.2,2.3,0.5c1.1,0.5,2,1.2,2.7,2.1
		c0.3,0.4,0.6,1,0.8,1.5h7c-0.2-1.2-0.6-2.4-1.1-3.5c-1-2.2-2.7-4.1-4.8-5.4c-2-1.3-4.5-2.1-7.1-2.1h-6.4v-6.5
		c0-3.6-1.4-6.8-3.7-9.2C42.1,1.4,38.9,0,35.3,0s-6.8,1.4-9.2,3.7c-2.3,2.3-3.7,5.6-3.7,9.2v6.5h-5.6c-1.7,0-3.4,0.3-4.9,1
		c-2.2,0.9-4.2,2.4-5.6,4.4c-1.4,2-2.3,4.3-2.5,6.9L0,90.5h57.6c1.8,0,3.5-0.4,5.1-1c2.4-1,4.4-2.6,5.8-4.8c0.7-1,1.3-2.2,1.7-3.5
		c0.2-0.7,0.4-1.4,0.5-2.2c0.1-0.7,0-1.5-0.1-2.2C70.6,76.7,70.6,76.6,70.6,76.5z M25.1,12.9c0-2.8,1.2-5.4,3-7.3
		c1.8-1.8,4.3-3,7.2-3c2.8,0,5.4,1.2,7.3,3c1.8,1.8,3,4.4,3,7.3v6.5H25.1V12.9z"/>
</g>
</svg>
