<svg xmlns="http://www.w3.org/2000/svg" viewBox="0 0 58.38 58.38"><defs><style>.cls-1{fill:#fff;}</style></defs><title>ICON-YOUTUBE</title><g id="Capa_2" data-name="Capa 2"><g id="Capa_1-2" data-name="Capa 1"><path class="cls-1" d="M20.85,2.73h3a1.32,1.32,0,0,0,1.34-1.34A1.29,1.29,0,0,0,23.81,0h-3a1.31,1.31,0,0,0-1.33,1.34A1.41,1.41,0,0,0,20.85,2.73Z"/><path class="cls-1" d="M28.35,2.73H34.5a1.32,1.32,0,0,0,1.34-1.34A1.31,1.31,0,0,0,34.5.06H28.35A1.31,1.31,0,0,0,27,1.39,1.31,1.31,0,0,0,28.35,2.73Z"/><path class="cls-1" d="M55.65,2.73A9.27,9.27,0,0,0,49.14,0H39.56a1.32,1.32,0,0,0-1.34,1.34,1.31,1.31,0,0,0,1.34,1.33h9.52a6.56,6.56,0,0,1,6.51,6.51V55.59H9.24a6.25,6.25,0,0,1-4.59-1.92,6.51,6.51,0,0,1-1.92-4.59V9.24A6.25,6.25,0,0,1,4.65,4.65,6.49,6.49,0,0,1,9.24,2.73h8.19a1.31,1.31,0,0,0,1.33-1.34A1.33,1.33,0,0,0,17.43,0H9.24A9.06,9.06,0,0,0,2.73,2.73,9.06,9.06,0,0,0,0,9.24v39.9a9.06,9.06,0,0,0,2.73,6.51,9.25,9.25,0,0,0,6.51,2.73H58.38V9.24A9.06,9.06,0,0,0,55.65,2.73Z"/><path class="cls-1" d="M52.74,7a1.45,1.45,0,1,0-1.45,1.45A1.44,1.44,0,0,0,52.74,7Z"/><path class="cls-1" d="M5.46,51.52a1.45,1.45,0,1,0,1.45-1.45A1.52,1.52,0,0,0,5.46,51.52Z"/><path class="cls-1" d="M45.07,7H13.3A6.25,6.25,0,0,0,7,13.3V45.07a6.25,6.25,0,0,0,6.27,6.28H51.35v-38A6.29,6.29,0,0,0,45.07,7Zm-6,23.12L24.28,41.24a1.21,1.21,0,0,1-1.92-1V18.06a1.22,1.22,0,0,1,1.92-1L39.09,28.17A1.26,1.26,0,0,1,39.09,30.15Z"/></g></g></svg>