<?xml version="1.0" encoding="utf-8"?>
<!-- Generator: Adobe Illustrator 24.0.2, SVG Export Plug-In . SVG Version: 6.00 Build 0)  -->
<svg version="1.1" id="Capa_1" xmlns="http://www.w3.org/2000/svg" xmlns:xlink="http://www.w3.org/1999/xlink" x="0px" y="0px"
	 viewBox="0 0 87.4 90.5" style="enable-background:new 0 0 87.4 90.5;" xml:space="preserve">
<style type="text/css">
	.st0{fill:#22284D;}
</style>
<g>
	<g>
		<g>
			<path class="st0" d="M20.3,25.8v12c0,1.3,1.1,2.4,2.4,2.4h14.4V25.8c0-1.3-1.1-2.4-2.4-2.4h-12C21.4,23.4,20.3,24.5,20.3,25.8z"
				/>
			<path class="st0" d="M87.4,54.6v-12c0-1.3-1.1-2.4-2.4-2.4H71.1c-0.3,0-0.5-0.2-0.5-0.5V25.8c0-1.3-1.1-2.4-2.4-2.4h-12
				c-1.3,0-2.4,1.1-2.4,2.4v13.9c0,0.3-0.2,0.5-0.5,0.5H37.1V57h16.3c0.3,0,0.5,0.2,0.5,0.5v7.9c0,13.9,11.3,25.2,25.2,25.2h6
				c1.3,0,2.4-1.1,2.4-2.4v-12c0-1.3-1.1-2.4-2.4-2.4h-6c-4.6,0-8.4-3.7-8.4-8.4v-7.9c0-0.3,0.2-0.5,0.5-0.5H85
				C86.4,56.9,87.4,55.9,87.4,54.6z"/>
			<path class="st0" d="M22.7,73.7h12c1.3,0,2.4-1.1,2.4-2.4V56.9H22.7c-1.3,0-2.4,1.1-2.4,2.4v12C20.3,72.6,21.4,73.7,22.7,73.7z"
				/>
		</g>
	</g>
	<path class="st0" d="M84,5.9c0-0.7-0.3-1.3-0.7-1.8c-0.5-0.5-1.1-0.7-1.8-0.7H67.7c-1.9,0-3.4-1.5-3.4-3.4l0,0h17.2
		c1.6,0,3.1,0.7,4.1,1.7c1.1,1.1,1.7,2.5,1.7,4.1v17.5l0,0c-1.9,0-3.4-1.5-3.4-3.4L84,5.9z"/>
	<path class="st0" d="M6,3.5c-0.7,0-1.3,0.3-1.8,0.7C3.8,4.7,3.5,5.3,3.5,6v13.8c0,1.9-1.5,3.4-3.4,3.4l0,0L0.2,6
		c0-1.6,0.7-3.1,1.7-4.1c1-1.1,2.5-1.7,4.1-1.7h17.5l0,0c0,1.9-1.5,3.4-3.4,3.4L6,3.5z"/>
	<path class="st0" d="M3.4,84.6c0,0.7,0.3,1.3,0.7,1.8c0.5,0.5,1.1,0.7,1.8,0.7h13.8c1.9,0,3.4,1.5,3.4,3.4l0,0H5.9
		c-1.6,0-3.1-0.7-4.1-1.7C0.7,87.7,0,86.2,0,84.6V67.1l0,0c1.9,0,3.4,1.5,3.4,3.4V84.6z"/>
	<path class="st0" d="M13.6,16.7v30.2h30.2V46V16.7H13.6z M15.3,18.3h26.9v26.9H15.3V18.3z"/>
</g>
</svg>
