<svg xmlns="http://www.w3.org/2000/svg" viewBox="0 0 58.38 58.38"><defs><style>.cls-1{fill:#fff;}</style></defs><title>ICON-FACE </title><g id="Capa_2" data-name="Capa 2"><g id="Capa_1-2" data-name="Capa 1"><path class="cls-1" d="M23.81,0h-3a1.31,1.31,0,0,0-1.33,1.34,1.31,1.31,0,0,0,1.33,1.33h3a1.31,1.31,0,0,0,1.34-1.33A1.28,1.28,0,0,0,23.81,0"/><path class="cls-1" d="M34.5,0H28.35A1.32,1.32,0,0,0,27,1.34a1.31,1.31,0,0,0,1.34,1.33H34.5a1.31,1.31,0,0,0,1.34-1.33A1.32,1.32,0,0,0,34.5,0"/><path class="cls-1" d="M17.43,0H9.24A9.06,9.06,0,0,0,2.73,2.73,9.06,9.06,0,0,0,0,9.24v39.9a9.06,9.06,0,0,0,2.73,6.51,9.25,9.25,0,0,0,6.51,2.73H58.38V9.24a9.06,9.06,0,0,0-2.73-6.51A9.27,9.27,0,0,0,49.14,0H39.56a1.32,1.32,0,0,0-1.34,1.34,1.31,1.31,0,0,0,1.34,1.33h9.52a6.56,6.56,0,0,1,6.51,6.51V55.59H9.24a6.25,6.25,0,0,1-4.59-1.92,6.51,6.51,0,0,1-1.92-4.59V9.24A6.25,6.25,0,0,1,4.65,4.65,6.49,6.49,0,0,1,9.24,2.73h8.19a1.31,1.31,0,0,0,1.33-1.34A1.33,1.33,0,0,0,17.43,0Z"/><circle class="cls-1" cx="51.35" cy="7.03" r="1.45"/><circle class="cls-1" cx="6.51" cy="51.35" r="1.45"/><path class="cls-1" d="M45.07,7H13.3A6.25,6.25,0,0,0,7,13.3V45.07a6.25,6.25,0,0,0,6.27,6.28H51.35v-38A6.29,6.29,0,0,0,45.07,7ZM35.78,29.16H31.19V44.55h-6.1V29.16H22V23h3.08V20.21c0-2.49,1.22-6.44,6.51-6.44h4.76v5.28H32.88a1.28,1.28,0,0,0-1.34,1.45v2.44h4.88Z"/></g></g></svg>