<?xml version="1.0" encoding="utf-8"?>
<!-- Generator: Adobe Illustrator 24.0.2, SVG Export Plug-In . SVG Version: 6.00 Build 0)  -->
<svg version="1.1" id="Capa_1" xmlns="http://www.w3.org/2000/svg" xmlns:xlink="http://www.w3.org/1999/xlink" x="0px" y="0px"
	 viewBox="0 0 88.6 89" style="enable-background:new 0 0 88.6 89;" xml:space="preserve">
<style type="text/css">
	.st0{fill:#22284D;}
</style>
<g>
	<path class="st0" d="M13.5,41.1L13.5,41.1L13.5,41.1z"/>
	<path class="st0" d="M39.9,77.1L39.9,77.1L39.9,77.1z"/>
	<path class="st0" d="M13.5,77.1L13.5,77.1L13.5,77.1z"/>
	<path class="st0" d="M41.2,71.4V49.3H37H19.2l0,0l0,0c-1.9,0-3.8,0.8-5,2.1l0,0l0,0c-1.3,1.3-2.1,3.1-2.1,5l0,0l0,0v15l0,0
		c0,1.9,0.8,3.8,2.1,5l0,0l0,0c1.3,1.3,3.1,2.1,5,2.1l0,0l0,0h15l0,0c1.9,0,3.8-0.8,5-2.1l0,0C40.4,75.1,41.2,73.3,41.2,71.4
		L41.2,71.4L41.2,71.4z M32.8,69.5V70H20.5V57.7h12.3V69.5z"/>
	<path class="st0" d="M13.5,50.6L13.5,50.6L13.5,50.6z"/>
	<polygon class="st0" points="74.9,41.1 74.8,41.1 74.8,41.1 	"/>
	<path class="st0" d="M76.2,35.4v-15l0,0c0-1.9-0.8-3.8-2.1-5l0,0l0,0c-1.3-1.3-3.1-2.1-5-2.1l0,0l0,0h-15l0,0c-1.9,0-3.8,0.8-5,2.1
		l0,0l0,0c-1.3,1.3-2.1,3.1-2.1,5l0,0l0,0v22.1h4.3h17.9l0,0c1.9,0,3.8-0.8,5-2.1l0,0C75.4,39.2,76.2,37.4,76.2,35.4L76.2,35.4
		L76.2,35.4z M67.8,34.1H55.5V22.3v-0.5h12.3V34.1L67.8,34.1z"/>
	<path class="st0" d="M23.5,0H8.3C3.9,0,0.4,3.5,0.4,7.8v16c0,0.9,0.8,1.7,1.7,1.7c0.5,0,0.9-0.2,1.2-0.5s0.5-0.8,0.5-1.2v-16l0,0
		c0-2.4,2-4.4,4.4-4.4h15.3c0.5,0,0.9-0.2,1.2-0.5c0.3-0.3,0.5-0.8,0.5-1.2C25.2,0.8,24.4,0,23.5,0z"/>
	<path class="st0" d="M64.4,0h15.2c4.3,0,7.8,3.5,7.8,7.8v16c0,0.9-0.8,1.7-1.7,1.7c-0.5,0-0.9-0.2-1.2-0.5
		c-0.3-0.3-0.5-0.8-0.5-1.2v-16l0,0c0-2.4-2-4.4-4.4-4.4H64.4c-0.5,0-0.9-0.2-1.2-0.5s-0.5-0.8-0.5-1.2C62.7,0.8,63.4,0,64.4,0z"/>
	<path class="st0" d="M56.2,69.6h13.9V49.1h-20c-0.9,0-1.6,0.7-1.6,1.6c0,0.9,0.7,1.6,1.6,1.6H67v14.1H56.2c-0.9,0-1.6,0.7-1.6,1.6
		C54.6,68.9,55.3,69.6,56.2,69.6z"/>
	<path class="st0" d="M24.7,86.1c-0.3-0.3-0.8-0.5-1.2-0.5H8.3c-2.4,0-4.4-2-4.4-4.4v-16c0-0.5-0.2-0.9-0.5-1.2s-0.8-0.5-1.2-0.5
		c-0.9,0-1.7,0.8-1.7,1.7v16C0.5,85.5,4,89,8.3,89h15.1c0.5,0,0.9-0.2,1.2-0.5c0.3-0.3,0.5-0.8,0.5-1.2C25.2,86.8,25,86.4,24.7,86.1
		z"/>
	<path class="st0" d="M63.3,88.4c0.3,0.3,0.8,0.5,1.2,0.5h15.2c4.3,0,7.8-3.5,7.8-7.8v-16c0-0.5-0.2-0.9-0.5-1.2s-0.8-0.5-1.2-0.5
		c-0.9,0-1.7,0.8-1.7,1.7v16c0,2.4-2,4.4-4.4,4.4l0,0H64.5c-0.5,0-0.9,0.2-1.2,0.5s-0.5,0.8-0.5,1.2C62.8,87.8,63,88.1,63.3,88.4z"
		/>
	<path class="st0" d="M62.3,57.8H48.4v11.8c0,0.9,0.7,1.6,1.6,1.6s1.6-0.7,1.6-1.6V61h10.8c0.9,0,1.6-0.7,1.6-1.6
		C63.9,58.5,63.2,57.8,62.3,57.8z"/>
	<path class="st0" d="M76.2,50.8c0-0.9-0.7-1.6-1.6-1.6S73,49.9,73,50.8v4.7c0,0.9,0.7,1.6,1.6,1.6s1.6-0.7,1.6-1.6V50.8z"/>
	<path class="st0" d="M72.8,78.5c1,0,1.9-0.5,2.5-1.2l0,0c0.6-0.7,0.9-1.6,0.9-2.6V64.5c0-0.9-0.7-1.6-1.6-1.6S73,63.6,73,64.5V65
		l0,0v9.8l0,0c0,0.1,0,0.3-0.1,0.3l-0.1,0.3h-7.4c-0.9,0-1.6,0.7-1.6,1.6s0.7,1.6,1.6,1.6l0,0h7.4V78.5z"/>
	<path class="st0" d="M56.6,75.4H50c-0.9,0-1.6,0.7-1.6,1.6s0.7,1.6,1.6,1.6h6.6c0.9,0,1.6-0.7,1.6-1.6S57.5,75.4,56.6,75.4z"/>
	<path class="st0" d="M86.8,44.7h-85c-1,0-1.8,0.6-1.8,1.3s0.8,1.3,1.8,1.3h84.9c1,0,1.8-0.6,1.8-1.3C88.6,45.3,87.8,44.7,86.8,44.7
		z"/>
	<path class="st0" d="M39.2,15.4L39.2,15.4c-1.3-1.3-3.1-2.1-5-2.1l0,0l0,0h-15l0,0c-1.9,0-3.8,0.8-5,2.1l0,0l0,0
		c-1.3,1.3-2.1,3.1-2.1,5l0,0l0,0v15l0,0c0,1.9,0.8,3.8,2.1,5l0,0c1.3,1.3,3.1,2.1,5,2.1l0,0h22.1v-4.3V20.4l0,0
		C41.2,18.5,40.4,16.6,39.2,15.4z M32.8,34.1H20.5V22.3v-0.5h12.3V34.1z"/>
</g>
</svg>
