<svg xmlns="http://www.w3.org/2000/svg" viewBox="0 0 184.83 184.83"><defs><style>.cls-1{fill:#01dcff;}.cls-2{fill:#182151;}</style></defs><title>ICON-INVESTOR-BORD</title><g id="Capa_2" data-name="Capa 2"><g id="Capa_1-2" data-name="Capa 1"><rect class="cls-1" width="184.83" height="184.83" rx="55.11"/><path class="cls-2" d="M47.91,51.07V67a3.13,3.13,0,0,0,3.16,3.16H70.2V51.07A3.13,3.13,0,0,0,67,47.91h-16A3.17,3.17,0,0,0,47.91,51.07Z"/><path class="cls-2" d="M136.85,89.26V73.35a3.12,3.12,0,0,0-3.15-3.15H115.2a.64.64,0,0,1-.63-.63V51.07a3.13,3.13,0,0,0-3.16-3.16H95.51a3.13,3.13,0,0,0-3.16,3.16v18.5a.63.63,0,0,1-.63.63H70.13V92.41H91.78a.64.64,0,0,1,.63.64v10.47a33.4,33.4,0,0,0,33.4,33.39h7.95a3.11,3.11,0,0,0,3.15-3.15v-16a3.12,3.12,0,0,0-3.15-3.16h-8a11.12,11.12,0,0,1-11.11-11.11V93.05a.64.64,0,0,1,.63-.64h18.5A3.11,3.11,0,0,0,136.85,89.26Z"/><path class="cls-2" d="M51.07,114.7H67a3.13,3.13,0,0,0,3.16-3.16V92.41H51.07a3.13,3.13,0,0,0-3.16,3.16v16A3.17,3.17,0,0,0,51.07,114.7Z"/></g></g></svg>