<svg xmlns="http://www.w3.org/2000/svg" viewBox="0 0 40.2 40.2"><defs><style>.cls-1{fill:#fff;}.cls-2{fill:#22274e;}</style></defs><title>ICON-PERFIL</title><g id="Capa_2" data-name="Capa 2"><g id="Capa_1-2" data-name="Capa 1"><circle class="cls-1" cx="20.1" cy="20.1" r="20.1"/><path class="cls-2" d="M12.8,17.06a7.75,7.75,0,1,1,2.27,5.47A7.68,7.68,0,0,1,12.8,17.06Zm22,16.77A15.91,15.91,0,0,0,26.48,26a10.73,10.73,0,1,0-11.94,0,15.9,15.9,0,0,0-8.61,8.41l0,0,2.36,2h0a12.2,12.2,0,0,1,3.06-4.83,12.84,12.84,0,0,1,18.18,0A13.15,13.15,0,0,1,32.45,36Z"/></g></g></svg>