<?xml version="1.0" encoding="utf-8"?>
<!-- Generator: Adobe Illustrator 24.0.2, SVG Export Plug-In . SVG Version: 6.00 Build 0)  -->
<svg version="1.1" id="Capa_1" xmlns="http://www.w3.org/2000/svg" xmlns:xlink="http://www.w3.org/1999/xlink" x="0px" y="0px"
	 viewBox="0 0 142.3 58.6" style="enable-background:new 0 0 142.3 58.6;" xml:space="preserve">
<style type="text/css">
	.st0{fill:#22284D;}
</style>
<g>
	<path class="st0" d="M124.6,24.9c-3,0-5.1,3.2-5.1,6.1c0,2.2,0.9,3,3,3c2.9,0,5-3.2,5-6.1C127.4,25.3,126.1,24.9,124.6,24.9z"/>
	<path class="st0" d="M104.8,32.6c0-11.8,9.1-20.5,21.2-20.5c10,0,16.2,5.6,16.2,14.5c0,11.8-9,20.5-21.1,20.5
		C111.1,47.1,104.8,41.4,104.8,32.6z M131.4,28c0-4.3-2.5-6.9-6.8-6.9c-5.3,0-9.1,5-9.1,10c0,4.3,2.6,6.9,6.9,6.9
		C127.7,38.1,131.4,33.1,131.4,28z"/>
	<path class="st0" d="M84.5,19.8l-1.6,9h10.6c-1.7,5.5-7.1,9.3-13.6,9.3c-6.8,0-10.9-4.3-10.9-11C69,17.7,75.8,9,85.3,9
		c3.8,0,6.9,0.9,9.2,2.8l7.9-6.3C98.7,2.1,93.3,0,86.1,0c-5.7,0-10.9,1.5-15.2,4l0,0H58c-1.5,0-2.9,1.2-3.3,2.7l-0.5,2.5
		c-0.2,1.5,0.7,2.7,2.2,2.7h6.2c-3,4.4-4.7,9.9-4.7,15.9c0,11.7,8.1,19.3,21.1,19.3c13.8,0,24.6-9.2,26.5-22.8
		c0.3-1.7,0.4-3,0.6-4.5H84.5z"/>
	<path class="st0" d="M45.6,11.9h-5.9c-1.5,0-2.4-1.2-2.2-2.7L38,6.7C38.4,5.2,39.8,4,41.3,4h5.9c1.5,0,2.4,1.2,2.2,2.7l-0.5,2.5
		C48.6,10.7,47.1,11.9,45.6,11.9z"/>
	<g>
		<path class="st0" d="M30.3,34c-1.3,0.5-1.7,2.1-1.2,3.4c0.4,1,1.3,1.4,2.4,1c1.3-0.5,1.7-2.1,1.2-3.3C32.2,34,31.4,33.6,30.3,34z"
			/>
		<path class="st0" d="M17.2,39.3c-1.3,0.5-1.7,2.1-1.2,3.4c0.4,1,1.3,1.4,2.4,1c1.3-0.5,1.7-2.1,1.2-3.3
			C19.1,39.3,18.2,38.9,17.2,39.3z"/>
		<path class="st0" d="M72.8,23.9c-0.5-0.5-1.4-0.5-1.9,0c-1.1,1-2.3,1.9-3.7,2.6c-2.1,1-4.5,1.7-6.9,2.1c-1.8,0.3-3.6,0.5-5.3,0.5
			c0-0.2,0-0.5,0.1-0.7c0.1-2.1-1-3.7-2.6-4.9c-2.1-1.5-4.3-2.8-6.4-4.3c-1.4-0.9-2.8-1.8-4.2-2.8c-1.2-0.8-2.4-0.9-3.7-0.4
			c-11.8,4.5-23.6,9.1-35.5,13.6C1,30.2,0,31.3,0,33c0,0.5,0.1,1.1,0.3,1.6C3,41.7,5.7,48.8,8.4,56c0.9,2.3,2.8,3.2,5,2.3
			c1-0.4,2-0.7,3-1.1l0,0l0,0c2-0.8,4.1-1.6,6.1-2.3l4.1-1.6c4-1.5,8-3,11.9-4.5l2.4-0.9l3.7-1.4c0.6-0.2,2.1-0.8,3.2-1.3
			c0.9-0.4,1.7-1.1,2.1-2l2.8-6.2l0,0c0.5-1.6,1-3.1,1.4-4.7c0-0.2,0.1-0.4,0.1-0.5c2.8-0.1,5.9-0.3,8.9-1.1c1.7-0.4,3.4-1,5-1.8
			s3.1-1.8,4.4-3.1C73.3,25.3,73.3,24.4,72.8,23.9z M18.9,46.1c-2.4,1-4.6,0.2-5.4-2c-1.2-2.9,0.2-5.9,3.2-7.1
			c2.5-1,4.5-0.2,5.4,1.9C23.2,41.8,21.9,44.9,18.9,46.1z M22.1,49.8l2-20.8l2.5-1l-1.9,20.8L22.1,49.8z M32,40.7
			c-2.4,1-4.6,0.2-5.4-2c-1.2-2.9,0.2-5.9,3.2-7.1c2.5-1,4.5-0.2,5.4,1.9C36.3,36.5,35,39.5,32,40.7z M45.1,31.2L45.1,31.2
			c0,0,1.4,0.2,3.6,0.4c-0.7,1.2-1.9,2-3.4,2c-2.1,0-3.8-1.7-3.8-3.8s1.7-3.8,3.8-3.8c1.8,0,3.4,1.3,3.7,3c-0.5,0-0.9-0.1-1.3-0.1
			c-0.7-0.1-1.3-0.1-1.6-0.2c-0.2,0-0.3,0-0.4-0.1h-0.1l0,0l0,0l0,0c-0.7-0.1-1.5,0.4-1.6,1.1C43.8,30.4,44.3,31.1,45.1,31.2z"/>
	</g>
	<path class="st0" d="M51.5,25h-5.9c-1.5,0-2.4-1.2-2.2-2.7l0.5-2.5c0.4-1.5,1.8-2.7,3.3-2.7h5.9c1.5,0,2.4,1.2,2.2,2.7l-0.5,2.5
		C54.5,23.8,53,25,51.5,25z"/>
</g>
</svg>
