<?xml version="1.0" encoding="utf-8"?>
<!-- Generator: Adobe Illustrator 24.0.2, SVG Export Plug-In . SVG Version: 6.00 Build 0)  -->
<svg version="1.1" id="Capa_1" xmlns="http://www.w3.org/2000/svg" xmlns:xlink="http://www.w3.org/1999/xlink" x="0px" y="0px"
	 viewBox="0 0 113.2 90.5" style="enable-background:new 0 0 113.2 90.5;" xml:space="preserve">
<style type="text/css">
	.st0{fill:#DBFE01;}
	.st1{fill:#FFFFFF;}
</style>
<g>
	<path class="st0" d="M113.1,45.7c0.4,3.5-0.1,7.1-1.5,10.3c-0.3,0.7-0.6,1.4-1,2.1c-6.2,11.6-15.1,21.3-24,31
		c-1.5,1.6-3.4,1.7-4.4,0.2c-5.4-7.7-10.4-15.6-14.3-24.2c-1.5-3.4-2.8-6.9-3.1-10.7c-0.5-7.8,2.8-14.6,9-20.1
		c7.3-6.5,15.6-8.6,24.3-6.3c8.6,2.3,13.5,8.2,15,16.9C113.1,45.2,113.1,45.5,113.1,45.7z M102.7,50.4c0.9-7.5-4.6-13.7-12.2-13.6
		c-7.5,0-14.4,6.2-15.3,13.6c-0.9,7.2,4.2,13.7,12.3,13.6C95.1,64,101.9,57.8,102.7,50.4z"/>
	<path class="st1" d="M62.7,50.1c-1.8,12.9-12,21.6-25.1,21.6c-12.3,0-19.9-7.2-19.9-18.3c0-15.1,11.2-26.2,26.6-26.2
		c6.8,0,11.9,2,15.3,5.2l-7.4,6c-2.1-1.8-5.1-2.6-8.7-2.6c-9,0-15.3,8.3-15.3,17.1c0,6.4,3.9,10.4,10.3,10.4
		c6.2,0,11.3-3.6,12.9-8.8h-10l1.5-8.5h20.4C63.1,47.2,63,48.4,62.7,50.1z"/>
	<path class="st1" d="M30.6,23.6h21.6L56.1,5c0.5-2.5-1.1-5-3.3-5H34.9c-2,0-3.7,1.6-4.1,3.8L27.6,19C27.1,21.3,28.6,23.6,30.6,23.6
		z"/>
	<path class="st1" d="M70,25.3c-1.5-0.7-5-2.4-8.4-3.7l0,0c-0.2-0.1-0.4-0.2-0.6-0.3c-0.2-0.1-0.3-0.2-0.4-0.3
		c-0.6-0.4-0.7-1.3-0.1-1.8c0.9-0.8,2.6-2,5.2-3.5c4.4-2.5,5.6-5.3,2.8-4.9l0,0c0,0-17.7,2.3-16.2,9.5c0,0-1.6,3.8,7.2,6.7
		c8.8,3,8.5,3.4-6.2,13.4S84.6,31.9,70,25.3z"/>
	<path class="st1" d="M74.2,13.6c-1.3,0.1-2.4,1.1-2.5,2.4c-0.1,1.2,0.3,2.9,2.4,5c4.1,4.1,7.7,4.6,7.8,3.7s-6.8-3.7-6.1-7.1
		C76.4,14.2,75.3,13.6,74.2,13.6z"/>
	<circle class="st1" cx="74.7" cy="5" r="5"/>
	<path class="st1" d="M10.1,49.7H1.4c-1,0-1.6-0.8-1.4-1.7l0.3-1.6c0.2-1,1.1-1.7,2.1-1.7h8.7c1,0,1.6,0.8,1.4,1.7L12.2,48
		C12,48.9,11,49.7,10.1,49.7z"/>
	<path class="st1" d="M24,42.4h-8.3c-1,0-1.6-0.8-1.4-1.7l0.3-1.6c0.2-1,1.1-1.7,2.1-1.7H25c1,0,1.6,0.8,1.4,1.7l-0.3,1.6
		C25.9,41.7,25,42.4,24,42.4z"/>
	<path class="st1" d="M10.8,42.4H7c-1,0-1.6-0.8-1.4-1.7l0.3-1.6c0.2-1,1.1-1.7,2.1-1.7h3.8c1,0,1.6,0.8,1.4,1.7l-0.3,1.6
		C12.7,41.7,11.7,42.4,10.8,42.4z"/>
	<path class="st1" d="M14.2,57H5.6c-1,0-1.6-0.8-1.4-1.7l0.3-1.6c0.2-1,1.1-1.7,2.1-1.7h8.7c1,0,1.6,0.8,1.4,1.7l-0.3,1.6
		C16.1,56.2,15.2,57,14.2,57z"/>
	<path class="st1" d="M108.8,61.8"/>
</g>
</svg>
