<svg xmlns="http://www.w3.org/2000/svg" viewBox="0 0 82.83 82.83"><defs><style>.cls-1{fill:#22284d;}</style></defs><title>ICON-SIGUIENTE</title><g id="Capa_2" data-name="Capa 2"><g id="Capa_1-2" data-name="Capa 1"><path class="cls-1" d="M81.14,41.42H79.45a38,38,0,1,1-11.14-26.9,37.93,37.93,0,0,1,11.14,26.9h3.38A41.42,41.42,0,1,0,41.42,82.83,41.41,41.41,0,0,0,82.83,41.42Z"/><path class="cls-1" d="M36.46,27.13,48.81,39.48,35.17,53.12a1.7,1.7,0,0,0,2.4,2.4L52.4,40.68a1.68,1.68,0,0,0,.5-1.2,1.66,1.66,0,0,0-.5-1.19L38.86,24.74a1.69,1.69,0,1,0-2.4,2.39Z"/></g></g></svg>