<svg xmlns="http://www.w3.org/2000/svg" viewBox="0 0 167.52 125.37"><defs><style>.cls-1{fill:#22284d;}</style></defs><title>ICON-PUESTOS SMART</title><g id="Capa_2" data-name="Capa 2"><g id="Capa_1-2" data-name="Capa 1"><path class="cls-1" d="M30.18,121.71a2.1,2.1,0,0,0-1.46-.61H10.11a5.38,5.38,0,0,1-5.36-5.37V96.13a2,2,0,0,0-.61-1.46,2.1,2.1,0,0,0-1.46-.61A2.06,2.06,0,0,0,.62,96.13v19.6a9.58,9.58,0,0,0,9.57,9.58H28.72a2,2,0,0,0,1.46-.61,2.12,2.12,0,0,0,.61-1.46A2.14,2.14,0,0,0,30.18,121.71Z"/><path class="cls-1" d="M49.1,103v-25h-25a8,8,0,0,0-5.65,2.34h0A8.07,8.07,0,0,0,16.17,86h0v17h0a8.07,8.07,0,0,0,2.33,5.65h0A8.07,8.07,0,0,0,24.15,111H41a8.07,8.07,0,0,0,5.65-2.33h0A7.81,7.81,0,0,0,49.1,103Zm-9.54-2v.56H25.71V87.59H39.56Z"/><polygon class="cls-1" points="91.61 66.72 91.53 66.72 91.53 66.72 91.61 66.72"/><path class="cls-1" d="M83.55,45.13,86.81,35a.45.45,0,0,0-.41-.59l-2.78-.08H66.88A7.9,7.9,0,0,0,59,42.18V66.82h24.7a7.89,7.89,0,0,0,2.07-.28l1.71-19.22a.46.46,0,0,0-.55-.48l-1.52.33A1.59,1.59,0,0,1,83.55,45.13ZM82,57.4H68.34V43.72H82Z"/><path class="cls-1" d="M28.72,16.4H10.11A9.58,9.58,0,0,0,.54,26V45.58a2.06,2.06,0,0,0,2.07,2.07A1.93,1.93,0,0,0,4.06,47a2.06,2.06,0,0,0,.62-1.45V26h0A5.37,5.37,0,0,1,10,20.61H28.72A2,2,0,0,0,30.18,20a2.11,2.11,0,0,0-1.46-3.6Z"/><path class="cls-1" d="M98,16.74l-7.16,3.87H80.24A2,2,0,0,1,78.77,20a2.17,2.17,0,0,1-.61-1.46,2.12,2.12,0,0,1,2.08-2.14h18.6Z"/><path class="cls-1" d="M84.55,78.2v8.43l-.66,9.87-1.63,4.41H69.13a1.7,1.7,0,0,1-1.74-1.81,1.73,1.73,0,0,1,1.74-1.74h12V81.67H62.33a1.74,1.74,0,1,1,0-3.47Z"/><path class="cls-1" d="M75.94,87.85H60.52V100.9a1.74,1.74,0,1,0,3.47,0V91.39H75.94a1.77,1.77,0,0,0,0-3.54Z"/><path class="cls-1" d="M69.55,107.29H62.26a1.74,1.74,0,1,0,0,3.47h7.29a1.74,1.74,0,0,0,0-3.47Z"/><path class="cls-1" d="M86.78,71.08l-.21,3.07H2.23C1,74.15,0,73.45,0,72.61s1-1.53,2.23-1.53Z"/><path class="cls-1" d="M46.76,36.42h0a8.07,8.07,0,0,0-5.65-2.33h-17a8.07,8.07,0,0,0-5.65,2.33h0a8.12,8.12,0,0,0-2.33,5.66h0V59h0a8.07,8.07,0,0,0,2.33,5.65h0A8.07,8.07,0,0,0,24.15,67h25V42.08h0A8.08,8.08,0,0,0,46.76,36.42Zm-7.2,21.06H25.71V43.63H39.56Z"/><path class="cls-1" d="M167.42,124.18a1.82,1.82,0,0,0,.07-.25.43.43,0,0,1,0-.11,2.44,2.44,0,0,0,0-.27v-.1a2.29,2.29,0,0,0-.07-.36L157.21,90.92,141.75,1.39s0-.1,0-.14l0-.12a1.69,1.69,0,0,0-.19-.38l0-.05a1.42,1.42,0,0,0-.26-.29s0,0,0,0l0,0a1.51,1.51,0,0,0-.37-.22l-.08,0a1.37,1.37,0,0,0-.35-.08l-.1,0a2.61,2.61,0,0,0-.4,0h0l-.08,0a1.48,1.48,0,0,0-.35.13l-.06,0L111.46,15.26l-7.16,3.87L98,22.56a1.68,1.68,0,0,0-.8.94l-2.92,8.69L92,38.75a1.68,1.68,0,0,0,.42,1.73,1.66,1.66,0,0,0,1.74.38l3.94-1.4L96.22,68,96,71,95.81,74h0L95,85.71l-.71,10.65L92.6,101l-8.19,22.13A1.68,1.68,0,0,0,86,125.37h39.14l40.72-.09h.07a1,1,0,0,0,.25,0l.11,0,.27-.1.08,0a2.73,2.73,0,0,0,.3-.21h0a3.08,3.08,0,0,0,.25-.27v0l0-.06a2,2,0,0,0,.14-.25A.42.42,0,0,1,167.42,124.18Zm-37.77-2.71,12.15-18.12a2.69,2.69,0,0,1,4.28-.25l16.12,18.83-33.14.07A1.65,1.65,0,0,0,129.65,121.47ZM154,91.83l7.76,24.38L145.26,97,141.61,27.2a.58.58,0,0,1,1.16-.13L153.92,91.6ZM97.43,33.26l2.72-8.06,5.75-3.11,7.16-3.88,24.3-13.14L131.9,23.82l-13.13,4.69L114.64,30l-12.75,4.56-2.45.88h0l-3.09,1.11Zm-1.68,68.89,1.8-4.85a1.58,1.58,0,0,0,.1-.48l.73-10.88.78-11.68h0l.21-3.07.21-3,2-30,1.43-.51,12.75-4.57,4.13-1.48,13.94-5a1.67,1.67,0,0,0,1-1.11l.77-2.63a.5.5,0,0,1,1,.17l-4.7,67.82a7.42,7.42,0,0,1-.24,1.41L123.83,122H88.4Z"/></g></g></svg>