<svg xmlns="http://www.w3.org/2000/svg" viewBox="0 0 87.11 93.03"><defs><style>.cls-1{fill:#22284d;}</style></defs><title>ICON-COMERCIOS</title><g id="Capa_2" data-name="Capa 2"><g id="Capa_1-2" data-name="Capa 1"><path class="cls-1" d="M72.64,0H14.45C5.14-.07-1,8.5.13,17.38.21,22.2.07,72.44.13,78.7A14.33,14.33,0,0,0,14.45,93H52.8a2.44,2.44,0,0,0,2.41-2.41V54.52a2.5,2.5,0,0,1,2.5-2.5H69.14a2.52,2.52,0,0,1,2.51,2.5V90.47a2.43,2.43,0,0,0,2.69,2.4A14.29,14.29,0,0,0,87,78.7v-52C87.29,14.84,88.32,1,72.64,0ZM53.47,34.19c-7.94,0-7.86-8.6-7.51-14.4H61.64C62,26,62,34.56,53.47,34.19Zm-41,0c-7.94,0-7.86-8.6-7.51-14.4H20.63C21,26,21,34.56,12.46,34.19Zm2-29.37H72.64A9.57,9.57,0,0,1,82.15,15H5A9.56,9.56,0,0,1,14.45,4.82Zm62,82.52V54.52c.19-9.56-12.77-7.05-18.75-7.32a7.32,7.32,0,0,0-7.32,7.32V88.21C-10.09,89.27,7.71,90.69,5,36.43,10.17,40.69,19.27,39.53,23,34c4.49,6.68,16,6.68,20.51,0,4.48,6.68,16,6.67,20.5,0,3.77,5.57,12.88,6.72,18.1,2.46V78.7A9.41,9.41,0,0,1,76.46,87.34Z"/><path class="cls-1" d="M35.39,47.2h-19A6.31,6.31,0,0,0,10,53.51V72.56a6.31,6.31,0,0,0,6.31,6.31H35.39a6.31,6.31,0,0,0,6.32-6.31V53.51A6.31,6.31,0,0,0,35.39,47.2Zm0,26.86c-26.15-.73-19.81,5.57-20.54-20.55A1.49,1.49,0,0,1,16.34,52H35.39a1.5,1.5,0,0,1,1.5,1.49V72.56A1.51,1.51,0,0,1,35.39,74.06Z"/></g></g></svg>