<svg xmlns="http://www.w3.org/2000/svg" viewBox="0 0 136.39 108.39"><defs><style>.cls-1{fill:#22284d;}</style></defs><title>ICON- TRANSACCIONES</title><g id="Capa_2" data-name="Capa 2"><g id="Capa_1-2" data-name="Capa 1"><path class="cls-1" d="M83.27,18.37h7.09a2,2,0,1,0,0-4H83.27a1.91,1.91,0,0,0-2,2A1.82,1.82,0,0,0,83.27,18.37Z"/><path class="cls-1" d="M53.26,90.25H39.74a2,2,0,0,0,0,4H53.26a1.9,1.9,0,0,0,2-2A2,2,0,0,0,53.26,90.25Z"/><path class="cls-1" d="M135.88,77.06l-33.32-28.2a2,2,0,0,0-2.14-.3,2,2,0,0,0-1.15,1.8V63.21H94.79a29.1,29.1,0,0,0,1.65-9.37A27.86,27.86,0,0,0,43.69,41.29H35.31a2,2,0,0,0-1.49.65,2.06,2.06,0,0,0-.65,1.49V54l-28-23.91,28-23.76V16.38a2,2,0,0,0,.65,1.5,2,2,0,0,0,1.49.65H73.53a1.88,1.88,0,0,0,2-2,1.88,1.88,0,0,0-2-2H37.26V2A2,2,0,0,0,36.11.24a2.25,2.25,0,0,0-2.29.15L.65,28.59A1.9,1.9,0,0,0,0,30.08a2.22,2.22,0,0,0,.65,1.49l33.17,28.2a2,2,0,0,0,2.14.3,2,2,0,0,0,1.15-1.8V45.42h4.78a27.55,27.55,0,0,0-1.34,8.42,27.9,27.9,0,0,0,52.29,13.5h8.23a2,2,0,0,0,1.49-.65,2.1,2.1,0,0,0,.65-1.49V54.79l28,23.76-28,23.75V92.24a2,2,0,0,0-.65-1.49,1.8,1.8,0,0,0-1.49-.65H63.16a2,2,0,1,0,0,3.94H99.27V106.4a2.06,2.06,0,0,0,1.15,1.83,2.1,2.1,0,0,0,2.14-.34L135.69,79.7a1.77,1.77,0,0,0,.65-1.5C136.53,78.05,136.19,77.4,135.88,77.06ZM76.19,64.15c-.14.17-.29.33-.45.49A9.43,9.43,0,0,1,71.37,67l-.79.18v2.94H65.8V67.19A13.89,13.89,0,0,1,63,66.53,13.14,13.14,0,0,1,61.72,66a10.33,10.33,0,0,1-1.88-1.19c-.23-.19-.45-.38-.66-.59L61,60.91a10.29,10.29,0,0,0,2.47,1.58,10.14,10.14,0,0,0,1.73.6,11.7,11.7,0,0,0,2.72.31,8.23,8.23,0,0,0,2.94-.47,3.71,3.71,0,0,0,1.26-.78,2.44,2.44,0,0,0,.35-3,4.83,4.83,0,0,0-2.28-1.64l-.47-.18-.89-.3c-.4-.12-.82-.24-1.25-.35l-.28-.07-1.22-.28c-2.55-.71-4.74-1.62-6-3.22a5.48,5.48,0,0,1-.35-.49,5.85,5.85,0,0,1-.86-3.21,7,7,0,0,1,1.86-4.94,7.55,7.55,0,0,1,2.18-1.6,9.77,9.77,0,0,1,2.89-.88V39h4.78v2.64c.29,0,.57.09.85.15a13.39,13.39,0,0,1,5.23,2.49l-2.14,3.29a11.2,11.2,0,0,0-1.41-1,9.21,9.21,0,0,0-1.52-.73A10,10,0,0,0,70,45.38a9.4,9.4,0,0,0-1.69-.15,7.25,7.25,0,0,0-1.81.21A3.62,3.62,0,0,0,64.14,47a2.3,2.3,0,0,0-.33,1.22c0,1.49,1.12,2.32,2.73,2.93.53.2,1.12.38,1.74.55l.73.16.73.15a19.5,19.5,0,0,1,2.94,1c.23.11.47.21.69.33a10.77,10.77,0,0,1,1.75,1.1l.21.16a6.51,6.51,0,0,1,2.48,5.2A7.2,7.2,0,0,1,76.19,64.15Z"/></g></g></svg>