<?xml version="1.0" encoding="utf-8"?>
<!-- Generator: Adobe Illustrator 24.0.2, SVG Export Plug-In . SVG Version: 6.00 Build 0)  -->
<svg version="1.1" id="Capa_1" xmlns="http://www.w3.org/2000/svg" xmlns:xlink="http://www.w3.org/1999/xlink" x="0px" y="0px"
	 viewBox="0 0 124.6 90.5" style="enable-background:new 0 0 124.6 90.5;" xml:space="preserve">
<style type="text/css">
	.st0{fill:#FFFFFF;}
	.st1{fill:#DBFE01;}
</style>
<g>
	<g>
		<path class="st0" d="M69.5,35.5c2,0,3.7-1.6,3.7-3.7v-7.4c0-2-1.6-3.7-3.7-3.7c-2,0-3.7,1.6-3.7,3.7v7.4
			C65.7,33.9,67.4,35.5,69.5,35.5z"/>
		<path class="st0" d="M97.4,35.4c2,0,3.7-1.6,3.7-3.7v-7.4c0-2-1.6-3.7-3.7-3.7c-2,0-3.7,1.6-3.7,3.7v7.4
			C93.7,33.7,95.4,35.4,97.4,35.4z"/>
		<path class="st0" d="M117.5,41.2H64.7c-0.3,0.9-0.6,1.7-1,2.5h51l0.3,12.2v27.1c0,2.6-2.2,4.9-4.9,4.9H56.8
			c-2.6,0-4.9-2.2-4.9-4.9V59.5c-0.8,0.6-1.6,1.2-2.5,1.8v21.8c0,4,3.3,7.4,7.4,7.4h53.5c4,0,7.4-3.3,7.4-7.4V53.4L117.5,41.2z"/>
		<path class="st0" d="M117.7,34.8c0-4-3.3-7.4-7.4-7.4h-7.7v4.4c0,2.9-2.4,5.2-5.2,5.2s-5.2-2.4-5.2-5.2v-4.4H74.6v4.6
			c0,2.9-2.4,5.2-5.2,5.2c-1.3,0-2.5-0.5-3.5-1.3c-0.1,1-0.3,1.8-0.5,2.8h52.4V34.8L117.7,34.8z"/>
	</g>
	<path class="st1" d="M61.5,30.8C61.5,14.8,49,0.2,30.8,0C15.1-0.2,0.2,12.3,0,30.6c-0.2,15.6,12.1,30.6,30.7,30.8
		C46.4,61.7,61.2,49.1,61.5,30.8z M43.7,51.4c-0.4-0.8-0.9-1.5-1.3-2.2c-0.1-0.2-0.4-0.4-0.5-0.4c-0.3,0-0.7,0.1-0.9,0.3
		c-0.1,0.2-0.1,0.7,0,0.9c0.4,0.8,0.8,1.5,1.3,2.3c-0.5,0.3-1,0.5-1.5,0.8c-2.5,1.1-5.2,1.8-8,2.1c-0.4,0-0.4-0.1-0.4-0.4
		c0-1,0-1.8,0-2.8c0-0.7-0.3-1.2-0.9-1.5c-0.5-0.2-1.1-0.2-1.6,0.1c-0.4,0.3-0.6,0.7-0.6,1.1c0,1,0,1.8,0,2.8c0,0.5-0.1,0.6-0.6,0.5
		c-3.1-0.3-6-1.1-8.8-2.5c-0.1,0-0.2-0.1-0.4-0.2c0.4-0.7,0.9-1.5,1.3-2.2c0.3-0.6,0.1-1.2-0.5-1.3c-0.5-0.1-0.8,0.2-1,0.5
		c-0.4,0.7-0.8,1.4-1.2,2.1c-3-1.8-5.4-4.2-7.4-7.2c0.9-0.5,1.6-1,2.5-1.5c0.4-0.2,0.7-0.5,1-0.9c0.4-0.5,0.2-1.3-0.2-1.8
		c-0.5-0.5-1.2-0.7-1.8-0.3c-0.7,0.3-1.3,0.7-1.9,1.1c-0.3,0.2-0.7,0.4-1.1,0.6c-1.5-3.1-2.4-6.4-2.5-9.9c0.4,0,0.9,0,1.2,0
		c0.5,0,1.1,0,1.6,0c0.5,0,0.7-0.4,0.7-0.8c0-0.4-0.3-0.7-0.7-0.7c-0.7,0-1.5,0-2.2,0c-0.1,0-0.3,0-0.5,0c0.1-3.5,1-6.9,2.5-10
		c0.8,0.4,1.5,0.9,2.2,1.3c0.2,0.1,0.4,0.3,0.7,0.4c0.9,0.4,1.7,0.1,2.1-0.6c0.4-0.8,0.2-1.6-0.5-2.1c-0.8-0.5-1.6-1-2.5-1.5
		c-0.1,0-0.2-0.1-0.4-0.2c2-2.9,4.4-5.3,7.4-7.2c0.4,0.7,0.9,1.5,1.3,2.2c0.3,0.5,0.8,0.7,1.2,0.5c0.4-0.2,0.5-0.7,0.2-1.3
		c-0.4-0.7-0.8-1.4-1.3-2.2c3.1-1.6,6.4-2.6,9.9-2.9c0,0.2,0,0.4,0,0.6c0,1,0,1.9,0,2.8c0,0.9,0.7,1.4,1.5,1.4
		c0.9,0,1.5-0.5,1.5-1.4c0-0.9,0-1.8,0-2.7c0-0.2,0-0.4,0-0.7c3.5,0.2,6.7,1.1,9.8,2.8c-0.4,0.8-0.9,1.5-1.3,2.2
		c-0.3,0.6-0.1,1.2,0.5,1.3c0.4,0.1,0.7-0.2,1-0.5c0.4-0.7,0.8-1.4,1.3-2.2c3,1.9,5.4,4.2,7.4,7.2c-0.9,0.5-1.7,1-2.5,1.5
		c-0.3,0.2-0.7,0.5-0.9,0.8c-0.4,0.5-0.3,1.3,0.2,1.8c0.4,0.5,1.2,0.7,1.8,0.4c0.7-0.3,1.3-0.7,2-1.1c0.3-0.2,0.7-0.4,1-0.5
		c1.5,3.1,2.4,6.4,2.5,9.9c-0.7,0-1.3,0-2,0c-0.3,0-0.6,0-0.9,0c-0.4,0-0.7,0.4-0.6,0.8c0,0.4,0.2,0.8,0.7,0.8c0.9,0,1.8,0,2.7,0
		c-0.1,3.5-1,6.9-2.5,10.1c-0.8-0.5-1.5-0.9-2.4-1.4c-0.5-0.3-1.1-0.6-1.7-0.4c-0.6,0.2-1,0.6-1.1,1.2c-0.1,0.6,0,1.2,0.6,1.5
		c0.9,0.5,1.7,1,2.5,1.5c0.1,0.1,0.3,0.1,0.4,0.3C49,47.1,46.6,49.5,43.7,51.4z"/>
	<path class="st0" d="M42.6,22.1c-3.3,1.8-6.6,3.7-9.9,5.5c-0.2,0.1-0.5,0.1-0.7,0c-0.9-0.3-1.6-0.3-2.5,0c-0.2,0-0.4,0-0.6,0
		c-1.5-0.8-2.9-1.6-4.4-2.4C22.6,24,20.7,23,18.8,22c-0.8-0.4-1.6-0.3-2.3,0.3c-0.6,0.5-0.8,1.5-0.4,2.3c0.3,0.7,0.9,1,1.5,1.3
		c3.2,1.8,6.4,3.6,9.7,5.4c0.2,0.1,0.4,0.4,0.4,0.6c0.5,1.4,1.7,2.3,3.7,2.3c0.9,0,2-0.6,2.5-1.8c0.3-0.8,0.8-1.3,1.5-1.5
		c0.2-0.1,0.4-0.2,0.7-0.4c2.9-1.6,5.7-3.2,8.6-4.8c0.3-0.2,0.6-0.4,0.9-0.7c0.5-0.7,0.5-1.8-0.1-2.5C44.5,21.6,43.6,21.5,42.6,22.1
		z"/>
	<g>
		<path class="st1" d="M64.7,65L82,82.2c1.7,1.7,4.4,1.7,6.1,0l35.3-34.9c1.7-1.7,1.7-4.4,0-6.1c-1.7-1.7-4.4-1.7-6.1,0L85.1,73
			L70.8,58.8c-1.7-1.7-4.4-1.7-6.1,0C63,60.6,63,63.3,64.7,65L64.7,65z"/>
	</g>
</g>
</svg>
