<svg xmlns="http://www.w3.org/2000/svg" viewBox="0 0 82.84 82.83"><defs><style>.cls-1,.cls-2{opacity:0.5;}.cls-2{fill:#838383;}</style></defs><title>ICON-ANTERIOR-OPAC</title><g id="Capa_2" data-name="Capa 2"><g id="Capa_1-2" data-name="Capa 1"><g class="cls-1"><path class="cls-2" d="M3.39,41.42A38,38,0,1,1,14.53,68.31,37.86,37.86,0,0,1,3.39,41.42M41.42,0A41.41,41.41,0,0,0,0,41.42H0A41.42,41.42,0,1,0,41.42,0"/><path class="cls-2" d="M45.17,24.24a1.68,1.68,0,0,0-1.19.5h0L30.43,38.29a1.72,1.72,0,0,0-.5,1.19,1.74,1.74,0,0,0,.5,1.2L45.27,55.52a1.7,1.7,0,0,0,2.39,0,1.7,1.7,0,0,0,0-2.4L34,39.48,46.37,27.13a1.7,1.7,0,0,0-1.2-2.89"/></g></g></g></svg>