<?xml version="1.0" encoding="utf-8"?>
<!-- Generator: Adobe Illustrator 24.0.2, SVG Export Plug-In . SVG Version: 6.00 Build 0)  -->
<svg version="1.1" id="Capa_1" xmlns="http://www.w3.org/2000/svg" xmlns:xlink="http://www.w3.org/1999/xlink" x="0px" y="0px"
	 viewBox="0 0 87.4 90.5" style="enable-background:new 0 0 87.4 90.5;" xml:space="preserve">
<style type="text/css">
	.st0{fill:#DBFE01;}
	.st1{fill:#FFFFFF;}
	.st2{fill:#22294D;}
</style>
<g>
	<g>
		<g>
			<path class="st0" d="M20.3,25.8v12c0,1.3,1.1,2.4,2.4,2.4h14.4V25.8c0-1.3-1.1-2.4-2.4-2.4h-12C21.4,23.4,20.3,24.5,20.3,25.8z"
				/>
			<path class="st0" d="M87.4,54.6v-12c0-1.3-1.1-2.4-2.4-2.4H71.1c-0.3,0-0.5-0.2-0.5-0.5V25.8c0-1.3-1.1-2.4-2.4-2.4h-12
				c-1.3,0-2.4,1.1-2.4,2.4v13.9c0,0.3-0.2,0.5-0.5,0.5H37.1v16.8h16.3c0.3,0,0.5,0.2,0.5,0.5v7.9c0,13.9,11.3,25.2,25.2,25.2h6
				c1.3,0,2.4-1.1,2.4-2.4v-12c0-1.3-1.1-2.4-2.4-2.4h-6c-4.6,0-8.4-3.7-8.4-8.4v-7.9c0-0.3,0.2-0.5,0.5-0.5H85
				C86.4,56.9,87.4,55.9,87.4,54.6z"/>
			<path class="st0" d="M22.7,73.7h12c1.3,0,2.4-1.1,2.4-2.4V56.9H22.7c-1.3,0-2.4,1.1-2.4,2.4v12C20.3,72.6,21.4,73.7,22.7,73.7z"
				/>
		</g>
	</g>
	<path class="st0" d="M84,5.9c0-0.7-0.3-1.3-0.7-1.8c-0.5-0.5-1.1-0.7-1.8-0.7H67.7c-1.9,0-3.4-1.5-3.4-3.4v0l17.2,0
		c1.6,0,3.1,0.7,4.1,1.7c1.1,1.1,1.7,2.5,1.7,4.1v17.5h0c-1.9,0-3.4-1.5-3.4-3.4L84,5.9z"/>
	<path class="st0" d="M6,3.5c-0.7,0-1.3,0.3-1.8,0.7C3.8,4.7,3.5,5.3,3.5,6v13.8c0,1.9-1.5,3.4-3.4,3.4h0L0.2,6
		c0-1.6,0.7-3.1,1.7-4.1C2.9,0.8,4.4,0.2,6,0.2h17.5v0c0,1.9-1.5,3.4-3.4,3.4L6,3.5z"/>
	<path class="st0" d="M3.4,84.6c0,0.7,0.3,1.3,0.7,1.8c0.5,0.5,1.1,0.7,1.8,0.7h13.8c1.9,0,3.4,1.5,3.4,3.4v0H5.9
		c-1.6,0-3.1-0.7-4.1-1.7C0.7,87.7,0,86.2,0,84.6l0-17.5h0c1.9,0,3.4,1.5,3.4,3.4L3.4,84.6z"/>
	<path class="st0" d="M13.6,16.7v30.2h30.2V46V16.7H13.6z M15.3,18.3h26.9v26.9H15.3V18.3z"/>
</g>
<g>
	<path class="st1" d="M235.5,25.2L235.5,25.2C235.5,25.2,235.5,25.2,235.5,25.2C235.5,25.2,235.5,25.2,235.5,25.2L235.5,25.2
		c-0.3,0.6-0.4,1.3-0.4,1.9c0,1.9,1,3.8,2.8,4.7c1.8,1,3.8,1.6,4.8,2l0.4,0.1c0.4,0,0.7,0.1,1.1,0.1c1.4,0,2.6-0.3,3.6-0.9
		c1-0.6,1.7-1.6,2-2.7c0.1-0.4,0.2-0.9,0.2-1.3c0-2.1-1.3-4.1-3.4-5.1c-1.4-0.7-2.9-1.2-4.4-1.7c-0.6-0.2-1.1-0.3-1.7-0.3
		C238.4,22.1,236.4,23.2,235.5,25.2z"/>
	<path class="st1" d="M235,43.1c2.8,1.1,5.6,2.2,8.4,3.3c0.7,0.3,1.5,0.4,2.2,0.4c2,0,4-0.8,5-2.6c0.4-0.8,0.6-1.6,0.6-2.4
		c0-1.7-0.8-3.5-2.7-4.4c-3.6-1.8-7.4-3.1-10.3-4.3l-0.4-0.1l-1-0.1c-2.7,0-5,1.5-5.6,3.8h0c0,0,0,0,0,0c0,0,0,0,0,0l0,0
		c-0.1,0.4-0.1,0.8-0.1,1.2C231.1,40.1,232.7,42.1,235,43.1z"/>
	<path class="st1" d="M234.3,54.8c3.2,1.4,6.4,2.6,9.7,3.8c0.6,0.2,1.3,0.3,1.9,0.3c2,0,3.8-1.1,4.7-2.8c0.4-0.8,0.6-1.6,0.6-2.4
		c0-1.7-0.9-3.3-2.5-4.1c-3.7-2-7.6-3.4-10.4-4.6l-0.5-0.1l-1,0c-1.4,0-2.7,0.3-3.7,0.9c-1,0.6-1.7,1.7-2,2.8l1.4,0.3l-1.4-0.3
		c-0.1,0.4-0.1,0.8-0.1,1.3C231.2,51.8,232.3,53.9,234.3,54.8z"/>
	<path class="st1" d="M245.9,67.9l0.6-0.8l0.1-0.2c0.4-0.8,0.6-1.6,0.6-2.4c0-2.2-1.5-4.2-3.8-5.2c-2.3-1-4.2-1.6-6-1.6
		c-1,0-2,0.2-2.9,0.7c-0.8,0.5-1.5,1.3-1.9,2.3c-0.2,0.4-0.2,0.7-0.3,0.9l0,0.3l0,0.1l0,0.3l0,0.1c0,1.3,0.4,2.6,1.2,3.6
		c0.8,1,2,1.7,3.3,2.2l0,0c1.5,0.6,3.1,1.4,5,1.4c1.3,0,2.7-0.5,3.8-1.6L245.9,67.9z"/>
	<polygon class="st1" points="245.3,74.7 245.4,74.7 245.4,74.7 	"/>
	<path class="st1" d="M292.4,75.9c0-2.7,0-4.9,0-7.1c0-4.3,0-8,0-13.3l0-0.1l0-0.7l0-0.2l0,0l0-0.3c0-0.2,0-0.4-0.1-1.2l0,0
		c0-1.3-1.1-2.4-2.5-2.4c-1.2,0-2.2,0.9-2.4,2l0,0l-0.1,0.2c0,0,0,1.9,0,2.7c0,9.8,0.1,11.2,0.1,20.9v0c0,1.3-0.3,2.1-0.8,2.6
		c-0.5,0.5-1.3,0.8-2.6,0.8c-5.3,0-10.5,0-15.8,0c-5.6,0-11.2,0-16.9,0c-1.1,0-1.9-0.3-2.3-0.7c-0.5-0.4-0.8-1.1-1-2.2
		c-0.1-0.5-0.2-1.1-0.6-1.6c-0.4-0.5-1.1-0.9-1.8-0.9l-0.4,0c-0.7,0.1-1.4,0.5-1.7,1c-0.3,0.5-0.4,1.1-0.4,1.6l0,0.4
		c0.2,3.9,3.6,7,7.7,7.1c2.2,0,4.4,0,6.7,0c3.4,0,6.8,0,10.2,0c5.3,0,10.5,0,15.8,0c2.8,0,5-0.7,6.6-2.2
		C291.8,81,292.4,78.7,292.4,75.9z M292.4,54.8L292.4,54.8L292.4,54.8L292.4,54.8z M292.5,54.6L292.5,54.6L292.5,54.6L292.5,54.6z"
		/>
	<path class="st1" d="M264,71.8c0,2.3,1.8,4,4.1,4c2.3,0,4-1.8,4-4.1c0-2.3-1.8-4-4.1-4C265.7,67.7,263.9,69.5,264,71.8z"/>
	<path class="st1" d="M330.3,62.4L330.3,62.4c-2.8-0.9-9.1-3.1-12.3-4.1c-0.8-0.3-1.4-0.5-2.1-0.5c-0.6,0-1.4,0.4-1.7,0.9
		c-0.2,0.2-0.3,0.5-0.5,0.8c-0.8-0.7-1.2-1.6-1.4-2.8c-0.8-4.3-1.3-8.8-2.2-13.1c-1-5.3-2.4-10.7-5.3-15.5c-1.9-3.1-3.6-6.3-5.3-9.6
		c-0.5-1-1.1-1.9-1.9-2.7c-0.8-0.8-2-1.4-3.4-1.5l-0.4,0c-2.7,0-4.6,1.7-5.7,3.7c-1.3,2.2-2,4.5-2,6.9c0,1.5,0.3,2.9,0.8,4.4
		c1.3,3.7,3.1,7.1,3.4,10.8c0.1,0.6,0.2,1.1,0.6,1.6c0.4,0.5,1,0.8,1.8,0.8l0.8-0.1c0.5-0.1,1-0.4,1.3-0.9c0.3-0.4,0.4-0.9,0.4-1.3
		c0-0.5-0.1-0.9-0.1-1.2c-0.5-3.5-1.1-7.1-3.2-10.3l-0.4-1c-0.2-1-0.3-2-0.3-2.9c0-1.8,0.4-3.4,1.5-4.8c0.4-0.6,0.9-0.7,1.2-0.7
		c0.3,0,0.7,0.2,1.1,0.9c0.2,0.4,0.5,1,0.8,1.6c1,2,1.8,4.5,3.4,6.5c2.5,3.2,4.1,6.8,4.9,10.6c1.3,6.1,2.4,12.2,3.5,18.4
		c0.5,2.8,1.7,5.3,4.3,6.9l0.1,0.5h0c-0.7,2.3-1.5,4.5-2.3,6.8c-1.6,4.6-3.2,9.3-4.8,14l0,0c-0.4-0.2-0.6-0.3-1.4-0.4
		c-0.9-0.2-1.9-0.3-2.9-0.3c-0.8,0-1.6,0.1-2.3,0.5c-1.4,0.7-2.2,1.3-2.8,1.7c-0.6,0.4-0.7,0.5-1.1,0.5c-0.3,0-1-0.1-2.3-0.6
		c-0.6-0.2-1.5-0.6-2.5-0.7l-1,0.2c-0.4,0.2-0.7,0.6-0.8,1l-0.2,0.9c0,0.6,0.3,1.2,0.7,1.6c0.4,0.4,0.9,0.6,1.3,0.7
		c2,0.7,3.2,1.1,4.6,1.1c1.4,0,2.7-0.6,4.9-1.7c0.6-0.3,1.3-0.5,1.9-0.5l0.4,0c0.5,0.1,0.7,0.2,0.9,0.2l0.4,0.2
		c0.1,0.1,0.3,0.1,0.5,0.2c-0.1,0.3-0.2,0.6-0.3,0.9c-0.1,0.4-0.2,0.8-0.2,1.2c0,1.5,0.9,2.9,2.4,3.4c3.5,1.2,9.6,3.3,12.3,4.2
		l0.8,0.1c1,0,1.9-0.6,2.3-1.6l0,0l0,0l0,0l0.1-0.8c0-1-0.6-1.9-1.6-2.3c-3.6-1.2-7.5-2.5-11.1-3.8c3.2-9.4,6.3-18.7,9.5-28.1
		c0.7,0.2,1.3,0.5,2,0.7l9.1,3.1l0.8,0.1c1,0,1.9-0.6,2.3-1.6l0,0l0,0l0,0l0.1-0.8C331.9,63.7,331.3,62.8,330.3,62.4z"/>
	<path class="st0" d="M232,14.5c0,2.1,1.7,3.8,3.8,3.8c2.1,0,3.8-1.7,3.8-3.8c0-2.1-1.7-3.8-3.8-3.8C233.7,10.7,232,12.4,232,14.5z"
		/>
	<path class="st0" d="M237.8,3.5c0-1.4-1.1-2.5-2.5-2.5c-6.9,0-12.4,5.6-12.4,12.4c0,1.4,1.1,2.5,2.5,2.5c1.4,0,2.5-1.1,2.5-2.5
		c0-2.1,0.8-3.9,2.2-5.3c1.4-1.4,3.2-2.2,5.3-2.2C236.7,5.9,237.8,4.8,237.8,3.5z"/>
	<path class="st0" d="M233.3-4.4c1.4,0,2.5-1.1,2.5-2.5c0-1.4-1.1-2.5-2.5-2.5c-11.8,0-21.4,9.6-21.4,21.4c0,1.4,1.1,2.5,2.5,2.5
		c1.4,0,2.5-1.1,2.5-2.5c0-4.5,1.8-8.6,4.8-11.6C224.7-2.5,228.8-4.4,233.3-4.4z"/>
	<path class="st1" d="M261.5,7.9c0-0.9-0.7-1.6-1.6-1.6c-0.9,0-1.6,0.7-1.6,1.6c0,0.9,0.7,1.6,1.6,1.6
		C260.8,9.4,261.5,8.7,261.5,7.9z"/>
	<path class="st1" d="M243.3,15.5L243.3,15.5L243.3,15.5l0,0.1l0.1,0.3l0,0.1l0,0c0.2,1,1.1,1.9,2.3,1.9c1.1,0,2-0.8,2.2-1.7
		c0.1-0.2,0.2-0.3,0.2-0.5l0-0.1l0,0l0,0l0,0c0-0.5,0-1.6,0-2c0-3,0-3,0-3.3c0-0.2,0-0.7,0-3.1c0-1.1,0.3-1.9,0.8-2.5
		c0.5-0.5,1.2-0.8,2.3-0.9c5.6,0,11.1,0,16.7,0c5.6,0,11.1,0,16.7,0c1,0,1.8,0.3,2.2,0.8c0.5,0.5,0.8,1.2,0.8,2.3
		c0,0.6,0,0.8,0.1,1.1l0,0l0,0l0,0.2l0,0l0,0.1l0,0l0,0.1l0.1,0.2l0,0c0,0,0,0,0,0.1l0,0.1l0,0.1l0,0c0.3,0.9,1.2,1.7,2.2,1.7
		c1.3,0,2.4-1.1,2.4-2.4l0-0.1h0c0,0,0-0.2-0.1-1.5c-0.1-2.3-0.9-4.3-2.4-5.6c-1.4-1.4-3.5-2.1-5.8-2.1c-2.3,0-4.6,0-7,0
		c-3.1,0-6.3,0-9.4,0h-0.5c-3.2,0-6.4,0-9.7,0c-2.3,0-4.6,0-6.8,0c-4.1,0-7.5,3-7.6,7.1c-0.1,3.1-0.1,3.9-0.1,4.8
		C243.2,11.7,243.2,12.5,243.3,15.5L243.3,15.5z"/>
	<path class="st1" d="M265.8,6.3L265.8,6.3h-0.4v0.1c-0.7,0.2-1.2,0.8-1.2,1.5c0,0.8,0.5,1.3,1.2,1.5v0.1h0.3c0,0,0,0,0.1,0h0.1
		l0.1,0h9.7l0,0l0.1,0l0.1,0h0h0.5V9.3c0.5-0.2,0.9-0.8,0.9-1.4c0-0.6-0.4-1.2-0.9-1.4V6.3H265.8z"/>
	<path class="st0" d="M278.7,32.1c-2.5-2.5-5.9-4.1-9.7-4.1c-7.6,0-13.7,6.4-13.7,14c0,3.9,1.6,7.4,4,9.9l0,0
		c2.5,2.5,5.9,4.1,9.6,4.1c7.6,0,13.7-6.4,13.7-14h0l0-0.4C282.6,37.9,281.2,34.5,278.7,32.1z"/>
	<path class="st2" d="M276.9,49.5c0,0.3-0.2,0.5-0.5,0.5H275c-3.2,0-5.8-2.6-5.8-5.8v-1.8c0,0,0-0.1-0.1-0.1h-3.7v3.3
		c0,0.3-0.2,0.5-0.5,0.5h-2.7c-0.3,0-0.6-0.3-0.6-0.6v-2.7c0-0.3,0.2-0.5,0.5-0.5h3.3v-3.8h-3.3c-0.3,0-0.5-0.2-0.5-0.5v-2.7
		c0-0.3,0.2-0.6,0.6-0.6h2.7c0.3,0,0.5,0.2,0.5,0.5v3.3h3.7c0,0,0.1,0,0.1-0.1v-3.2c0-0.3,0.2-0.5,0.5-0.5h2.7
		c0.3,0,0.5,0.2,0.5,0.5v3.2c0,0,0,0.1,0.1,0.1h3.2c0.3,0,0.5,0.2,0.5,0.5v2.7c0,0.3-0.2,0.6-0.4,0.6h-3.2c0,0-0.1,0-0.1,0.1v1.8
		c0,1,0.8,1.9,1.9,1.9h1.4c0.3,0,0.5,0.2,0.5,0.5V49.5z"/>
</g>
</svg>
