<?xml version="1.0" encoding="utf-8"?>
<!-- Generator: Adobe Illustrator 24.0.2, SVG Export Plug-In . SVG Version: 6.00 Build 0)  -->
<svg version="1.1" id="Capa_1" xmlns="http://www.w3.org/2000/svg" xmlns:xlink="http://www.w3.org/1999/xlink" x="0px" y="0px"
	 viewBox="0 0 120 109.2" style="enable-background:new 0 0 120 109.2;" xml:space="preserve">
<style type="text/css">
	.st0{fill:#22294D;}
</style>
<g>
	<path class="st0" d="M23.6,34.5L23.6,34.5L23.6,34.5L23.6,34.5L23.6,34.5c-0.3,0.6-0.4,1.3-0.4,1.9c0,1.9,1,3.8,2.8,4.7
		c1.8,1,3.8,1.6,4.8,2l0.4,0.1c0.4,0,0.7,0.1,1.1,0.1c1.4,0,2.6-0.3,3.6-0.9c1-0.6,1.7-1.6,2-2.7c0.1-0.4,0.2-0.9,0.2-1.3
		c0-2.1-1.3-4.1-3.4-5.1c-1.4-0.7-2.9-1.2-4.4-1.7c-0.6-0.2-1.1-0.3-1.7-0.3C26.5,31.4,24.5,32.5,23.6,34.5z"/>
	<path class="st0" d="M23.1,52.4c2.8,1.1,5.6,2.2,8.4,3.3c0.7,0.3,1.5,0.4,2.2,0.4c2,0,4-0.8,5-2.6c0.4-0.8,0.6-1.6,0.6-2.4
		c0-1.7-0.8-3.5-2.7-4.4c-3.6-1.8-7.4-3.1-10.3-4.3L26,42.2l-1-0.1c-2.7,0-5,1.5-5.6,3.8l0,0l0,0l0,0l0,0c-0.1,0.4-0.1,0.8-0.1,1.2
		C19.2,49.4,20.8,51.5,23.1,52.4z"/>
	<path class="st0" d="M22.4,64.1c3.2,1.4,6.4,2.6,9.7,3.8c0.6,0.2,1.3,0.3,1.9,0.3c2,0,3.8-1.1,4.7-2.8c0.4-0.8,0.6-1.6,0.6-2.4
		c0-1.7-0.9-3.3-2.5-4.1c-3.7-2-7.6-3.4-10.4-4.6l-0.5-0.1h-1c-1.4,0-2.7,0.3-3.7,0.9c-1,0.6-1.7,1.7-2,2.8l1.4,0.3l-1.4-0.3
		c-0.1,0.4-0.1,0.8-0.1,1.3C19.3,61.2,20.3,63.2,22.4,64.1z"/>
	<path class="st0" d="M33.9,77.2l0.6-0.8l0.1-0.2c0.4-0.8,0.6-1.6,0.6-2.4c0-2.2-1.5-4.2-3.8-5.2s-4.2-1.6-6-1.6c-1,0-2,0.2-2.9,0.7
		C21.7,68.2,21,69,20.6,70c-0.2,0.4-0.2,0.7-0.3,0.9v0.3v0.1v0.3v0.1c0,1.3,0.4,2.6,1.2,3.6c0.8,1,2,1.7,3.3,2.2l0,0
		c1.5,0.6,3.1,1.4,5,1.4c1.3,0,2.7-0.5,3.8-1.6L33.9,77.2z"/>
	<path class="st0" d="M33.4,84L33.4,84L33.4,84z"/>
	<path class="st0" d="M80.5,85.2c0-2.7,0-4.9,0-7.1c0-4.3,0-8,0-13.3v-0.1V64v-0.2l0,0v-0.3c0-0.2,0-0.4-0.1-1.2l0,0
		c0-1.3-1.1-2.4-2.5-2.4c-1.2,0-2.2,0.9-2.4,2l0,0l-0.1,0.2c0,0,0,1.9,0,2.7c0,9.8,0.1,11.2,0.1,20.9l0,0c0,1.3-0.3,2.1-0.8,2.6
		s-1.3,0.8-2.6,0.8c-5.3,0-10.5,0-15.8,0c-5.6,0-11.2,0-16.9,0c-1.1,0-1.9-0.3-2.3-0.7c-0.5-0.4-0.8-1.1-1-2.2
		c-0.1-0.5-0.2-1.1-0.6-1.6c-0.4-0.5-1.1-0.9-1.8-0.9h-0.4c-0.7,0.1-1.4,0.5-1.7,1c-0.3,0.5-0.4,1.1-0.4,1.6v0.4
		c0.2,3.9,3.6,7,7.7,7.1c2.2,0,4.4,0,6.7,0c3.4,0,6.8,0,10.2,0c5.3,0,10.5,0,15.8,0c2.8,0,5-0.7,6.6-2.2
		C79.8,90.3,80.5,88,80.5,85.2z M80.4,64.1L80.4,64.1L80.4,64.1L80.4,64.1z M80.5,63.9L80.5,63.9L80.5,63.9L80.5,63.9z"/>
	<path class="st0" d="M52,81.1c0,2.3,1.8,4,4.1,4s4-1.8,4-4.1c0-2.3-1.8-4-4.1-4C53.7,77.1,52,78.8,52,81.1z"/>
	<path class="st0" d="M118.3,71.7L118.3,71.7c-2.8-0.9-9.1-3.1-12.3-4.1c-0.8-0.3-1.4-0.5-2.1-0.5c-0.6,0-1.4,0.4-1.7,0.9
		c-0.2,0.2-0.3,0.5-0.5,0.8c-0.8-0.7-1.2-1.6-1.4-2.8c-0.8-4.3-1.3-8.8-2.2-13.1c-1-5.3-2.4-10.7-5.3-15.5c-1.9-3.1-3.6-6.3-5.3-9.6
		c-0.5-1-1.1-1.9-1.9-2.7c-0.8-0.8-2-1.4-3.4-1.5h-0.4c-2.7,0-4.6,1.7-5.7,3.7c-1.3,2.2-2,4.5-2,6.9c0,1.5,0.3,2.9,0.8,4.4
		c1.3,3.7,3.1,7.1,3.4,10.8c0.1,0.6,0.2,1.1,0.6,1.6s1,0.8,1.8,0.8l0.8-0.1c0.5-0.1,1-0.4,1.3-0.9c0.3-0.4,0.4-0.9,0.4-1.3
		c0-0.5-0.1-0.9-0.1-1.2c-0.5-3.5-1.1-7.1-3.2-10.3l-0.4-1c-0.2-1-0.3-2-0.3-2.9c0-1.8,0.4-3.4,1.5-4.8c0.4-0.6,0.9-0.7,1.2-0.7
		c0.3,0,0.7,0.2,1.1,0.9c0.2,0.4,0.5,1,0.8,1.6c1,2,1.8,4.5,3.4,6.5c2.5,3.2,4.1,6.8,4.9,10.6c1.3,6.1,2.4,12.2,3.5,18.4
		c0.5,2.8,1.7,5.3,4.3,6.9L100,74l0,0c-0.7,2.3-1.5,4.5-2.3,6.8c-1.6,4.6-3.2,9.3-4.8,14l0,0c-0.4-0.2-0.6-0.3-1.4-0.4
		c-0.9-0.2-1.9-0.3-2.9-0.3c-0.8,0-1.6,0.1-2.3,0.5c-1.4,0.7-2.2,1.3-2.8,1.7c-0.6,0.4-0.7,0.5-1.1,0.5c-0.3,0-1-0.1-2.3-0.6
		c-0.6-0.2-1.5-0.6-2.5-0.7l-1,0.2c-0.4,0.2-0.7,0.6-0.8,1l-0.2,0.9c0,0.6,0.3,1.2,0.7,1.6c0.4,0.4,0.9,0.6,1.3,0.7
		c2,0.7,3.2,1.1,4.6,1.1s2.7-0.6,4.9-1.7c0.6-0.3,1.3-0.5,1.9-0.5h0.4c0.5,0.1,0.7,0.2,0.9,0.2l0.4,0.2c0.1,0.1,0.3,0.1,0.5,0.2
		c-0.1,0.3-0.2,0.6-0.3,0.9c-0.1,0.4-0.2,0.8-0.2,1.2c0,1.5,0.9,2.9,2.4,3.4c3.5,1.2,9.6,3.3,12.3,4.2l0.8,0.1c1,0,1.9-0.6,2.3-1.6
		l0,0l0,0l0,0l0.1-0.8c0-1-0.6-1.9-1.6-2.3c-3.6-1.2-7.5-2.5-11.1-3.8c3.2-9.4,6.3-18.7,9.5-28.1c0.7,0.2,1.3,0.5,2,0.7l9.1,3.1
		l0.8,0.1c1,0,1.9-0.6,2.3-1.6l0,0l0,0l0,0L120,74C120,73,119.4,72.1,118.3,71.7z"/>
	<path class="st0" d="M20.1,23.8c0,2.1,1.7,3.8,3.8,3.8s3.8-1.7,3.8-3.8S26,20,23.9,20C21.8,20.1,20.1,21.8,20.1,23.8z"/>
	<path class="st0" d="M25.9,12.8c0-1.4-1.1-2.5-2.5-2.5c-6.9,0-12.4,5.6-12.4,12.4c0,1.4,1.1,2.5,2.5,2.5s2.5-1.1,2.5-2.5
		c0-2.1,0.8-3.9,2.2-5.3c1.4-1.4,3.2-2.2,5.3-2.2C24.8,15.3,25.9,14.2,25.9,12.8z"/>
	<path class="st0" d="M21.4,5c1.4,0,2.5-1.1,2.5-2.5S22.8,0,21.4,0C9.6,0,0,9.6,0,21.4c0,1.4,1.1,2.5,2.5,2.5S5,22.8,5,21.4
		c0-4.5,1.8-8.6,4.8-11.6C12.7,6.8,16.8,5,21.4,5z"/>
	<path class="st0" d="M49.6,17.2c0-0.9-0.7-1.6-1.6-1.6c-0.9,0-1.6,0.7-1.6,1.6s0.7,1.6,1.6,1.6C48.9,18.8,49.6,18.1,49.6,17.2z"/>
	<path class="st0" d="M31.4,24.9L31.4,24.9L31.4,24.9V25l0.1,0.3v0.1l0,0c0.2,1,1.1,1.9,2.3,1.9c1.1,0,2-0.8,2.2-1.7
		c0.1-0.2,0.2-0.3,0.2-0.5V25l0,0l0,0l0,0c0-0.5,0-1.6,0-2c0-3,0-3,0-3.3c0-0.2,0-0.7,0-3.1c0-1.1,0.3-1.9,0.8-2.5
		c0.5-0.5,1.2-0.8,2.3-0.9c5.6,0,11.1,0,16.7,0s11.1,0,16.7,0c1,0,1.8,0.3,2.2,0.8c0.5,0.5,0.8,1.2,0.8,2.3c0,0.6,0,0.8,0.1,1.1l0,0
		l0,0v0.2l0,0v0.1l0,0v0.1l0.1,0.2l0,0c0,0,0,0,0,0.1v0.1v0.1l0,0c0.3,0.9,1.2,1.7,2.2,1.7c1.3,0,2.4-1.1,2.4-2.4v-0.1l0,0
		c0,0,0-0.2-0.1-1.5c-0.1-2.3-0.9-4.3-2.4-5.6c-1.4-1.4-3.5-2.1-5.8-2.1s-4.6,0-7,0c-3.1,0-6.3,0-9.4,0h-0.5c-3.2,0-6.4,0-9.7,0
		c-2.3,0-4.6,0-6.8,0c-4.1,0-7.5,3-7.6,7.1c-0.1,3.1-0.1,3.9-0.1,4.8C31.3,21,31.3,21.9,31.4,24.9L31.4,24.9z"/>
	<path class="st0" d="M53.9,15.6L53.9,15.6h-0.4v0.1c-0.7,0.2-1.2,0.8-1.2,1.5c0,0.8,0.5,1.3,1.2,1.5v0.1h0.3c0,0,0,0,0.1,0H54h0.1
		h9.7l0,0h0.1H64l0,0h0.5v-0.2c0.5-0.2,0.9-0.8,0.9-1.4S65,16,64.5,15.8v-0.2C64.5,15.6,53.9,15.6,53.9,15.6z"/>
	<path class="st0" d="M66.8,41.4c-2.5-2.5-5.9-4.1-9.7-4.1c-7.6,0-13.7,6.4-13.7,14c0,3.9,1.6,7.4,4,9.9c2.5,2.5,5.9,4.1,9.6,4.1
		c7.6,0,13.7-6.4,13.7-14v-0.4C70.7,47.3,69.2,43.8,66.8,41.4z M53.4,55c0,0.3-0.2,0.5-0.5,0.5h-2.7c-0.3,0-0.6-0.3-0.6-0.6v-2.7
		c0-0.3,0.2-0.5,0.5-0.5h3.3V55z M64.4,59.3H63c-3.2,0-5.8-2.6-5.8-5.8v-1.8c0,0,0-0.1-0.1-0.1h-3.7v-3.7h-3.3
		c-0.3,0-0.5-0.2-0.5-0.5v-2.7c0-0.3,0.2-0.6,0.6-0.6h2.7c0.3,0,0.5,0.2,0.5,0.5v3.3h3.7c0,0,0.1,0,0.1-0.1v-3.2
		c0-0.3,0.2-0.5,0.5-0.5h2.7c0.3,0,0.5,0.2,0.5,0.5v3.2c0,0,0,0.1,0.1,0.1h3.2c0.3,0,0.5,0.2,0.5,0.5v2.7c0,0.3-0.2,0.6-0.4,0.6
		h-3.2c0,0-0.1,0-0.1,0.1v1.8c0,1,0.8,1.9,1.9,1.9h1.4c0.3,0,0.5,0.2,0.5,0.5v2.8h0.1C64.9,59.1,64.7,59.3,64.4,59.3z"/>
</g>
</svg>
