<svg xmlns="http://www.w3.org/2000/svg" viewBox="0 0 58.29 58.29"><defs><style>.cls-1{fill:#fff;}</style></defs><title>ICON-TIK TOK</title><g id="Capa_2" data-name="Capa 2"><g id="Capa_1-2" data-name="Capa 1"><path class="cls-1" d="M20.82,2.73h3a1.31,1.31,0,0,0,1.33-1.34A1.29,1.29,0,0,0,23.78,0h-3a1.31,1.31,0,0,0-1.33,1.33A1.42,1.42,0,0,0,20.82,2.73Z"/><path class="cls-1" d="M28.3,2.73h6.15a1.31,1.31,0,0,0,1.33-1.34A1.31,1.31,0,0,0,34.45.06H28.3A1.31,1.31,0,0,0,27,1.39,1.31,1.31,0,0,0,28.3,2.73Z"/><path class="cls-1" d="M55.56,2.73A9.18,9.18,0,0,0,49.07,0H39.5a1.31,1.31,0,0,0-1.34,1.33A1.32,1.32,0,0,0,39.5,2.67H49A6.52,6.52,0,0,1,55.5,9.16V55.5H9.22a6.24,6.24,0,0,1-4.58-1.91A6.48,6.48,0,0,1,2.73,49V9.22A6.24,6.24,0,0,1,4.64,4.64,6.48,6.48,0,0,1,9.22,2.73H17.4a1.31,1.31,0,0,0,1.33-1.34A1.33,1.33,0,0,0,17.4,0H9.22A9,9,0,0,0,2.73,2.73,9,9,0,0,0,0,9.22V49.07a9,9,0,0,0,2.73,6.49,9.22,9.22,0,0,0,6.49,2.73H58.29V9.22A9,9,0,0,0,55.56,2.73Z"/><path class="cls-1" d="M52.66,7a1.45,1.45,0,1,0-1.45,1.45A1.44,1.44,0,0,0,52.66,7Z"/><path class="cls-1" d="M5.45,51.44A1.45,1.45,0,1,0,6.9,50,1.52,1.52,0,0,0,5.45,51.44Z"/><path class="cls-1" d="M45,7H13.28A6.23,6.23,0,0,0,7,13.28V45a6.23,6.23,0,0,0,6.26,6.26h38v-38A6.27,6.27,0,0,0,45,7ZM43.38,25.93v.17a13.49,13.49,0,0,1-7.94-2.55v11.6a10.53,10.53,0,0,1-1.63,5.74A11.44,11.44,0,0,1,30,44.54a10.07,10.07,0,0,1-4.46,1.28,10.5,10.5,0,0,1-8-3,10.47,10.47,0,0,1-2.38-3.54,11,11,0,0,1-.7-2.78,8.62,8.62,0,0,1,0-2.38,9.58,9.58,0,0,1,1.16-3.77,10.14,10.14,0,0,1,5-4.7,11,11,0,0,1,4.06-1c.52,0,1.1.06,1.62.06.12,0,.18.05.18.17v5.68l-.87-.17a4.62,4.62,0,0,0-4.53,2,4.48,4.48,0,0,0-.58,4.41,4.86,4.86,0,0,0,9.05.29,4.58,4.58,0,0,0,.41-1.92V12.53a.12.12,0,0,1,.11-.12h5.45c.12,0,.18,0,.18.18a7.42,7.42,0,0,0,1.91,5,7.78,7.78,0,0,0,4.18,2.55,8.1,8.1,0,0,0,1.68.24c.17,0,.23,0,.23.23A32.24,32.24,0,0,0,43.38,25.93Z"/></g></g></svg>