<svg xmlns="http://www.w3.org/2000/svg" viewBox="0 0 15.73 15.75"><defs><style>.cls-1{fill:#22294d;}</style></defs><title>ID-USUARIO</title><g id="Capa_2" data-name="Capa 2"><g id="Capa_1-2" data-name="Capa 1"><path class="cls-1" d="M1.06,7A2.85,2.85,0,0,0,1.9,9a2.85,2.85,0,0,0,4,0,2.86,2.86,0,0,0-2-4.88,2.8,2.8,0,0,0-2,.84A2.85,2.85,0,0,0,1.06,7Z"/><path class="cls-1" d="M7.71,11.81a3.69,3.69,0,0,0-.43-.53,4.16,4.16,0,0,0-.81-.7A4.72,4.72,0,0,0,5.32,10a4.7,4.7,0,0,0-1.4-.21,4.61,4.61,0,0,0-1.4.21,4.44,4.44,0,0,0-1.16.56,4.52,4.52,0,0,0-.83.73h0a3.92,3.92,0,0,0-.39.5.74.74,0,0,0,.2,1,6.3,6.3,0,0,0,7.17,0A.77.77,0,0,0,7.71,11.81Z"/><path class="cls-1" d="M15.73.87A.76.76,0,0,0,15.5.33.74.74,0,0,0,15,.12a.72.72,0,0,0-.37.11A5.5,5.5,0,0,1,12.37,1l-.45,0A5.57,5.57,0,0,1,9.11.17,1.22,1.22,0,0,0,8.5,0,1.18,1.18,0,0,0,8,.14,6.16,6.16,0,0,1,5.12.85l-.56,0A6,6,0,0,1,2.41.18h0A.73.73,0,0,0,2.06.09.76.76,0,0,0,1.54.3a.75.75,0,0,0-.23.54V3.56A.45.45,0,0,0,1.76,4a.45.45,0,0,0,.45-.45V1.08a6.85,6.85,0,0,0,2.26.63l.65,0A7,7,0,0,0,8.36.93.35.35,0,0,1,8.5.9a.28.28,0,0,1,.15,0,6.41,6.41,0,0,0,3.27.92,4.78,4.78,0,0,0,.53,0,6.16,6.16,0,0,0,2.38-.71V4.7c0,.16,0,.32,0,.48h0a10.73,10.73,0,0,1-4.3,8l-2,1.51-1.07-.81a.46.46,0,0,0-.63.08.45.45,0,0,0,.09.63l1.34,1a.45.45,0,0,0,.54,0l2.27-1.73a11.6,11.6,0,0,0,4.66-8.71h0c0-.17,0-.34,0-.52ZM2,1Z"/><path class="cls-1" d="M8.34,13.65a.3.3,0,0,0,.36,0l1.69-1.28A8.6,8.6,0,0,0,13.85,6h0c0-.15,0-.31,0-.46V2.6a.29.29,0,0,0-.13-.24.29.29,0,0,0-.27,0,7.11,7.11,0,0,1-1,.28,10.44,10.44,0,0,1-1.12.14h-.34a4.1,4.1,0,0,1-2.13-.6A.81.81,0,0,0,8.51,2a.91.91,0,0,0-.4.1,3.57,3.57,0,0,1-1,.31,12.49,12.49,0,0,1-1.59.2,3.1,3.1,0,0,1-.42,0,2.85,2.85,0,0,1-1.45-.31.31.31,0,0,0-.31,0,.3.3,0,0,0-.15.26v.64a.29.29,0,0,0,.3.3.3.3,0,0,0,.3-.3V3.07a4.08,4.08,0,0,0,1.31.19l.47,0A16,16,0,0,0,7.21,3a4.32,4.32,0,0,0,1.18-.37.27.27,0,0,1,.12,0,.2.2,0,0,1,.11,0,4.73,4.73,0,0,0,2.44.69h.39a10.11,10.11,0,0,0,1.2-.16c.2,0,.4-.1.62-.16V5.51c0,.14,0,.29,0,.43h0a8,8,0,0,1-3.23,6L8.52,13l0,0a.3.3,0,1,0-.36.48Z"/><path class="cls-1" d="M8.52,9.81a.71.71,0,0,0,.71-.71V7.47a1.35,1.35,0,1,0-1.41,0V9.1A.7.7,0,0,0,8.52,9.81Z"/></g></g></svg>