<svg xmlns="http://www.w3.org/2000/svg" viewBox="0 0 24.75 24.75"><defs><style>.cls-1{fill:#2d3e8e;}</style></defs><title>INSTAGRAM</title><g id="Capa_2" data-name="Capa 2"><g id="Capa_1-2" data-name="Capa 1"><path class="cls-1" d="M12.37,0h5.39a6.85,6.85,0,0,1,4.47,1.54,6.51,6.51,0,0,1,2.3,3.67,8,8,0,0,1,.21,1.69q0,5.46,0,10.94a6.65,6.65,0,0,1-2.47,5.31,6.58,6.58,0,0,1-4.38,1.58c-3.68,0-7.36,0-11,0a6.68,6.68,0,0,1-6-3.56A6.44,6.44,0,0,1,0,17.87c0-3.67,0-7.33,0-11a6.66,6.66,0,0,1,3.56-6A6.56,6.56,0,0,1,6.92,0Zm0,22.54h5.41a4.64,4.64,0,0,0,4.75-4.71c0-3.64,0-7.28,0-10.92a4.4,4.4,0,0,0-.42-2A4.53,4.53,0,0,0,17.85,2.2c-3.65,0-7.3,0-11,0A4.59,4.59,0,0,0,3.78,3.35,4.65,4.65,0,0,0,2.2,7V17.45c0,.26,0,.52,0,.79a4.5,4.5,0,0,0,2.09,3.55A4.56,4.56,0,0,0,7,22.54Z"/><path class="cls-1" d="M12.37,18.74a6.37,6.37,0,1,1,6.38-6.37A6.38,6.38,0,0,1,12.37,18.74Zm0-2.19A4.18,4.18,0,1,0,8.2,12.38,4.18,4.18,0,0,0,12.38,16.55Z"/><path class="cls-1" d="M19,7.35a1.61,1.61,0,1,1,1.6-1.6A1.62,1.62,0,0,1,19,7.35Z"/></g></g></svg>