<svg xmlns="http://www.w3.org/2000/svg" viewBox="0 0 94.03 90.93"><defs><style>.cls-1{fill:#2d3d88;}</style></defs><title>INVERSIONISTAS</title><g id="Capa_2" data-name="Capa 2"><g id="Capa_1-2" data-name="Capa 1"><path class="cls-1" d="M85.2,50.68c5.86,7.37,10.19,15.48,8.44,25.16-1.67,9.22-11.43,15.84-21.47,15C61.4,90,53.28,82.24,53.12,72.63a29.7,29.7,0,0,1,4.61-15.78c1.15-1.93,2.58-3.72,3.88-5.57.44-.63.9-.72,1.8-.56a36.91,36.91,0,0,0,5.67.37c3.89,0,7.77,0,11.66,0C82.07,51.07,83.39,50.85,85.2,50.68Zm-10,30,1-.37c3-1.2,4.76-3.89,4.24-6.68-.56-3-3.18-5.06-6.6-5.2a8.61,8.61,0,0,1-1,0,3.4,3.4,0,0,1-3-2.41,2.88,2.88,0,0,1,.93-3.38A4,4,0,0,1,75,62,3.42,3.42,0,0,1,77.13,65a1.94,1.94,0,0,0,1.2,1.22,1.71,1.71,0,0,0,1.47-.67,3.18,3.18,0,0,0,0-1.93A6.45,6.45,0,0,0,75.16,59c0-.45,0-.76,0-1.07.07-1-.2-1.82-1.47-1.83s-1.28.85-1.47,1.72A2.2,2.2,0,0,1,71,59.17a6.33,6.33,0,0,0-4.34,5.46c-.35,3.61,2.62,6.33,6.87,6.54,2.16.11,3.57,1.12,3.88,2.79a3.42,3.42,0,0,1-2.93,3.92A3.64,3.64,0,0,1,70.13,75c-.17-1.06-.5-1.92-1.82-1.69S67,74.48,67.16,75.48a5.82,5.82,0,0,0,3.21,4.32c1.06.55,2,.93,1.89,2.34,0,.39,1,1.24,1.35,1.18A2.86,2.86,0,0,0,75.11,82C75.34,81.68,75.2,81.13,75.23,80.65Z"/><path class="cls-1" d="M52.77,60c-3.53,9.57-3.47,14.76-.43,21.58-.59,0-1.12.09-1.65.09H4.89c-3.68,0-5.79-2.82-4.51-6,1.77-4.44,3.87-8.75,7.73-12a45.63,45.63,0,0,1,6.11-4.06c2.73-1.63,5.54-3.13,8.3-4.71A4.94,4.94,0,0,0,25,51.36c.16-.86.46-1.69.61-2.23,2.53.62,5,1.64,7.51,1.73s5-.78,7.74-1.27c-.27-.26-.13-.19-.13-.12,0,4.49,4.11,5.75,7.25,7.76C49.54,58.19,51.14,59,52.77,60Zm-15,13.08c-.25-2-.38-3.83-.77-5.59a2.22,2.22,0,0,0-1.58-1.16c-1.38-.17-2.8,0-4.2-.07S29.2,66.7,29.1,68c-.11,1.44-.39,2.87-.49,4.3A2.88,2.88,0,0,0,29,74c.88,1.26,1.89,2.43,2.9,3.61.86,1,1.77,1,2.61-.06s1.91-2.29,2.81-3.47A4.78,4.78,0,0,0,37.82,73.06Zm-4.69-9.6v-.07h1.69c2.12,0,2.83-.65,2.87-2.58,0-.92,0-1.85,0-2.78,0-1.32-.75-2-2.2-2-1.68,0-3.37-.08-5,.07-.61,0-1.63.63-1.66,1a18.37,18.37,0,0,0,.15,5c.11.54,1.25,1,2,1.31A7.45,7.45,0,0,0,33.13,63.46Z"/><path class="cls-1" d="M41.5,18.66a63.51,63.51,0,0,0,5.42,4,33.59,33.59,0,0,0,4.6,1.73,2.81,2.81,0,0,1,1.4,1c1.22,2.34.16,6.6-2,8.31-.25.2-.55.51-.82.51-1.84,0-2.13,1.3-2.69,2.45a27.09,27.09,0,0,1-7,9,10.38,10.38,0,0,1-13.84-.06,29.18,29.18,0,0,1-7.5-10c-.2-.43-.57-1.07-.93-1.12-2.15-.27-3-1.71-3.65-3.27a28.66,28.66,0,0,1-1-4.17A63.34,63.34,0,0,0,41.5,18.66Z"/><path class="cls-1" d="M52.76,21.74a12.25,12.25,0,0,1-3.3-.87A54.06,54.06,0,0,1,44.2,17c-1.85-1.49-2.73-1.63-4.78-.42a59.1,59.1,0,0,1-23,7.43,10.92,10.92,0,0,1-1.51.08,7.48,7.48,0,0,1-1.17-.18,23.2,23.2,0,0,1,1.2-8.35,22.47,22.47,0,0,1,10-13.14c6-3.56,12.1-3.22,17.65.88.81.6,1.82,1,2.67,1.52A12,12,0,0,1,48.05,7C51.42,11.24,52.47,16.14,52.76,21.74Z"/><path class="cls-1" d="M84.67,40H62.59c-.65-1.72-1.45-3.64-2.1-5.6-.4-1.21.39-2,1.94-2,2.14,0,4.28,0,6.43,0h15c2.94,0,3.47.66,2.52,3.16C85.83,37.08,85.22,38.63,84.67,40Z"/><path class="cls-1" d="M73.5,48.33c-2.64,0-5.28,0-7.92,0-2,0-2.73-.82-2.76-2.75s.71-2.95,2.71-3q8.09-.06,16.18,0c2,0,2.79.91,2.78,2.91s-.84,2.78-2.9,2.8c-2.7,0-5.39,0-8.09,0Z"/></g></g></svg>