<svg xmlns="http://www.w3.org/2000/svg" viewBox="0 0 23.01 23"><defs><style>.cls-1{fill:#2d3e8e;}</style></defs><title>LINKEDIN</title><g id="Capa_2" data-name="Capa 2"><g id="Capa_1-2" data-name="Capa 1"><path class="cls-1" d="M13.36,23H8.55V8.55h4.81V10.4l.13-.11a5.16,5.16,0,0,1,3.16-2,4.65,4.65,0,0,1,2.91.38,5.58,5.58,0,0,1,3.33,4.08A5.76,5.76,0,0,1,23,13.93v8.81c0,.08,0,.16,0,.25H18.19V14.66a2.49,2.49,0,0,0-1.71-2.46,2.39,2.39,0,0,0-2.76,1.06,2.74,2.74,0,0,0-.36,1.43V23Z"/><path class="cls-1" d="M.5,23V8.55H5.29V23Z"/><path class="cls-1" d="M5.78,2.88A2.89,2.89,0,1,1,0,2.9,2.86,2.86,0,0,1,2.9,0,2.87,2.87,0,0,1,5.78,2.88Z"/></g></g></svg>