<svg xmlns="http://www.w3.org/2000/svg" viewBox="0 0 199.73 73.14"><defs><style>.cls-1{fill:#fff;}.cls-2{fill:#dbfe01;}</style></defs><title>LOG-GO DELIVER</title><g id="Capa_2" data-name="Capa 2"><g id="Capa_1-2" data-name="Capa 1"><path class="cls-1" d="M124.66,40.14c0,.3,0,.64,0,.94,0,2.74,1.45,4.42,4.12,4.42a8.1,8.1,0,0,0,5.77-2.7L137,44.36a10.82,10.82,0,0,1-8.27,3.88c-4.73,0-7.6-2.91-7.6-7.46,0-6.15,4.25-11.25,10.33-11.25,4.66,0,7.46,2.87,7.46,7.33a14.4,14.4,0,0,1-.47,3.28Zm.44-2.37h10.27c0-.37.06-.71.06-1,0-2.84-1.55-4.46-4.08-4.46C128.14,32.27,126,34.7,125.1,37.77Z"/><path class="cls-1" d="M143.42,21.57h3.45L142.21,47.9h-3.44Z"/><polygon class="cls-1" points="148.39 29.87 151.83 29.87 148.62 47.9 145.18 47.9 148.39 29.87"/><path class="cls-1" d="M148.93,24.17a2.33,2.33,0,0,1,2.36-2.37,1.88,1.88,0,0,1,2,2,2.3,2.3,0,0,1-2.33,2.36A1.89,1.89,0,0,1,148.93,24.17Z"/><path class="cls-1" d="M152.44,29.87h3.71L159.39,44l8.31-14.08h3.84l-11,18h-3.45Z"/><path class="cls-1" d="M172.25,40.14c0,.3,0,.64,0,.94,0,2.74,1.45,4.42,4.12,4.42a8.1,8.1,0,0,0,5.77-2.7l2.47,1.56a10.83,10.83,0,0,1-8.28,3.88c-4.72,0-7.59-2.91-7.59-7.46,0-6.15,4.25-11.25,10.33-11.25,4.66,0,7.46,2.87,7.46,7.33a14.4,14.4,0,0,1-.47,3.28Zm.44-2.37H183a9.73,9.73,0,0,0,.07-1c0-2.84-1.55-4.46-4.08-4.46C175.73,32.27,173.57,34.7,172.69,37.77Z"/><path class="cls-1" d="M189.47,29.87h3.34l-.51,2.84c1.66-2.2,4.19-3.18,7.43-3.18l-.57,3.18c-4.12,0-7.09,2.16-7.67,5.23l-1.75,10H186.3Z"/><path class="cls-1" d="M120.42,32.74c0,8.48-6.07,15-14.51,15H96.72l4.43-25h9C116.54,22.75,120.42,26.66,120.42,32.74Zm-3.68.34c0-4.52-2.6-7.36-7.25-7.36h-5.3l-3.35,19h5.3C112.59,44.76,116.74,39.12,116.74,33.08Z"/><path class="cls-1" d="M176.63,58.6H193a2.63,2.63,0,0,0,0-5.26H176.63a2.63,2.63,0,1,0,0,5.26"/><path class="cls-1" d="M158.55,58.6h6.58a2.63,2.63,0,0,0,0-5.26h-6.58a2.63,2.63,0,0,0,0,5.26"/><path class="cls-1" d="M124.08,58.6h24.85a2.63,2.63,0,0,0,0-5.26H124.08a2.63,2.63,0,1,0,0,5.26"/><path class="cls-1" d="M179.33,67.39H183a2.63,2.63,0,0,0,0-5.26h-3.64a2.63,2.63,0,0,0,0,5.26"/><path class="cls-1" d="M148.5,67.39h6.59a2.63,2.63,0,0,0,0-5.26H148.5a2.63,2.63,0,1,0,0,5.26"/><path class="cls-2" d="M91.45,37a16.94,16.94,0,0,1-1.2,8.35c-.25.59-.53,1.16-.83,1.73-5,9.38-12.21,17.21-19.43,25-1.23,1.33-2.72,1.4-3.6.15A115.35,115.35,0,0,1,54.86,52.65,25.85,25.85,0,0,1,52.35,44c-.43-6.31,2.23-11.8,7.25-16.27,5.93-5.26,12.65-7,19.65-5.07S90.18,29.3,91.36,36.35Zm-8.39,3.8a9.67,9.67,0,0,0-9.86-11,13,13,0,0,0-12.39,11,9.56,9.56,0,0,0,9.92,11A12.81,12.81,0,0,0,83.06,40.78Z"/><path class="cls-1" d="M50.67,40.47C49.2,50.89,41,57.9,30.4,57.9c-9.95,0-16.1-5.82-16.1-14.77,0-12.18,9.09-21.22,21.5-21.22,5.49,0,9.61,1.61,12.4,4.17l-6,4.83a10.49,10.49,0,0,0-7-2.13c-7.24,0-12.41,6.67-12.41,13.82,0,5.17,3.13,8.43,8.29,8.43s9.14-2.88,10.42-7.1h-8.1l1.23-6.87H51.09C51,38.15,50.9,39.15,50.67,40.47Z"/><path class="cls-1" d="M24.77,19.07H42.2l3.17-15c.44-2.06-.89-4-2.69-4H28.23a3.6,3.6,0,0,0-3.34,3.07L22.3,15.35C21.9,17.24,23.11,19.07,24.77,19.07Z"/><path class="cls-1" d="M56.56,20.44c-1.22-.55-4.07-1.92-6.75-3h0a2.49,2.49,0,0,1-.5-.24A3,3,0,0,1,49,17a.93.93,0,0,1-.07-1.47,26,26,0,0,1,4.17-2.8c3.58-2,4.53-4.26,2.25-3.92h0S41,10.66,42.24,16.48c0,0-1.28,3,5.85,5.43s6.84,2.77-5,10.86S68.41,25.76,56.56,20.44Z"/><path class="cls-1" d="M60,11a2.17,2.17,0,0,0-2,2c-.08,1,.25,2.33,1.92,4,3.34,3.34,6.2,3.74,6.28,3s-5.47-3-4.94-5.77S60.89,11,60,11Z"/><circle class="cls-1" cx="60.35" cy="4.01" r="4.01"/><path class="cls-1" d="M8.15,40.19h-7A1.11,1.11,0,0,1,0,38.79L.28,37.5A1.8,1.8,0,0,1,2,36.11H9a1.11,1.11,0,0,1,1.12,1.39l-.26,1.29A1.79,1.79,0,0,1,8.15,40.19Z"/><path class="cls-1" d="M19.4,34.31H12.7a1.1,1.1,0,0,1-1.11-1.39l.25-1.29a1.8,1.8,0,0,1,1.68-1.39h6.7a1.1,1.1,0,0,1,1.11,1.39l-.25,1.29A1.8,1.8,0,0,1,19.4,34.31Z"/><path class="cls-1" d="M8.71,34.31H5.64a1.1,1.1,0,0,1-1.11-1.39l.25-1.29a1.8,1.8,0,0,1,1.68-1.39H9.52a1.11,1.11,0,0,1,1.12,1.39l-.26,1.29A1.78,1.78,0,0,1,8.71,34.31Z"/><path class="cls-1" d="M11.52,46.06h-7A1.1,1.1,0,0,1,3.4,44.67l.25-1.29A1.81,1.81,0,0,1,5.33,42h7a1.12,1.12,0,0,1,1.12,1.4l-.26,1.29A1.78,1.78,0,0,1,11.52,46.06Z"/></g></g></svg>