<svg xmlns="http://www.w3.org/2000/svg" viewBox="0 0 253.17 67.21"><defs><style>.cls-1{fill:#fff;}.cls-2{fill:#dbfe01;}</style></defs><title>LOG-PAY AND GO</title><g id="Capa_2" data-name="Capa 2"><g id="Capa_1-2" data-name="Capa 1"><path class="cls-1" d="M81.34,14.11H65a.37.37,0,0,0-.37.36V54.59A.37.37,0,0,0,65,55h8a.36.36,0,0,0,.36-.36V41.46h7.63a15.18,15.18,0,0,0,10.68-3.84,13.55,13.55,0,0,0,4.07-10.1,12.92,12.92,0,0,0-4-9.72A15.14,15.14,0,0,0,81.34,14.11Zm3.81,18.16A6.34,6.34,0,0,1,80.53,34H73.44V21.61h7.09a6.36,6.36,0,0,1,4.59,1.69,6.16,6.16,0,0,1,1.7,4.49A6.14,6.14,0,0,1,85.15,32.27Z"/><path class="cls-1" d="M111,24.33c-4.79,0-8.43,1.11-11.51,3.38-.17.12-.74.58-1,.78a.17.17,0,0,0,0,.23l3.78,5.12s0,0,.06,0,.73-.59.84-.67a9.64,9.64,0,0,1,6-1.87,7,7,0,0,1,4.72,1.48,5.15,5.15,0,0,1,1.62,3.86,34.59,34.59,0,0,0-5.75-.52,15.5,15.5,0,0,0-9.29,2.63,8.75,8.75,0,0,0-3.64,7.19,9.08,9.08,0,0,0,3,6.94,11.31,11.31,0,0,0,7.66,2.62,11.09,11.09,0,0,0,8.23-3.57l.1,2.68a.37.37,0,0,0,.37.35h7.5a.37.37,0,0,0,.37-.36V36.19a11.31,11.31,0,0,0-3.62-8.63A13.71,13.71,0,0,0,111,24.33Zm2.59,23a5.65,5.65,0,0,1-4.09,1.74,4.28,4.28,0,0,1-2.94-.91,3,3,0,0,1-.94-2.38,3,3,0,0,1,1.27-2.46,6.35,6.35,0,0,1,3.73-1,28.18,28.18,0,0,1,4.82.48A7,7,0,0,1,113.58,47.32Z"/><path class="cls-1" d="M158.87,24.77h-9.14a.22.22,0,0,0-.21.14l-6.58,18.9a.13.13,0,0,1-.24,0L134.94,24.9a.21.21,0,0,0-.2-.13h-9.35c-.09,0-.15.08-.11.15l12.89,28.8a.65.65,0,0,1,0,.51,8.49,8.49,0,0,1-2.78,3.87,8.11,8.11,0,0,1-5,1.24H126a.21.21,0,0,0-.21.21V67a.21.21,0,0,0,.21.21h5.51a15.61,15.61,0,0,0,9.23-2.69c2.75-2,5-5.14,6.64-9.44L159,24.92A.11.11,0,0,0,158.87,24.77Z"/><path class="cls-1" d="M178.51,52.82v2.47a.14.14,0,0,1-.09.14A9.38,9.38,0,0,1,175,56a4,4,0,0,1-3.55-1.86A6.14,6.14,0,0,1,166.93,56c-3.4,0-5.74-2.16-5.74-5.39a5.23,5.23,0,0,1,3.47-4.93,4.35,4.35,0,0,1-2.51-4c0-2.89,2.46-4.83,6.14-4.83s6,2,6,4.91v2.64h3.86a.14.14,0,0,1,.14.14V47a.14.14,0,0,1-.14.14h-3.86V51a1.83,1.83,0,0,0,1.83,2,6.26,6.26,0,0,0,2.18-.38A.13.13,0,0,1,178.51,52.82Zm-7.63-2.61v-3.1h-2.59c-2.14,0-3.55,1.21-3.55,3a2.85,2.85,0,0,0,3,2.95C169.42,53.08,170.88,52.24,170.88,50.21Zm-5.16-8.11a2.33,2.33,0,0,0,2.57,2.34h2.59V42.15a2.32,2.32,0,0,0-2.59-2.32A2.29,2.29,0,0,0,165.72,42.1Z"/><path class="cls-2" d="M252.06,52.9,243.8,48a.51.51,0,0,0-.75.56l.57,2.19a46.13,46.13,0,0,1-13.42,1.89l-.3,0h-.33A17.53,17.53,0,0,1,226,52c-4.49-1.51-7.3-5.71-7.3-11.43,0-7.22,4.47-12,11.18-12S241,33.39,241,40.61a13.1,13.1,0,0,1-2.25,7.71l.8-.18h0v0a3.62,3.62,0,0,1,1.11-2.6,3.7,3.7,0,0,1,2.54-1h0a3.6,3.6,0,0,1,1.82.5h0l6.65,3.92a23.53,23.53,0,0,0,1.45-8.27c0-13.07-9.35-21.79-23.28-21.79-6.64,0-12.23,1.95-16.27,5.39-3.67-3.09-9.88-5.39-16.18-5.39a24.81,24.81,0,0,0-12.81,3.24,25.58,25.58,0,0,1,11.42-2.48,25,25,0,0,1,15.44,4.88,1.14,1.14,0,0,1,.07,1.72l-5.89,5.58a1.15,1.15,0,0,1-1.55,0,11,11,0,0,0-7.9-2.72c-6.35,0-10.59,4.68-10.59,11.7s4.18,11.71,10.48,11.71c4.79,0,8.08-2.4,9-6.19h-6.67a1.41,1.41,0,0,1-1.41-1.42V38.22a1.42,1.42,0,0,1,1.41-1.42h17.45A1.29,1.29,0,0,1,217.21,38c0,.91.08,1.81.08,2.74,0,12.49-8.25,21.18-21.24,21.18a26.2,26.2,0,0,1-9.55-1.69,23.05,23.05,0,0,0,9.73,2.14h1.21c6.52,0,11.85-2.19,15.53-6a23.21,23.21,0,0,0,13.77,5.8c7.35,1,18.28-2.11,19.23-2.39l.57,2.22a.51.51,0,0,0,.93.14L252.35,54A.82.82,0,0,0,252.06,52.9Z"/><path class="cls-2" d="M12.26,15.54v7.25a1.44,1.44,0,0,0,1.43,1.43h8.69V15.54A1.43,1.43,0,0,0,21,14.11H13.69A1.44,1.44,0,0,0,12.26,15.54Z"/><path class="cls-2" d="M52.73,32.91V25.65a1.43,1.43,0,0,0-1.43-1.43H42.9a.28.28,0,0,1-.29-.28v-8.4a1.43,1.43,0,0,0-1.43-1.43H33.93a1.43,1.43,0,0,0-1.43,1.43v8.4a.28.28,0,0,1-.29.28H22.38V34.34h9.83a.29.29,0,0,1,.29.28v4.76A15.19,15.19,0,0,0,47.69,54.57H51.3a1.43,1.43,0,0,0,1.43-1.43V45.89a1.43,1.43,0,0,0-1.43-1.43H47.65a5,5,0,0,1-5-5v-4.8a.29.29,0,0,1,.29-.28h8.4A1.43,1.43,0,0,0,52.73,32.91Z"/><path class="cls-2" d="M13.69,44.46H21A1.43,1.43,0,0,0,22.38,43V34.34H13.69a1.44,1.44,0,0,0-1.43,1.43V43A1.44,1.44,0,0,0,13.69,44.46Z"/><path class="cls-2" d="M50.69,3.54a1.49,1.49,0,0,0-.44-1.06A1.45,1.45,0,0,0,49.19,2H40.85a2,2,0,0,1-2-2H49.19a3.55,3.55,0,0,1,3.54,3.54V14.11h0a2,2,0,0,1-2-2Z"/><path class="cls-2" d="M3.63,2.14A1.5,1.5,0,0,0,2.14,3.63V12a2,2,0,0,1-2,2h0V3.63A3.52,3.52,0,0,1,3.63.1H14.21a2,2,0,0,1-2,2Z"/><path class="cls-2" d="M2,51a1.44,1.44,0,0,0,.44,1.05,1.45,1.45,0,0,0,1.06.44h8.33a2,2,0,0,1,2,2H3.54A3.53,3.53,0,0,1,0,51V40.46H0a2,2,0,0,1,2,2Z"/><path class="cls-2" d="M8.22,10.07v18.2h18.2V10.07Zm1,1H25.43V27.27H9.22Z"/></g></g></svg>