<svg xmlns="http://www.w3.org/2000/svg" viewBox="0 0 247.89 59.42"><defs><style>.cls-1{fill:#fff;}.cls-2{fill:#dbfe00;}</style></defs><title>LOG-DIRECTORIO</title><g id="Capa_2" data-name="Capa 2"><g id="Capa_1-2" data-name="Capa 1"><path class="cls-1" d="M155.94,37.79a17.78,17.78,0,0,1-6.7,1.22c-4.84,0-8.12-3.32-8.12-8.31V17.6h-4.35V12.17h4.35V4.45h6.65v7.72h7.78V17.6h-7.78V29.33c0,2.4,1.47,4,3.62,4a11.51,11.51,0,0,0,4.55-.88Z"/><path class="cls-1" d="M203.36,11.68l-.44,6.11c-5.47,0-9.09,2.64-9.09,6.6V38.52h-6.65V12.17h6.41l.09,3.52C195.78,13.1,199.11,11.68,203.36,11.68Z"/><path class="cls-1" d="M136.73,51.89c0-4.47,3-7.44,7.52-7.44a7.23,7.23,0,0,1,5.62,2.36l-1.32,1.34a5.35,5.35,0,0,0-4.24-2c-3.25,0-5.4,2.29-5.4,5.71s2.17,5.8,5.38,5.8a5.27,5.27,0,0,0,4.59-2.45l1.44,1.3a7.28,7.28,0,0,1-6,2.88A7.13,7.13,0,0,1,136.73,51.89Z"/><path class="cls-1" d="M150.63,54a5.49,5.49,0,0,1,11,0,5.49,5.49,0,0,1-11,0Zm8.89,0c0-2.22-1.36-3.72-3.39-3.72s-3.41,1.5-3.41,3.72,1.36,3.73,3.41,3.73S159.52,56.19,159.52,54Z"/><path class="cls-1" d="M179.34,52.6v6.62h-2V53a2.59,2.59,0,1,0-5.18,0v6.26h-2V53A2.58,2.58,0,1,0,165,53v6.26h-2V48.7h1.93l0,1.44a3.78,3.78,0,0,1,3.29-1.63,3.71,3.71,0,0,1,3.39,1.87,4.22,4.22,0,0,1,7.72,2.22Z"/><path class="cls-1" d="M190.75,54.69h-8c.19,1.91,1.2,3.14,3,3.14a3.75,3.75,0,0,0,3-1.54l1.53.83a5.31,5.31,0,0,1-4.53,2.3c-3.09,0-5.18-2.17-5.18-5.42s2-5.49,5.1-5.49,5.08,2.12,5.08,5.32A8,8,0,0,1,190.75,54.69Zm-8-1.38h6c-.18-2-1.28-3.21-3-3.21S182.9,51.32,182.73,53.31Z"/><path class="cls-1" d="M198.07,48.51l-.13,1.85c-2.39,0-3.85,1.18-3.85,3v5.89h-2V48.7H194l0,1.58A4.59,4.59,0,0,1,198.07,48.51Z"/><path class="cls-1" d="M197.5,54A5.18,5.18,0,0,1,203,48.51a5.54,5.54,0,0,1,3.5,1.18l-1.14,1.38a3.49,3.49,0,0,0-2.34-.83A3.4,3.4,0,0,0,199.59,54a3.41,3.41,0,0,0,3.47,3.73,3.53,3.53,0,0,0,2.64-1L206.86,58a5.51,5.51,0,0,1-3.9,1.42A5.16,5.16,0,0,1,197.5,54Z"/><path class="cls-1" d="M207.59,45.25a1.25,1.25,0,1,1,1.26,1.27A1.22,1.22,0,0,1,207.59,45.25Zm.25,3.45h2V59.22h-2Z"/><path class="cls-1" d="M211.21,54a5.49,5.49,0,0,1,11,0,5.49,5.49,0,0,1-11,0Zm8.89,0c0-2.22-1.36-3.72-3.39-3.72s-3.41,1.5-3.41,3.72,1.36,3.73,3.41,3.73S220.1,56.19,220.1,54Z"/><path class="cls-1" d="M223,58.26l.79-1.24a5.43,5.43,0,0,0,3,.82c1.25,0,2.07-.57,2.07-1.43s-.84-1.28-2-1.62l-1-.27c-1.71-.48-2.9-1.13-2.9-2.76,0-1.95,1.58-3.25,3.92-3.25a6.61,6.61,0,0,1,3.77,1l-.87,1.34A5.12,5.12,0,0,0,227,50.1c-1.18,0-2,.53-2,1.36s.75,1.16,1.77,1.46l1,.28c1.69.45,3.13,1.28,3.13,3s-1.63,3.17-4.16,3.17A5.81,5.81,0,0,1,223,58.26Z"/><path class="cls-1" d="M39.32,2.39H25.16V8.08H39.32c6.38,0,10.61,4.92,10.61,12.31S45.7,32.7,39.32,32.7H33l-5.13,5.7H39.32c10.66,0,17.76-7.21,17.76-18S50,2.39,39.32,2.39Z"/><path class="cls-1" d="M171.58,11.68c-8.45,0-14.12,5.48-14.12,13.64a13.55,13.55,0,0,0,3.67,9.7l8.65,11.66a2.21,2.21,0,0,0,3.55,0L182,35a13.53,13.53,0,0,0,3.67-9.7C185.66,17.16,180,11.68,171.58,11.68Zm0,21.7a8.06,8.06,0,1,1,8.06-8.06A8.06,8.06,0,0,1,171.56,33.38Z"/><path class="cls-1" d="M59.53,4A3.94,3.94,0,1,1,67.4,4a3.94,3.94,0,0,1-7.87,0Zm.63,8.21h6.65V38.52H60.16Z"/><path class="cls-1" d="M87.29,11.68l-.44,6.11c-5.47,0-9.09,2.64-9.09,6.6V38.52H71.11V12.17h6.41l.09,3.52C79.72,13.1,83,11.68,87.29,11.68Z"/><path class="cls-1" d="M112.08,27.72H93c.48,3.71,2.44,6.06,6.3,6.06a8.19,8.19,0,0,0,6.46-3.13l5.13,2.59A13.51,13.51,0,0,1,99.42,39C91.35,39,86,33.63,86,25.52c0-8.31,5.23-13.84,13.15-13.84S112.28,17,112.28,24.93A23.6,23.6,0,0,1,112.08,27.72ZM93,23.22h12.27c-.49-4-2.59-6.31-6.16-6.31S93.55,19.21,93,23.22Z"/><path class="cls-1" d="M113.4,25.32c0-8.16,5.67-13.64,14.18-13.64a14.57,14.57,0,0,1,9,3l-3.77,4.5a7.54,7.54,0,0,0-5.18-1.85c-4.4,0-7.38,3.17-7.38,8s2.93,8,7.43,8a7.77,7.77,0,0,0,6-2.34l3.77,4.4a13.9,13.9,0,0,1-10,3.66C119,39,113.4,33.54,113.4,25.32Z"/><path class="cls-1" d="M204.1,4A3.94,3.94,0,1,1,212,4a3.94,3.94,0,0,1-7.87,0Zm.63,8.21h6.65V38.52h-6.65Z"/><path class="cls-2" d="M.67,17.18,12,25.38a1.63,1.63,0,0,1,.66,1.43L11.4,42.58a1.61,1.61,0,0,0,2.79,1.21L38.51,17a1.6,1.6,0,0,0-1.19-2.68H1.61A1.6,1.6,0,0,0,.67,17.18Z"/><circle class="cls-2" cx="228.2" cy="25.32" r="5.07"/><path class="cls-1" d="M219.55,14.28a14,14,0,1,0,19.69,2.43A14,14,0,0,0,219.55,14.28ZM223.24,19a8.06,8.06,0,1,1-1.4,11.31A8.06,8.06,0,0,1,223.24,19Z"/><path class="cls-1" d="M247.22,44.59l-4.56-5.86a3.17,3.17,0,0,0-3.08-1.17L234.46,31l-2.36,1.83,5.13,6.57a3.16,3.16,0,0,0,.39,3.27l4.55,5.86a3.19,3.19,0,0,0,4.49.56h0A3.21,3.21,0,0,0,247.22,44.59Z"/></g></g></svg>