<svg xmlns="http://www.w3.org/2000/svg" viewBox="0 0 264.42 53.79"><defs><style>.cls-1{fill:#fff;}.cls-2{fill:#dbfe01;}</style></defs><title>LOG-GO OFFERS</title><g id="Capa_2" data-name="Capa 2"><g id="Capa_1-2" data-name="Capa 1"><path class="cls-1" d="M114.39,22.89c-2.78,0-4.71,3-4.71,5.63,0,2,.8,2.79,2.78,2.79,2.68,0,4.55-3,4.55-5.63C117,23.23,115.75,22.89,114.39,22.89Z"/><path class="cls-1" d="M133,.05a25.69,25.69,0,0,0-18.54,7.48l1.15,0a21,21,0,0,1,10.73,2.65A12.32,12.32,0,0,1,131.7,9c6.15,0,9.83,3.84,9.83,10s-3.62,12.16-9.1,14.25a21.51,21.51,0,0,1-4.92,7.28,22.35,22.35,0,0,1-3,2.42c.71.05,1.44.08,2.18.08,14.75,0,25.58-10.9,25.58-25.34C152.29,6.89,144.91.05,133,.05Z"/><path class="cls-1" d="M193.53,13.52h-7.62l.54-2.95a5.12,5.12,0,0,1,5.26-4.24,11.11,11.11,0,0,1,3.59.48l1-5.47A14.49,14.49,0,0,0,189.94.05a10.29,10.29,0,0,0-10.52,8.86l-.8,4.61H166.76l.53-2.95a5.12,5.12,0,0,1,5.26-4.24,11.21,11.21,0,0,1,3.6.48l1-5.47A14.49,14.49,0,0,0,170.78.05a10.3,10.3,0,0,0-10.52,8.86l-.8,4.61h-4.67l-1.07,6h4.67l-4,23h7.3l4.08-23h11.8l-4,23h7.3l4.07-23h7.62Z"/><path class="cls-1" d="M207.06,13c-9.77,0-16.85,8-16.85,17.86C190.21,38.26,195.09,43,203,43a17.34,17.34,0,0,0,13.31-6.12l-5.26-3.22a11.57,11.57,0,0,1-8,3.6c-3.54,0-5.47-2.15-5.47-5.69v-1h21a21.57,21.57,0,0,0,.91-5.69C219.56,17.65,214.89,13,207.06,13Zm5.09,12.66H198.58c1.39-3.92,4.18-6.92,8.37-6.92,3.27,0,5.26,2,5.26,5.9A6.17,6.17,0,0,1,212.15,25.65Z"/><path class="cls-1" d="M242.47,13c-4.72,0-8.58,1.34-11.32,4.23l.64-3.7h-7l-5.09,28.93H227l2.69-15.3c.8-4.29,5.58-7.46,11.59-7.46Z"/><path class="cls-1" d="M254.49,25.33l-2.31-.7C250,24,248.59,23.45,248.59,22c0-2,2.63-3.22,5.63-3.22a11.92,11.92,0,0,1,6.66,1.77L264.42,16c-2.58-1.93-6.12-3-10.68-3C246.66,13,241,17.39,241,23.4c0,3.91,3,5.84,7.14,6.76l2.36.59c2.58.59,4.13,1.39,4.13,3,0,2.09-2.63,3.49-5.58,3.49a13.31,13.31,0,0,1-7.78-2l-3.11,4.14c2.3,2.3,6.06,3.59,10.73,3.59,7.3,0,13.2-3.86,13.2-10.19C262.11,28.6,258.68,26.56,254.49,25.33Z"/><path class="cls-2" d="M96.23,29.89c0-10.82,8.32-18.79,19.47-18.79,9.23,0,14.92,5.18,14.92,13.32,0,10.82-8.26,18.85-19.41,18.85C102,43.27,96.23,38,96.23,29.89Zm24.43-4.16c0-3.93-2.34-6.37-6.21-6.37-4.84,0-8.31,4.55-8.31,9.22,0,3.93,2.39,6.37,6.38,6.37C117.24,35,120.66,30.4,120.66,25.73Z"/><path class="cls-2" d="M77.62,18.22l-1.48,8.25h9.73C84.34,31.54,79.38,35,73.35,35c-6.21,0-10-3.93-10-10.13,0-8.6,6.2-16.63,14.91-16.63,3.47,0,6.38.8,8.43,2.57L94,5C90.6,1.94,85.65,0,79,0A26.92,26.92,0,0,0,65.13,3.7H53.26a3.26,3.26,0,0,0-3,2.47l-.45,2.28a2,2,0,0,0,2,2.47H57.5A25.9,25.9,0,0,0,53.2,25.5c0,10.76,7.4,17.77,19.35,17.77,12.7,0,22.6-8.43,24.37-21,.28-1.6.4-2.79.51-4.1Z"/><path class="cls-2" d="M41.85,10.92H36.46a2,2,0,0,1-2-2.47l.46-2.28a3.24,3.24,0,0,1,3-2.47h5.39a2,2,0,0,1,2,2.47l-.46,2.28A3.19,3.19,0,0,1,41.85,10.92Z"/><path class="cls-1" d="M27.84,31.24a2.36,2.36,0,0,0-1.12,3.08,1.56,1.56,0,0,0,2.19.93A2.32,2.32,0,0,0,30,32.19,1.53,1.53,0,0,0,27.84,31.24Z"/><path class="cls-1" d="M15.77,36.12a2.35,2.35,0,0,0-1.12,3.08,1.56,1.56,0,0,0,2.19.93,2.34,2.34,0,0,0,1.08-3.06A1.53,1.53,0,0,0,15.77,36.12Z"/><path class="cls-1" d="M66.83,21.91a1.25,1.25,0,0,0-1.78,0,13.3,13.3,0,0,1-3.4,2.38,22.69,22.69,0,0,1-6.29,1.94,38.62,38.62,0,0,1-4.91.48,5.35,5.35,0,0,0-2.33-5.18c-1.91-1.37-3.92-2.61-5.9-3.9-1.3-.86-2.6-1.69-3.9-2.55a3.5,3.5,0,0,0-3.4-.37Q18.65,20.93,2.35,27.14A3.26,3.26,0,0,0,0,30.29a3.94,3.94,0,0,0,.3,1.47Q4,41.57,7.75,51.37a3.33,3.33,0,0,0,4.59,2.14l2.74-1h0l5.61-2.14,3.77-1.43,10.92-4.15,2.17-.84L41,42.59c.56-.21,1.92-.73,3-1.15a3.54,3.54,0,0,0,2-1.85l2.57-5.65,0,0c.44-1.45.93-2.85,1.29-4.28l.12-.49a36.5,36.5,0,0,0,8.21-1,23.11,23.11,0,0,0,4.61-1.67,15.91,15.91,0,0,0,4-2.83A1.25,1.25,0,0,0,66.83,21.91ZM17.34,42.29c-2.24.91-4.18.2-5-1.79A4.93,4.93,0,0,1,15.26,34c2.26-.91,4.16-.2,5,1.79A4.91,4.91,0,0,1,17.34,42.29Zm3,3.47,1.82-19.1,2.27-.91L22.66,44.81Zm9.11-8.35c-2.24.91-4.18.2-5-1.79a4.9,4.9,0,0,1,2.91-6.52c2.25-.92,4.16-.21,5,1.78A4.9,4.9,0,0,1,29.41,37.41Zm12-8.75h0s1.3.22,3.31.39a3.52,3.52,0,1,1,.35-2.5l-1.21-.11c-.64-.06-1.15-.13-1.5-.18l-.39-.06-.1,0h0a1.26,1.26,0,0,0-.43,2.48Z"/><path class="cls-2" d="M47.31,23h-5.4a2,2,0,0,1-2-2.47l.45-2.27a3.25,3.25,0,0,1,3-2.47h5.4a2,2,0,0,1,2,2.47l-.45,2.27A3.18,3.18,0,0,1,47.31,23Z"/></g></g></svg>