<svg xmlns="http://www.w3.org/2000/svg" viewBox="0 0 252.5 73.14"><defs><style>.cls-1{fill:#fff;}.cls-2{fill:#dbfe01;}</style></defs><title>LOG-SMART MENU</title><g id="Capa_2" data-name="Capa 2"><g id="Capa_1-2" data-name="Capa 1"><path class="cls-1" d="M33.35,57.68V39.82H15.48a5.78,5.78,0,0,0-4,1.67h0a5.75,5.75,0,0,0-1.67,4h0V57.68h0a5.75,5.75,0,0,0,1.67,4h0a5.78,5.78,0,0,0,4,1.67h12.1a5.81,5.81,0,0,0,4.05-1.67h0a5.63,5.63,0,0,0,1.72-4Zm-6.84-1.46v.4H16.6v-10h9.91Z"/><polygon class="cls-1" points="60.52 33.24 60.47 33.24 60.47 33.24 60.52 33.24"/><path class="cls-1" d="M61.63,28.64V16.5h0A5.79,5.79,0,0,0,60,12.45h0a5.79,5.79,0,0,0-4.05-1.67H43.77a5.79,5.79,0,0,0-4.05,1.67h0a5.79,5.79,0,0,0-1.67,4.05h0V34.36H56a5.79,5.79,0,0,0,4-1.67h0a6,6,0,0,0,1.62-4ZM54.8,27.53h-10V17.61h9.92v9.92Z"/><path class="cls-1" d="M19,0H6.68A6.33,6.33,0,0,0,.35,6.33v13a1.37,1.37,0,0,0,1.37,1.37,1.29,1.29,0,0,0,1-.41,1.4,1.4,0,0,0,.41-1V6.33h0A3.56,3.56,0,0,1,6.63,2.78H19a1.32,1.32,0,0,0,1-.4,1.39,1.39,0,0,0,.4-1A1.41,1.41,0,0,0,19,0Z"/><path class="cls-1" d="M45.44,56.27H56.67V39.72H40.48a1.27,1.27,0,0,0,0,2.53H54.14V53.69h-8.7a1.29,1.29,0,0,0,0,2.58Z"/><path class="cls-1" d="M19.94,69.58a1.37,1.37,0,0,0-1-.41H6.68a3.55,3.55,0,0,1-3.54-3.54V52.68a1.3,1.3,0,0,0-.41-1,1.36,1.36,0,0,0-2.33,1V65.63A6.33,6.33,0,0,0,6.73,72H19a1.32,1.32,0,0,0,1-.4,1.41,1.41,0,0,0,0-2Z"/><path class="cls-1" d="M51.16,71.5a1.37,1.37,0,0,0,1,.4H64.41a6.32,6.32,0,0,0,6.33-6.32v-13a1.29,1.29,0,0,0-.41-1,1.37,1.37,0,0,0-1-.4A1.36,1.36,0,0,0,68,52.62v13a3.55,3.55,0,0,1-3.54,3.54H52.17a1.26,1.26,0,0,0-1,.41,1.34,1.34,0,0,0-.41,1A1.13,1.13,0,0,0,51.16,71.5Z"/><path class="cls-1" d="M50.4,46.75H39.16v9.52a1.27,1.27,0,0,0,2.53,0V49.34H50.4a1.3,1.3,0,0,0,0-2.59Z"/><path class="cls-1" d="M61.63,41a1.27,1.27,0,1,0-2.53,0v3.79a1.27,1.27,0,1,0,2.53,0Z"/><path class="cls-1" d="M58.85,63.45a2.65,2.65,0,0,0,2-1h0a3.31,3.31,0,0,0,.76-2.07v-8.3a1.27,1.27,0,1,0-2.53,0v.4h0v7.9h0a.37.37,0,0,1-.05.25l-.1.25h-6a1.27,1.27,0,1,0,0,2.53h5.92Z"/><path class="cls-1" d="M45.74,60.92H40.43a1.27,1.27,0,1,0,0,2.53h5.31a1.27,1.27,0,1,0,0-2.53Z"/><path class="cls-2" d="M70.13,36.13H1.47c-.81,0-1.47.45-1.47,1s.66,1,1.47,1H70.13c.81,0,1.47-.45,1.47-1S70.94,36.13,70.13,36.13Z"/><path class="cls-1" d="M192.79,28.89c-5.72,0-10.68,2.13-13.92,6.18l-.15-5.37H168.35V47.16l-7,2.28a13.21,13.21,0,0,1-3.79,11c-4.4,4.4-9.36,3.94-14.17.3l21.81-21.86a35.29,35.29,0,0,0-3-3.39c-9.11-9.11-21.21-9.11-30.21-.1a23.85,23.85,0,0,0-5,7.24l-2.53-41.5A1.21,1.21,0,0,0,123.31,0h-14a1.1,1.1,0,0,0-1.07.71l-19,44.53-6-14.07a1.16,1.16,0,1,0-2.13.91l7.09,16.6a1.23,1.23,0,0,0,1.06.71,1.1,1.1,0,0,0,1.06-.71L110.16,2.33H122.3l4.15,67.25H110.51L109,46.7a1.13,1.13,0,0,0-1-1.06,1.18,1.18,0,0,0-1.26.66L96.34,69.63H82.48L75.34,53.89a1.15,1.15,0,1,0-2.12.91h0l7.44,16.39a1.21,1.21,0,0,0,1.06.71H97.05a1.13,1.13,0,0,0,1.06-.71L107,51.51l1.16,19.28a1.2,1.2,0,0,0,1.17,1.11h18.26a1.42,1.42,0,0,0,.86-.35,1.11,1.11,0,0,0,.31-.86L128.07,60a26.36,26.36,0,0,0,4.71,6.23c9.26,9.26,21.6,9.26,30.81,0a26.12,26.12,0,0,0,4.71-6.48V72.31h10.78V47.21c0-5.52,3.94-9.16,10-9.16s10,3.64,10,9.16v25.1h10.78V45.49C209.79,35.52,203,28.89,192.79,28.89ZM138,41.34c4.1-4.1,9.11-3.85,14.27.15l-14,14C134.29,50.35,134,45.34,138,41.34Z"/><path class="cls-1" d="M241.72,29.65v25.1c0,5.46-3.64,9.11-9.11,9.11s-9.26-3.65-9.26-9.11V29.65H212.57V56.37c0,10.07,6.58,16.7,16.19,16.7a16.08,16.08,0,0,0,13.11-6l.25,5.26H252.5V29.65Z"/><path class="cls-1" d="M140.47,21.86,142,19.08A9.13,9.13,0,0,0,148,21.15c2.73,0,4.35-1,4.35-2.63s-1.82-2.53-4.56-3.29l-1.21-.35c-3.59-1-6.28-2.48-6.28-6,0-4,3.19-6.63,8.1-6.63a11.41,11.41,0,0,1,7.39,2.53l-1.87,2.88a8.24,8.24,0,0,0-5.47-1.92c-2.28,0-3.79,1-3.79,2.53,0,1.72,1.72,2.38,3.89,3l1.27.36c3.34.91,6.93,2.73,6.93,6.68s-3.34,6.47-8.35,6.47A12.28,12.28,0,0,1,140.47,21.86Z"/><path class="cls-1" d="M190.87,14.32v10h-4V15a3.27,3.27,0,1,0-6.53,0v9.36h-4V15a3.26,3.26,0,1,0-6.52,0v9.36h-4V8.4h3.84l.05,1.87a5.71,5.71,0,0,1,4.76-2.17,5.58,5.58,0,0,1,4.81,2.37,6.14,6.14,0,0,1,5.11-2.37C188.28,8.15,190.87,10.63,190.87,14.32Z"/><path class="cls-1" d="M213.79,14.32v10h-3.85l-.1-2.28A5.65,5.65,0,0,1,205,24.59c-3.29,0-5.51-2-5.51-4.91s2.73-5.06,6.78-5.06a16.62,16.62,0,0,1,3.49.36v-.31c0-2.12-1.42-3.39-3.85-3.39a5.54,5.54,0,0,0-3.69,1.27l-1.72-2.38A9.73,9.73,0,0,1,207,8.1C211.05,8.15,213.79,10.58,213.79,14.32Zm-4,3.34a15.86,15.86,0,0,0-3-.3c-1.87,0-3.08.86-3.08,2.22s.86,2.18,2.48,2.18C208,21.76,209.74,20.29,209.79,17.66Z"/><path class="cls-1" d="M233.32,8.15l-.25,3.69c-3.29,0-5.47,1.57-5.47,4v8.5h-4V8.4h3.85l.05,2.12A7.17,7.17,0,0,1,233.32,8.15Z"/><path class="cls-1" d="M251.54,20.65v3.23a10.65,10.65,0,0,1-4,.76,4.7,4.7,0,0,1-4.91-5V11.69H240V8.4h2.63V3.74h4V8.4h4.7v3.29h-4.7v7.08a2.13,2.13,0,0,0,2.17,2.38A7.68,7.68,0,0,0,251.54,20.65Z"/><path class="cls-1" d="M78.84,20.59,70.23.86A1.23,1.23,0,0,0,69.17.15H51a1.15,1.15,0,0,0-1.16,1.17h0A1.15,1.15,0,0,0,51,2.48H68.41l8.3,19a1.15,1.15,0,1,0,2.13-.86Z"/><path class="cls-1" d="M31.68,12.45h0a5.81,5.81,0,0,0-4.05-1.67H15.48a5.78,5.78,0,0,0-4,1.67h0A5.75,5.75,0,0,0,9.77,16.5h0V28.64h0a5.75,5.75,0,0,0,1.67,4h0a5.78,5.78,0,0,0,4,1.67H33.35V16.5h0A5.79,5.79,0,0,0,31.68,12.45ZM26.51,27.53H16.6V17.61h9.91Z"/></g></g></svg>