<svg xmlns="http://www.w3.org/2000/svg" viewBox="0 0 223.11 73.14"><defs><style>.cls-1{fill:#fff;}.cls-2{fill:#dbfe01;}</style></defs><title>LOG-CITAS Y RESERVAS</title><g id="Capa_2" data-name="Capa 2"><g id="Capa_1-2" data-name="Capa 1"><path class="cls-1" d="M56.16,28.72a3,3,0,0,0,3-3V19.77a3,3,0,1,0-6,0v6A3,3,0,0,0,56.16,28.72Z"/><path class="cls-1" d="M78.75,28.61a3,3,0,0,0,3-3v-6a3,3,0,0,0-6,0v6A3,3,0,0,0,78.75,28.61Z"/><path class="cls-1" d="M95,33.34H52.34c-.22.7-.48,1.36-.77,2.06H92.83l.26,9.83V67.16a4,4,0,0,1-3.93,3.92H45.89A4,4,0,0,1,42,67.16V48.09c-.66.47-1.32,1-2.05,1.43V67.16a6,6,0,0,0,6,6H89.13a6,6,0,0,0,6-6v-24Z"/><path class="cls-1" d="M95.14,28.1a6,6,0,0,0-6-6H82.93v3.59a4.22,4.22,0,0,1-8.44,0V22.12H60.3v3.7A4.25,4.25,0,0,1,56.08,30,4.34,4.34,0,0,1,53.26,29c-.11.77-.26,1.46-.44,2.23H95.14V28.1Z"/><path class="cls-2" d="M49.74,24.91A24.87,24.87,0,1,0,24.8,49.66,24.88,24.88,0,0,0,49.74,24.91ZM35.32,41.52a20,20,0,0,0-1.06-1.76c-.11-.15-.29-.33-.44-.33a.88.88,0,0,0-.7.22,1,1,0,0,0,0,.73c.3.63.66,1.18,1,1.84l-1.25.66a20.83,20.83,0,0,1-6.45,1.68c-.29,0-.29-.11-.29-.29V42a1.24,1.24,0,0,0-.74-1.21,1.35,1.35,0,0,0-1.28.11,1.16,1.16,0,0,0-.48.92c0,.77,0,1.47,0,2.24,0,.4-.11.47-.47.44A19.76,19.76,0,0,1,16,42.47a1,1,0,0,0-.29-.14c.33-.59.7-1.18,1-1.76s.11-1-.41-1.07a.71.71,0,0,0-.77.44c-.29.55-.66,1.1-1,1.73a19.22,19.22,0,0,1-6-5.8l2-1.17a2.16,2.16,0,0,0,.77-.7,1.21,1.21,0,0,0-.18-1.43,1.23,1.23,0,0,0-1.47-.26,16.45,16.45,0,0,0-1.5.88l-.88.48a19.65,19.65,0,0,1-2-8h1c.44,0,.88,0,1.28,0a.63.63,0,0,0,0-1.25c-.58,0-1.17,0-1.76,0H5.28a19.5,19.5,0,0,1,2-8.11c.66.33,1.21.7,1.8,1a1.78,1.78,0,0,0,.55.29,1.26,1.26,0,0,0,1.24-2.2c-.66-.4-1.32-.77-2-1.17a1.18,1.18,0,0,0-.3-.15,20.06,20.06,0,0,1,5.95-5.8c.33.59.69,1.18,1,1.76a.71.71,0,0,0,1,.37c.33-.18.4-.59.18-1s-.66-1.13-1-1.76a20.34,20.34,0,0,1,8-2.31,2.8,2.8,0,0,1,0,.48c0,.77,0,1.5,0,2.27a1.24,1.24,0,0,0,2.46,0c0-.73,0-1.46,0-2.2V5.25a18.94,18.94,0,0,1,8,2.23c-.33.66-.7,1.21-1,1.8s-.07,1,.41,1a.77.77,0,0,0,.77-.41c.29-.58.66-1.1,1-1.76a19.46,19.46,0,0,1,6,5.84c-.7.4-1.36.77-2,1.17a2.17,2.17,0,0,0-.73.66,1.23,1.23,0,0,0,.15,1.47,1.18,1.18,0,0,0,1.43.29c.55-.26,1.06-.59,1.57-.88.26-.15.55-.29.85-.44a19.46,19.46,0,0,1,2,8H43.06c-.26,0-.48,0-.73,0a.53.53,0,0,0-.48.66c0,.33.18.63.59.63.73,0,1.43,0,2.2,0a19.83,19.83,0,0,1-2,8.14c-.66-.37-1.25-.74-1.91-1.1a1.6,1.6,0,0,0-1.39-.3,1.23,1.23,0,0,0-.88,1,1.14,1.14,0,0,0,.48,1.22c.69.4,1.35.84,2,1.21a1.58,1.58,0,0,1,.33.22A25.63,25.63,0,0,1,35.32,41.52Z"/><path class="cls-1" d="M34.44,17.83c-2.68,1.46-5.35,3-8,4.43a.71.71,0,0,1-.55,0,3.17,3.17,0,0,0-2,0,.64.64,0,0,1-.47,0C22.15,21.6,21,21,19.81,20.32c-1.51-.88-3.08-1.72-4.62-2.57a1.62,1.62,0,0,0-1.87.22A1.55,1.55,0,0,0,13,19.81a2.24,2.24,0,0,0,1.17,1c2.57,1.43,5.21,2.9,7.81,4.33a.79.79,0,0,1,.33.48,2.91,2.91,0,0,0,3,1.87,2.31,2.31,0,0,0,2-1.47,2,2,0,0,1,1.25-1.24c.18-.08.33-.19.55-.3L36,20.65a2.56,2.56,0,0,0,.7-.59,1.64,1.64,0,0,0-.08-2A1.82,1.82,0,0,0,34.44,17.83Z"/><path class="cls-2" d="M133.8,24.36A2.16,2.16,0,0,1,136,22.12a2.22,2.22,0,0,1,0,4.44A2.18,2.18,0,0,1,133.8,24.36Z"/><path class="cls-1" d="M128,70.39l-5.43-8.29h-5.8v8.29h-2.09V50h7.52c4.15,0,6.82,2.38,6.82,6a5.73,5.73,0,0,1-4.36,5.69l5.79,8.66Zm-11.19-10H122c2.94,0,5-1.72,5-4.29s-1.94-4.29-5-4.29h-5.17Z"/><path class="cls-1" d="M145,63.82H133.4c.22,3.15,1.94,5.25,4.84,5.25a5.76,5.76,0,0,0,4.69-2.46l1.51.84a7.25,7.25,0,0,1-6.2,3.23c-4.18,0-7-3-7-7.56s2.75-7.52,6.9-7.52S145,58.54,145,63A3,3,0,0,1,145,63.82ZM133.4,62.46H143c-.15-3.26-2-5.28-4.77-5.28S133.58,59.16,133.4,62.46Z"/><path class="cls-1" d="M146.79,69.14l.8-1.25a7,7,0,0,0,4.22,1.18c2.05,0,3.45-1,3.45-2.43s-1.29-2.12-3-2.64l-1.57-.47c-2.28-.63-3.85-1.54-3.85-3.74,0-2.53,2-4.26,5.13-4.26a9,9,0,0,1,5,1.32L156,58.21a7.24,7.24,0,0,0-4-1.06c-1.95,0-3.23.91-3.23,2.31s1.14,1.94,2.71,2.38l1.58.48c2.2.62,4.22,1.68,4.22,4.1s-2.13,4.22-5.47,4.22A7.37,7.37,0,0,1,146.79,69.14Z"/><path class="cls-1" d="M172.79,63.82H161.16c.22,3.15,2,5.25,4.84,5.25a5.77,5.77,0,0,0,4.7-2.46l1.5.84a7.24,7.24,0,0,1-6.2,3.23c-4.18,0-7-3-7-7.56s2.75-7.52,6.89-7.52,6.86,2.94,6.86,7.38Zm-11.63-1.36h9.61c-.14-3.26-2-5.28-4.77-5.28S161.38,59.16,161.16,62.46Z"/><path class="cls-1" d="M183.13,55.57l-.14,1.8c-3.56,0-5.58,1.76-5.58,4.58v8.44h-2V55.86h1.94l0,2.42C178.4,56.49,180.35,55.57,183.13,55.57Z"/><path class="cls-1" d="M182.73,55.86h2.16l5.32,12.25,5.32-12.25h2.16L191.2,70.39h-2Z"/><path class="cls-1" d="M209.91,61.25v9.14H208l0-3a5.82,5.82,0,0,1-5.39,3.34c-2.87,0-4.77-1.65-4.77-4.26S200.11,62,203.71,62a16.85,16.85,0,0,1,4.25.51v-1a4,4,0,0,0-4.36-4.33,5.33,5.33,0,0,0-4,1.62l-.92-1.21a7.23,7.23,0,0,1,5.36-2C207.6,55.57,209.91,57.81,209.91,61.25Zm-2,2.64a18.9,18.9,0,0,0-4-.47c-2.46,0-4.15,1.17-4.15,2.93s1.25,2.79,3.27,2.79A5,5,0,0,0,207.93,63.89Z"/><path class="cls-1" d="M212.55,69.14l.81-1.25a7,7,0,0,0,4.21,1.18c2.06,0,3.45-1,3.45-2.43s-1.28-2.12-3-2.64l-1.58-.47c-2.27-.63-3.85-1.54-3.85-3.74,0-2.53,2-4.26,5.13-4.26a9,9,0,0,1,4.95,1.32l-.84,1.36a7.24,7.24,0,0,0-4-1.06c-1.94,0-3.23.91-3.23,2.31s1.14,1.94,2.72,2.38l1.57.48c2.2.62,4.22,1.68,4.22,4.1s-2.13,4.22-5.46,4.22A7.34,7.34,0,0,1,212.55,69.14Z"/><path class="cls-1" d="M113.12,33.56c0-6.23,4.32-10.41,10.78-10.41a10.48,10.48,0,0,1,8,3.26l-2.42,2.46a6.9,6.9,0,0,0-5.54-2.5c-4.11,0-6.82,2.9-6.82,7.23s2.79,7.26,6.86,7.26A6.69,6.69,0,0,0,130,37.63l2.6,2.31a10.21,10.21,0,0,1-8.65,4.11C117.48,44.05,113.12,39.87,113.12,33.56Z"/><rect class="cls-1" x="134.13" y="28.98" width="3.74" height="14.82"/><path class="cls-1" d="M150.23,40.35v3a9.66,9.66,0,0,1-3.77.7,4.38,4.38,0,0,1-4.59-4.69V32h-2.42V29h2.42V24.61h3.74V29H150v3h-4.4v6.6a2,2,0,0,0,2,2.24A6.69,6.69,0,0,0,150.23,40.35Z"/><path class="cls-1" d="M164.1,34.48v9.31h-3.63l-.08-2.12a5.31,5.31,0,0,1-4.51,2.38c-3.08,0-5.17-1.83-5.17-4.58s2.49-4.73,6.31-4.73a17.49,17.49,0,0,1,3.26.33v-.26c0-2-1.32-3.16-3.59-3.16a5.59,5.59,0,0,0-3.49,1.18l-1.61-2.2a9,9,0,0,1,6-1.95C161.57,28.68,164.1,31,164.1,34.48Zm-3.74,3.12a14.92,14.92,0,0,0-2.79-.3c-1.76,0-2.9.81-2.9,2.09s.81,2,2.31,2A3.54,3.54,0,0,0,160.36,37.6Z"/><path class="cls-1" d="M166.19,42.33l1.39-2.24a8.23,8.23,0,0,0,4.29,1.1c1.36,0,2.31-.59,2.31-1.47s-1-1.39-2.49-1.76l-1.25-.33c-2.49-.66-4.22-1.61-4.22-4,0-2.93,2.32-4.91,5.84-4.91a9.7,9.7,0,0,1,5.57,1.46l-1.58,2.42a7.49,7.49,0,0,0-3.77-.95c-1.36,0-2.28.51-2.28,1.36s.92,1.28,2.24,1.61l1.25.33c2.49.66,4.54,1.8,4.54,4.44s-2.45,4.69-6.19,4.69A9.26,9.26,0,0,1,166.19,42.33Z"/><path class="cls-1" d="M185.52,49.7l.4-3a2.91,2.91,0,0,0,1.17.22c1.21,0,1.69-.74,2.28-1.84l.73-1.58L183.72,29h4.11l4.22,10.45L196,28.94H200l-7,16.54c-1.17,2.86-2.42,4.62-5.32,4.62A5.59,5.59,0,0,1,185.52,49.7Z"/><path class="cls-2" d="M52.27,52.52l14,13.9a3.48,3.48,0,0,0,4.92,0l28.5-28.2a3.48,3.48,0,0,0-4.88-4.95l-26,25.78L57.22,47.57a3.5,3.5,0,0,0-4.95,5Z"/></g></g></svg>