<svg xmlns="http://www.w3.org/2000/svg" viewBox="0 0 275.96 103.75"><defs><style>.cls-1{fill:#fff;}.cls-2{fill:#dbfe01;}</style></defs><title>LOG-PAGOS</title><g id="Capa_2" data-name="Capa 2"><g id="Capa_1-2" data-name="Capa 1"><path class="cls-1" d="M22.42,32.78h0a4.55,4.55,0,0,0-.37,1.84,5.09,5.09,0,0,0,2.7,4.5A41.29,41.29,0,0,0,29.3,41l.38.09c.35,0,.7,0,1,0a6.22,6.22,0,0,0,3.38-.88A4.57,4.57,0,0,0,36,37.68a4.74,4.74,0,0,0,.17-1.23A5.43,5.43,0,0,0,33,31.65a30.93,30.93,0,0,0-4.16-1.59,5.68,5.68,0,0,0-1.62-.24A5.13,5.13,0,0,0,22.42,32.78Z"/><path class="cls-1" d="M21.94,49.79q3.94,1.64,7.94,3.13A6,6,0,0,0,32,53.3a5.41,5.41,0,0,0,4.76-2.52,4.87,4.87,0,0,0,.58-2.32,4.6,4.6,0,0,0-2.52-4.19c-3.44-1.66-7-3-9.77-4.11l-.37-.1-1-.06a5.14,5.14,0,0,0-5.32,3.61h0a4.76,4.76,0,0,0-.13,1.12A5.64,5.64,0,0,0,21.94,49.79Z"/><path class="cls-1" d="M21.29,60.92q4.53,1.94,9.18,3.61a5.66,5.66,0,0,0,1.84.32,5.11,5.11,0,0,0,4.5-2.66,4.86,4.86,0,0,0,.6-2.29A4.36,4.36,0,0,0,35.05,56c-3.49-1.87-7.2-3.24-9.86-4.39l-.44-.11-.93-.05a6.54,6.54,0,0,0-3.51.89A4.3,4.3,0,0,0,18.43,55l1.37.33L18.43,55a5.46,5.46,0,0,0-.14,1.2A5.12,5.12,0,0,0,21.29,60.92Z"/><path class="cls-1" d="M32.22,73.38l.53-.75.09-.16a4.83,4.83,0,0,0,.57-2.26,5.54,5.54,0,0,0-3.56-4.91,14.31,14.31,0,0,0-5.65-1.51,5.23,5.23,0,0,0-2.74.7,4.36,4.36,0,0,0-1.77,2.15,3.59,3.59,0,0,0-.25.89l0,.3,0,.11,0,.26v0a5.15,5.15,0,0,0,1.15,3.4,7.56,7.56,0,0,0,3.16,2.11h0a13.39,13.39,0,0,0,4.76,1.33A5.06,5.06,0,0,0,32,73.59Z"/><polygon class="cls-1" points="31.74 79.8 31.74 79.8 31.75 79.8 31.74 79.8"/><path class="cls-1" d="M76.48,81c0-2.52,0-4.67,0-6.7,0-4.06,0-7.63,0-12.66v-1l0-.24c0-.18,0-.37-.08-1.17h0a2.33,2.33,0,0,0-4.62-.34h0l-.07.23v2.53c0,9.29,0,10.6.07,19.87h0A3.3,3.3,0,0,1,71.05,84a3.38,3.38,0,0,1-2.5.79h-31a3.28,3.28,0,0,1-2.22-.63,3.16,3.16,0,0,1-1-2.05,3.48,3.48,0,0,0-.55-1.5,2,2,0,0,0-1.68-.82l-.36,0a2.14,2.14,0,0,0-1.62,1,2.83,2.83,0,0,0-.38,1.54v.36a7.27,7.27,0,0,0,7.31,6.7l6.33,0H68.08c2.65,0,4.8-.64,6.27-2.11S76.48,83.64,76.48,81ZM76.42,60.9h0Zm.07-.19Z"/><path class="cls-1" d="M49.43,77.06a3.84,3.84,0,1,0,3.79-3.89A3.76,3.76,0,0,0,49.43,77.06Z"/><path class="cls-1" d="M112.42,68.16h0l-11.66-3.92a6.28,6.28,0,0,0-2-.46,2,2,0,0,0-1.61.82,5.53,5.53,0,0,0-.48.79,4.18,4.18,0,0,1-1.36-2.67c-.72-4.12-1.26-8.32-2.06-12.49-1-5.06-2.25-10.12-5-14.75-1.76-3-3.43-6-5.07-9.08a9.92,9.92,0,0,0-1.84-2.6,4.94,4.94,0,0,0-3.21-1.39l-.41,0a6.25,6.25,0,0,0-5.42,3.53,12.83,12.83,0,0,0-1.87,6.6,12.41,12.41,0,0,0,.72,4.17c1.27,3.54,2.93,6.74,3.23,10.25a2.87,2.87,0,0,0,.6,1.55,2.16,2.16,0,0,0,1.68.79l.76-.12a2.15,2.15,0,0,0,1.23-.83,2.17,2.17,0,0,0,.34-1.23A8.67,8.67,0,0,0,78.93,46c-.46-3.33-1-6.74-3-9.8l-.4-.95a17.07,17.07,0,0,1-.27-2.78,7.23,7.23,0,0,1,1.44-4.59,1.48,1.48,0,0,1,1.1-.69c.3,0,.68.16,1.06.82.23.43.44,1,.73,1.54,1,1.94,1.73,4.24,3.22,6.19A24.43,24.43,0,0,1,87.45,45.8c1.25,5.77,2.26,11.62,3.32,17.46A9.2,9.2,0,0,0,94.9,69.8l.11.44h0c-.64,2.15-1.41,4.28-2.15,6.44-1.49,4.41-3,8.83-4.53,13.34h0a3.25,3.25,0,0,0-1.3-.38,16.22,16.22,0,0,0-2.76-.32,4.77,4.77,0,0,0-2.17.44,21.07,21.07,0,0,0-2.67,1.64c-.56.38-.69.44-1,.45a7.29,7.29,0,0,1-2.14-.57,7.55,7.55,0,0,0-2.35-.62l-1,.24a1.65,1.65,0,0,0-.74.9l-.15.84a2.06,2.06,0,0,0,.66,1.5,3.43,3.43,0,0,0,1.26.7,14.77,14.77,0,0,0,4.33,1.08c1.38,0,2.56-.54,4.62-1.58a4.42,4.42,0,0,1,1.84-.48l.41,0c.44.09.7.16.83.2l.36.16a4.76,4.76,0,0,0,.44.21c-.09.3-.18.57-.26.82a3.38,3.38,0,0,0-.19,1.12,3.44,3.44,0,0,0,2.32,3.25l11.72,4,.74.12a2.29,2.29,0,0,0,2.16-1.54h0v-.06l.12-.75a2.28,2.28,0,0,0-1.55-2.17L91.32,95.65c3-8.93,6-17.75,9-26.68l1.93.65,8.63,2.94.75.12a2.3,2.3,0,0,0,2.17-1.55h0v-.06l.12-.74A2.27,2.27,0,0,0,112.42,68.16Z"/><path class="cls-2" d="M19.08,22.65a3.57,3.57,0,1,0,3.57-3.57A3.56,3.56,0,0,0,19.08,22.65Z"/><path class="cls-2" d="M24.6,12.16a2.36,2.36,0,0,0-2.36-2.35A11.79,11.79,0,0,0,10.45,21.6a2.36,2.36,0,1,0,4.71,0,7.07,7.07,0,0,1,7.08-7.08A2.38,2.38,0,0,0,24.6,12.16Z"/><path class="cls-2" d="M20.29,4.71a2.36,2.36,0,1,0,0-4.71A20.29,20.29,0,0,0,0,20.29a2.36,2.36,0,1,0,4.71,0A15.57,15.57,0,0,1,20.29,4.71Z"/><path class="cls-1" d="M47.13,16.33a1.51,1.51,0,1,0-1.5,1.5A1.51,1.51,0,0,0,47.13,16.33Z"/><path class="cls-1" d="M29.78,23.64h0v.09l.06.33,0,.1h0a2.22,2.22,0,0,0,4.31.12.86.86,0,0,0,.15-.52v-.13h0v0h0c0-.5,0-1.52,0-1.91,0-2.84,0-2.84,0-3.13s0-.68,0-3a3.34,3.34,0,0,1,.78-2.34,2.8,2.8,0,0,1,2.14-.81l15.84,0,15.84,0a2.85,2.85,0,0,1,2.13.77,3.18,3.18,0,0,1,.79,2.19,3.76,3.76,0,0,0,.09,1v.25h0v.08h0v.14l.06.23h0a.14.14,0,0,1,0,.06l0,.13,0,.07h0A2.23,2.23,0,0,0,74.23,19a2.29,2.29,0,0,0,2.29-2.28v-.06h0l-.07-1.46A7.57,7.57,0,0,0,74.2,9.85a7.74,7.74,0,0,0-5.46-2H43.54c-2.16,0-4.33,0-6.5,0a7.08,7.08,0,0,0-7.25,6.75c-.07,3-.1,3.73-.1,4.55s0,1.6.07,4.48Z"/><path class="cls-1" d="M51.18,14.82H50.8v.07a1.47,1.47,0,0,0,0,2.87v.06h9.72l.1,0,.1,0h.51v-.15a1.45,1.45,0,0,0,0-2.68v-.17Z"/><path class="cls-2" d="M63.45,39.33a13,13,0,0,0-9.25-3.87,13.25,13.25,0,0,0-13,13.31,13.67,13.67,0,0,0,3.77,9.42h0a12.91,12.91,0,0,0,9.16,3.88,13.26,13.26,0,0,0,13-13.29h0v-.36A12.83,12.83,0,0,0,63.45,39.33ZM61.68,55.87a.48.48,0,0,1-.5.5h-1.3a5.47,5.47,0,0,1-5.47-5.48v-1.7a.1.1,0,0,0-.09-.09H50.77v3.14a.47.47,0,0,1-.49.49H47.67a.54.54,0,0,1-.53-.54v-2.6a.46.46,0,0,1,.49-.49h3.14V45.47H47.63a.47.47,0,0,1-.49-.5v-2.6a.52.52,0,0,1,.53-.54h2.61a.47.47,0,0,1,.49.5v3.13h3.55a.1.1,0,0,0,.09-.09v-3a.47.47,0,0,1,.49-.49h2.6a.47.47,0,0,1,.5.49v3a.09.09,0,0,0,.09.09h3a.47.47,0,0,1,.5.49v2.61a.7.7,0,0,1-.36.58h-3a.1.1,0,0,0-.09.09V51a1.77,1.77,0,0,0,1.79,1.8h1.3a.47.47,0,0,1,.5.49Z"/><path class="cls-1" d="M151.29,26.25c0,5.79-4.09,9.69-10.28,9.69h-6v9.81h-5.49V16.94h11.68C147.28,16.94,151.29,20.68,151.29,26.25Zm-5.65.19a4.69,4.69,0,0,0-5-4.94H135v9.88h5.6A4.65,4.65,0,0,0,145.64,26.44Z"/><path class="cls-1" d="M169.61,32.55v13.2h-5.1l-.11-3A7.51,7.51,0,0,1,158,46.14c-4.36,0-7.28-2.61-7.28-6.5,0-4,3.58-6.7,9-6.7a24.73,24.73,0,0,1,4.63.47V33c0-2.8-1.87-4.48-5.06-4.48a7.38,7.38,0,0,0-4.91,1.68l-2.29-3.12a12.74,12.74,0,0,1,8.56-2.72C166,24.38,169.61,27.61,169.61,32.55ZM164.32,37a21.09,21.09,0,0,0-4-.43c-2.49,0-4.09,1.17-4.09,3s1.13,2.84,3.27,2.84C162,42.36,164.28,40.41,164.32,37Z"/><path class="cls-1" d="M193.74,24.77v19c0,6.62-4.94,10.94-12.42,10.94A15.59,15.59,0,0,1,172,52.06l1.17-4.17a13.76,13.76,0,0,0,8,2.26c4.36,0,7.28-2.53,7.28-6.42v-1a8,8,0,0,1-7,3.43c-5.69,0-10-4.4-10-11s4.36-10.78,10-10.78a8,8,0,0,1,7,3.54l.12-3.15Zm-5.29,10.47c0-3.82-2.34-6.35-5.77-6.35s-5.76,2.53-5.76,6.31,2.3,6.38,5.76,6.38S188.45,39.05,188.45,35.24Z"/><path class="cls-1" d="M195.71,35.24c0-6.5,4.52-10.86,11.25-10.86s11.22,4.36,11.22,10.86-4.52,10.9-11.22,10.9S195.71,41.78,195.71,35.24Zm17,0c0-3.82-2.3-6.35-5.73-6.35s-5.76,2.53-5.76,6.35,2.3,6.34,5.76,6.34S212.69,39.05,212.69,35.24Z"/><path class="cls-1" d="M219.22,43.65l2-3.2a11.46,11.46,0,0,0,6,1.56c1.94,0,3.27-.81,3.27-2.1s-1.48-2-3.58-2.53l-1.76-.47c-3.54-.93-5.95-2.29-5.95-5.6,0-4.17,3.27-6.93,8.25-6.93a13.88,13.88,0,0,1,7.9,2.06l-2.22,3.46a10.79,10.79,0,0,0-5.33-1.36c-1.91,0-3.23.7-3.23,1.91s1.32,1.83,3.15,2.3l1.76.5c3.58.94,6.42,2.57,6.42,6.27,0,4-3.5,6.62-8.76,6.62A12,12,0,0,1,219.22,43.65Z"/><path class="cls-1" d="M244.67,54.12l.54-4.32a3.73,3.73,0,0,0,1.68.35c1.71,0,2.41-1,3.23-2.65l1-2.22-9-20.51H248l5.91,14.79,5.53-14.79h5.76L255.3,48.16c-1.68,4.05-3.47,6.54-7.52,6.54A8,8,0,0,1,244.67,54.12Z"/><path class="cls-1" d="M141.67,65.08,141.32,70c-4.36,0-7.24,2.1-7.24,5.25V86.45h-5.29v-21h5.1l.07,2.81C135.64,66.21,138.29,65.08,141.67,65.08Z"/><path class="cls-1" d="M161.21,77.85H146c.39,3,1.94,4.83,5,4.83a6.52,6.52,0,0,0,5.14-2.49l4.09,2.06a10.78,10.78,0,0,1-9.15,4.6c-6.42,0-10.71-4.29-10.71-10.75,0-6.62,4.17-11,10.47-11s10.48,4.21,10.48,10.55A18.67,18.67,0,0,1,161.21,77.85ZM146,74.27h9.77c-.39-3.19-2.07-5-4.91-5S146.46,71.08,146,74.27Z"/><path class="cls-1" d="M162.06,75.94c0-6.5,4.51-10.86,11.29-10.86a11.55,11.55,0,0,1,7.2,2.42l-3,3.58a6,6,0,0,0-4.12-1.48c-3.51,0-5.88,2.53-5.88,6.34s2.33,6.35,5.91,6.35a6.16,6.16,0,0,0,4.75-1.87l3,3.5a11,11,0,0,1-8,2.93C166.53,86.85,162.06,82.48,162.06,75.94Z"/><path class="cls-1" d="M199.77,73.26V86.45h-5.1l-.11-3a7.53,7.53,0,0,1-6.39,3.39c-4.36,0-7.28-2.61-7.28-6.51,0-4,3.58-6.69,9-6.69a23.92,23.92,0,0,1,4.63.47v-.39c0-2.81-1.87-4.48-5.06-4.48a7.43,7.43,0,0,0-4.91,1.67l-2.29-3.11a12.75,12.75,0,0,1,8.56-2.73C196.15,65.08,199.77,68.31,199.77,73.26Zm-5.29,4.43a21,21,0,0,0-4-.42c-2.49,0-4.09,1.17-4.09,3s1.13,2.84,3.27,2.84C192.14,83.07,194.44,81.12,194.48,77.69Z"/><path class="cls-1" d="M215.65,65.08,215.3,70c-4.36,0-7.25,2.1-7.25,5.25V86.45h-5.29v-21h5.1l.08,2.81C209.61,66.21,212.26,65.08,215.65,65.08Z"/><path class="cls-1" d="M236.74,65.47v19c0,6.62-5,10.94-12.42,10.94A15.65,15.65,0,0,1,215,92.76l1.17-4.17a13.78,13.78,0,0,0,8,2.26c4.36,0,7.28-2.53,7.28-6.42v-1a8,8,0,0,1-7,3.43c-5.68,0-10-4.41-10-11s4.36-10.79,10-10.79a8,8,0,0,1,7.05,3.54l.12-3.15Zm-5.3,10.47c0-3.81-2.33-6.34-5.76-6.34s-5.76,2.53-5.76,6.3,2.3,6.39,5.76,6.39S231.44,79.76,231.44,75.94Z"/><path class="cls-1" d="M257.24,73.26V86.45h-5.1l-.12-3a7.5,7.5,0,0,1-6.38,3.39c-4.36,0-7.28-2.61-7.28-6.51,0-4,3.58-6.69,9-6.69a24,24,0,0,1,4.63.47v-.39c0-2.81-1.87-4.48-5.06-4.48A7.41,7.41,0,0,0,242,70.92l-2.3-3.11a12.79,12.79,0,0,1,8.57-2.73C253.62,65.08,257.24,68.31,257.24,73.26ZM252,77.69a21.23,21.23,0,0,0-4-.42c-2.49,0-4.08,1.17-4.08,3s1.13,2.84,3.27,2.84C249.61,83.07,251.91,81.12,252,77.69Z"/><path class="cls-1" d="M259.26,84.35l2-3.19a11.45,11.45,0,0,0,6,1.56c2,0,3.27-.82,3.27-2.11s-1.47-2-3.58-2.53l-1.75-.46c-3.54-.94-5.95-2.3-5.95-5.61,0-4.16,3.27-6.93,8.25-6.93a13.89,13.89,0,0,1,7.9,2.07l-2.22,3.46a10.79,10.79,0,0,0-5.33-1.36c-1.91,0-3.23.7-3.23,1.9s1.32,1.84,3.15,2.3l1.75.51c3.59.93,6.43,2.57,6.43,6.27,0,4-3.51,6.62-8.76,6.62A11.93,11.93,0,0,1,259.26,84.35Z"/></g></g></svg>