<svg xmlns="http://www.w3.org/2000/svg" viewBox="0 0 231.37 73.14"><defs><style>.cls-1{fill:#fff;}.cls-2{fill:#dbfe01;}</style></defs><title>LOG-ECOMMERCE</title><g id="Capa_2" data-name="Capa 2"><g id="Capa_1-2" data-name="Capa 1"><path class="cls-1" d="M102.39,42.33H88.18a.09.09,0,0,1-.09-.09V30.65a.09.09,0,0,0-.09-.09H82.16a.09.09,0,0,0-.09.09v29a.09.09,0,0,0,.09.09H88a.09.09,0,0,0,.09-.09v-12a.09.09,0,0,1,.09-.09h14.21a.09.09,0,0,1,.09.09v12a.09.09,0,0,0,.09.09h5.84a.09.09,0,0,0,.09-.09v-29a.09.09,0,0,0-.09-.09h-5.84a.09.09,0,0,0-.09.09v11.5C102.57,42.15,102.48,42.33,102.39,42.33Z"/><path class="cls-1" d="M156.41,35.77h8.45a.09.09,0,0,1,.09.09V59.59a.08.08,0,0,0,.08.09h5.85a.09.09,0,0,0,.09-.09V36a.09.09,0,0,1,.09-.09h8.45a.09.09,0,0,0,.09-.09v-5c0-.08-.09-.08-.09-.08h-23.1a.08.08,0,0,0-.09.08v5Z"/><path class="cls-1" d="M182.29,59.86H188a.09.09,0,0,0,.09-.09V38.55c0-.08-.09-.08-.09-.08h-5.67a.08.08,0,0,0-.09.08V59.68Z"/><path class="cls-2" d="M185.26,29.39a3.51,3.51,0,1,0,3.5,3.5A3.5,3.5,0,0,0,185.26,29.39Z"/><path class="cls-1" d="M224.54,46.73l-1.71-.45c-2.07-.44-2.79-1.07-2.79-1.88S221.12,43,222.83,43A10.6,10.6,0,0,1,228,44.31H228l2.88-3.6v-.09a15.38,15.38,0,0,0-8.45-2.51c-5.12,0-8.45,2.87-8.45,7.19,0,3.77,3.06,5.12,6.2,5.84l1.71.45c2.34.63,3.33,1.35,3.33,2.07,0,1-1.08,1.61-2.88,1.7a11.1,11.1,0,0,1-6.47-2.06h-.09L213,56.89V57A15.17,15.17,0,0,0,222.38,60c5.39,0,9-2.79,9-6.83C231.28,48.89,227.41,47.45,224.54,46.73Z"/><path class="cls-1" d="M144.9,51.59,139.6,38a.09.09,0,0,0-.09-.09h-6.38A.09.09,0,0,0,133,38l8.89,20.85a.4.4,0,0,1,0,.45,5.34,5.34,0,0,1-1.88,2.78,5.69,5.69,0,0,1-3.42.9h-3a.09.09,0,0,0-.09.09v5.4a.09.09,0,0,0,.09.09h3.77a9.79,9.79,0,0,0,6.29-2.07,14.77,14.77,0,0,0,4.59-6.83l8-21.84c0-.09,0-.09-.09-.09h-6.3c-.09,0-.09,0-.09.09l-4.49,13.57C145,51.68,144.9,51.68,144.9,51.59Z"/><path class="cls-1" d="M122.43,37.93c-6.2,0-10.34,4.22-10.7,10.33a11.26,11.26,0,0,0,20.32,7.19v-.09l-4.68-2.15h-.09a5.76,5.76,0,0,1-4.49,2.06c-2.52,0-4-1.17-4.49-3.77a.19.19,0,0,1,.18-.18H133c.09,0,.09,0,.09-.09a23.72,23.72,0,0,0,.18-2.52C133.22,42.15,128.81,37.93,122.43,37.93ZM118,47c.45-2.78,2.06-4.22,4.4-4.22,2.52,0,3.95,1.44,4.49,4.22Z"/><path class="cls-1" d="M203.33,54.91c-3.33,0-5.49-2.33-5.49-5.84s2.07-5.84,5.4-5.84A5.37,5.37,0,0,1,207,44.67l.18.18h.09l3.33-4v-.18l-.18-.18A11.86,11.86,0,0,0,203,38c-6.84,0-11.51,4.49-11.51,11,0,6.74,4.58,11.24,11.42,11.24a11.49,11.49,0,0,0,8.27-3.06v-.18l-3.6-3.68h-.09A6.16,6.16,0,0,1,203.33,54.91Z"/><path class="cls-2" d="M32.72,41.31l0-2c0-.23-.18-.46-.42-.41L30.3,39a.37.37,0,0,0-.37.37l0,2.38,2.38,0A.36.36,0,0,0,32.72,41.31Z"/><path class="cls-2" d="M18.24,45.26l-1.95.05a.37.37,0,0,0-.37.37l0,2.37,2.38,0a.37.37,0,0,0,.37-.37l-.05-2A.44.44,0,0,0,18.24,45.26Z"/><path class="cls-2" d="M26.75,48.77l-2.13,0a.4.4,0,0,0-.41.41l.05,2.58,2.59-.05a.39.39,0,0,0,.4-.4l-.05-2.13A.53.53,0,0,0,26.75,48.77Z"/><path class="cls-2" d="M35.13,51.43l-2.13,0a.41.41,0,0,0-.41.41l0,2.58,2.59,0a.4.4,0,0,0,.41-.4l0-2.13A.54.54,0,0,0,35.13,51.43Z"/><path class="cls-2" d="M34.12,48.35l0-2a.42.42,0,0,0-.42-.42L31.7,46a.37.37,0,0,0-.38.38l.05,2.37,2.37-.05A.37.37,0,0,0,34.12,48.35Z"/><path class="cls-2" d="M37.34,42.05l-2,.05a.36.36,0,0,0-.37.37l0,2.37,2.38,0a.37.37,0,0,0,.37-.38l-.05-2A.44.44,0,0,0,37.34,42.05Z"/><path class="cls-2" d="M50.34,30.56H45.13a1,1,0,0,0-1.08,1.07v5.22a.94.94,0,0,0,1,1h6.29v-6.3A.94.94,0,0,0,50.34,30.56Z"/><path class="cls-2" d="M72.45,52.58h-2.6a3.55,3.55,0,0,1-3.6-3.6v-3.5a.19.19,0,0,1,.18-.18h6.11a1.42,1.42,0,0,0,.72-1.17V38.91a.94.94,0,0,0-1-1h-6a.19.19,0,0,1-.18-.18V31.63a.94.94,0,0,0-1-1H59.87a.94.94,0,0,0-1,1v6.12a.19.19,0,0,1-.18.18H51.6v7.28h7.1a.19.19,0,0,1,.18.18V48.8a11,11,0,0,0,11,11h2.6a.94.94,0,0,0,1-1V53.57A.94.94,0,0,0,72.45,52.58Z"/><path class="cls-2" d="M44.05,46.2v5.21a1.09,1.09,0,0,0,1.08,1.08h5.21a.94.94,0,0,0,1-1V45.21H45A.94.94,0,0,0,44.05,46.2Z"/><path class="cls-1" d="M57.06,61.87l-.27-4.15H51.28l.29,4.53v.32a4,4,0,0,1-.37,2,5.11,5.11,0,0,1-1.82,2.23,4.56,4.56,0,0,1-1.35.65,5.28,5.28,0,0,1-1.53.23H5.82l2.7-41.7A4.9,4.9,0,0,1,9,24.08,5.36,5.36,0,0,1,10.89,22a4.88,4.88,0,0,1,2.7-.79H18.1v6.39a3.24,3.24,0,0,0,1.09,6.3,3.14,3.14,0,0,0,3.2-3.21,3.09,3.09,0,0,0-2.1-3.08V21.2H36.81v6.39a3.2,3.2,0,1,0,2.15,0V21.2h5.26a5,5,0,0,1,1.86.37,4.91,4.91,0,0,1,2.18,1.72,4.86,4.86,0,0,1,.67,1.2H54.6a11.38,11.38,0,0,0-.89-2.83,10.3,10.3,0,0,0-3.86-4.33,10.46,10.46,0,0,0-5.73-1.67H39V10.43a10.56,10.56,0,0,0-3-7.4,10.43,10.43,0,0,0-17.83,7.4v5.23H13.54a10.2,10.2,0,0,0-3.95.79A10.52,10.52,0,0,0,5,20a10.39,10.39,0,0,0-2,5.58L0,73.14H46.59a11.16,11.16,0,0,0,4.14-.84,10.23,10.23,0,0,0,4.66-3.86,11.15,11.15,0,0,0,1.34-2.8,9.1,9.1,0,0,0,.39-1.76,7.84,7.84,0,0,0,0-1.81A1.34,1.34,0,0,1,57.06,61.87ZM20.29,10.43a8.39,8.39,0,0,1,2.42-5.87,8,8,0,0,1,5.82-2.42,8.36,8.36,0,0,1,5.86,2.42,8.23,8.23,0,0,1,2.42,5.87v5.23H20.29Z"/><path class="cls-1" d="M163.52,69.06h-5.26A1.65,1.65,0,0,0,160,70.73a2.25,2.25,0,0,0,1.78-.87l1.42.71A3.73,3.73,0,0,1,160,72.15a3.77,3.77,0,0,1-.08-7.53,3.44,3.44,0,0,1,3.62,3.65A4,4,0,0,1,163.52,69.06Zm-5.26-1.24h3.38c-.13-1.11-.72-1.74-1.69-1.74S158.42,66.71,158.26,67.82Z"/><path class="cls-1" d="M164.2,67A5.08,5.08,0,0,1,173,63.55l-.65.66a4,4,0,0,0-3.08-1.42,3.9,3.9,0,0,0-4,4.25c0,2.57,1.58,4.3,4,4.3a4,4,0,0,0,3.34-1.74l.7.65A5.1,5.1,0,0,1,164.2,67Z"/><path class="cls-1" d="M173.75,68.47a3.64,3.64,0,1,1,3.65,3.7A3.49,3.49,0,0,1,173.75,68.47Zm6.26,0a2.58,2.58,0,0,0-2.6-2.86,2.86,2.86,0,0,0,0,5.71A2.58,2.58,0,0,0,180,68.47Z"/><path class="cls-1" d="M193.19,67.55V72h-1V67.73a2,2,0,1,0-4,0V72h-1V67.73a2,2,0,1,0-4,0V72h-1V64.9h.93V66a2.45,2.45,0,0,1,2.33-1.27,2.49,2.49,0,0,1,2.41,1.45,2.6,2.6,0,0,1,2.48-1.45A2.64,2.64,0,0,1,193.19,67.55Z"/><path class="cls-1" d="M205.72,67.55V72h-1V67.73a2,2,0,1,0-4,0V72h-1V67.73a2,2,0,1,0-4,0V72h-1V64.9h.94V66A2.45,2.45,0,0,1,198,64.77a2.52,2.52,0,0,1,2.42,1.45,2.59,2.59,0,0,1,2.48-1.45A2.62,2.62,0,0,1,205.72,67.55Z"/><path class="cls-1" d="M213.56,68.82h-5.69c.13,1.54.95,2.55,2.38,2.55a2.82,2.82,0,0,0,2.3-1.2l.74.43a3.52,3.52,0,0,1-3,1.57c-2,0-3.4-1.48-3.4-3.72s1.35-3.7,3.37-3.7a3.31,3.31,0,0,1,3.37,3.61A2.48,2.48,0,0,0,213.56,68.82Zm-5.69-.69h4.69c-.08-1.58-1-2.6-2.35-2.6S208,66.55,207.87,68.13Z"/><path class="cls-1" d="M218.47,64.78l-.08.9c-1.74,0-2.74.88-2.74,2.24v4.14h-1V64.92h.93v1.21A3,3,0,0,1,218.47,64.78Z"/><path class="cls-1" d="M218.17,68.45a3.47,3.47,0,0,1,3.66-3.7,3.61,3.61,0,0,1,2.3.78l-.55.67a2.53,2.53,0,0,0-1.75-.61,2.86,2.86,0,0,0,0,5.71,2.69,2.69,0,0,0,1.95-.78l.56.66a3.69,3.69,0,0,1-2.57.93A3.39,3.39,0,0,1,218.17,68.45Z"/><path class="cls-1" d="M231.34,68.82h-5.68c.13,1.54,1,2.55,2.37,2.55a2.81,2.81,0,0,0,2.3-1.2l.74.43a3.51,3.51,0,0,1-3,1.57c-2,0-3.4-1.48-3.4-3.72s1.35-3.7,3.38-3.7a3.3,3.3,0,0,1,3.36,3.61C231.36,68.49,231.36,68.71,231.34,68.82Zm-5.67-.69h4.69c-.08-1.58-1-2.6-2.35-2.6S225.76,66.55,225.67,68.13Z"/></g></g></svg>