<svg xmlns="http://www.w3.org/2000/svg" viewBox="0 0 742.38 172.36"><defs><style>.cls-1{fill:#2d3c8f;}.cls-2{fill:#dbfe00;}</style></defs><title>LOG-HEY-INVESTOR-AZUL</title><g id="Capa_2" data-name="Capa 2"><g id="Capa_1-2" data-name="Capa 1"><path class="cls-1" d="M231.45,50.9H175.13a.56.56,0,0,1-.57-.58V5a.57.57,0,0,0-.58-.58H150.71a.56.56,0,0,0-.57.58V119.71a.56.56,0,0,0,.57.58H174a.57.57,0,0,0,.58-.58V72.19a.55.55,0,0,1,.57-.57h56.32a.56.56,0,0,1,.58.57v47.52a.57.57,0,0,0,.58.58h23.26a.57.57,0,0,0,.58-.58V5a.57.57,0,0,0-.58-.58H232.61A.57.57,0,0,0,232,5V50.4A.56.56,0,0,1,231.45,50.9Z"/><path class="cls-1" d="M445.23,25.24h33.22a.54.54,0,0,1,.49.5v94a.57.57,0,0,0,.58.58h23.27a.57.57,0,0,0,.57-.58v-94a.54.54,0,0,1,.49-.5h33.39a.55.55,0,0,0,.57-.57V5a.56.56,0,0,0-.57-.58h-92a.57.57,0,0,0-.58.58V24.67C444.57,24.91,444.9,25.24,445.23,25.24Z"/><path class="cls-1" d="M548.42,120.29H571a.56.56,0,0,0,.57-.58v-84a.56.56,0,0,0-.57-.57H548.42a.57.57,0,0,0-.58.57v84A.57.57,0,0,0,548.42,120.29Z"/><path class="cls-2" d="M559.76,0A13.35,13.35,0,0,0,546,13.81a13.78,13.78,0,0,0,27.55,0C573.5,5.84,567.74,0,559.76,0Z"/><path class="cls-1" d="M716.07,68.41l-6.74-2c-8-2.06-11.27-4.2-11.27-7.57,0-3.78,4.19-6,11.18-6A41.56,41.56,0,0,1,729.31,58c.08.08.24,0,.32-.09l11.43-14.22c.09-.08.09-.25,0-.25-8.22-6.16-20.47-9.78-33.21-9.78C687.62,33.63,674,45.14,674,62.24c0,14.88,11.84,20.06,24.59,23.43l6.82,1.81c9.21,2.55,12.91,4.94,12.91,8.47,0,4.11-4.44,6.33-11.35,6.74-8.22.5-18.25-3-25.73-7.89a.21.21,0,0,0-.33.08l-11.27,14.47c-.08.17-.08.33.09.42,14.38,10.44,27.29,12.08,37,12.08,21.3,0,35.69-11,35.69-27.46C742.3,77.12,727.33,71.29,716.07,68.41Z"/><path class="cls-1" d="M400.09,88,379,33.46a.63.63,0,0,0-.58-.41H352.9c-.25,0-.42.25-.33.41l35.11,83a1.9,1.9,0,0,1,0,1.48c-2,5.09-4.53,8.79-7.57,11.18-3.29,2.46-7.81,3.7-13.57,3.62h-12a.56.56,0,0,0-.58.57v21.46a.57.57,0,0,0,.58.58h15c9.86,0,18.33-2.63,25.16-7.73,7.48-5.68,13.56-14.8,18.08-27.22l31.66-86.91c.08-.24-.08-.41-.33-.41H419.25a.63.63,0,0,0-.58.41L400.75,87.89A.34.34,0,0,1,400.09,88Z"/><path class="cls-2" d="M0,8.47v20.8a4.07,4.07,0,0,0,4.11,4.11H29V8.47a4.07,4.07,0,0,0-4.11-4.11H4.11A4.12,4.12,0,0,0,0,8.47Z"/><path class="cls-2" d="M115.85,58.21V37.49a4.07,4.07,0,0,0-4.11-4.11H87.65a.82.82,0,0,1-.82-.82V8.47a4.07,4.07,0,0,0-4.12-4.11H62a4.07,4.07,0,0,0-4.12,4.11V32.56a.82.82,0,0,1-.82.82H28.94V62.32h28.2a.83.83,0,0,1,.83.83V76.8a43.51,43.51,0,0,0,43.49,43.49h10.36a4.07,4.07,0,0,0,4.11-4.11V95.38a4.07,4.07,0,0,0-4.11-4.11H101.38A14.49,14.49,0,0,1,86.91,76.8V63.15a.83.83,0,0,1,.82-.83h24.09A4,4,0,0,0,115.85,58.21Z"/><path class="cls-2" d="M4.11,91.35h20.8A4.07,4.07,0,0,0,29,87.24V62.32H4.11A4.07,4.07,0,0,0,0,66.44v20.8A4.12,4.12,0,0,0,4.11,91.35Z"/><path class="cls-1" d="M310.8,33.55c-24.42,0-41.11,16.52-42.43,41.44-1.31,25.07,17.93,46.7,43.09,46.86,15.45.08,28.94-6.49,37.08-18.09.08-.16.08-.33-.08-.41l-18.59-8.71a.49.49,0,0,0-.49.08,23.41,23.41,0,0,1-17.84,7.89c-9.87,0-15.71-4.93-17.93-15a.75.75,0,0,1,.74-.91h57.89c.16,0,.41-.16.41-.33a76.63,76.63,0,0,0,.66-9.86C353.31,50.73,336.29,33.55,310.8,33.55Zm-17.35,36c1.89-11.1,7.73-16.69,17.35-16.69,9.95,0,15.7,5.51,17.68,16.69Z"/><path class="cls-1" d="M631.46,101c-13.15,0-21.7-9.21-21.7-23.43S618.22,54.1,631.3,54.1a22.15,22.15,0,0,1,15.21,5.43l.9.74a.37.37,0,0,0,.41,0l13.24-15.79c.17-.16.08-.41-.08-.57l-.9-.66A46.73,46.73,0,0,0,631,33.46c-27.38,0-45.72,17.68-45.72,44.08s18.17,44.23,45.31,44.23c13.24,0,24-3.78,32.89-12.42a.24.24,0,0,0,0-.41L649.3,94.47a.31.31,0,0,0-.49,0C644.62,98.58,638.37,101,631.46,101Z"/><path class="cls-1" d="M479.88,145.86h5V172h-5Z"/><path class="cls-1" d="M501.68,145.86h3.11l16.47,17.7-.1-17.7h5V172h-3.08L506.6,154.3l.07,17.71h-5Z"/><path class="cls-1" d="M539.79,145.86h5.3l8.19,20,8.1-20h5.33L555.58,172H551Z"/><path class="cls-1" d="M598.42,167.87V172H580.36V145.86h17.78V150h-12.8v6.72H597v4.1H585.34v7.06Z"/><path class="cls-1" d="M612.91,169.07l1.88-3.35a10.9,10.9,0,0,0,7.1,2.51c3.29,0,5.19-1.13,5.19-3.15s-2.19-3-5.47-4l-1.49-.42c-4.31-1.17-7.53-3-7.53-7.24,0-4.78,3.86-8,9.69-8a13.68,13.68,0,0,1,8.83,3L628.89,152a10.09,10.09,0,0,0-6.58-2.33c-2.75,0-4.56,1.16-4.56,3,0,2.09,2.09,2.83,4.67,3.57l1.52.42c4,1.1,8.3,3.29,8.3,8s-4,7.74-10,7.74A13.61,13.61,0,0,1,612.91,169.07Z"/><path class="cls-1" d="M665.33,150h-8v22h-5V150h-8v-4.13h20.93Z"/><path class="cls-1" d="M677,158.93c0-8.05,5.51-13.43,13.74-13.43s13.72,5.38,13.72,13.43-5.52,13.43-13.72,13.43S677,167,677,158.93Zm22.3,0c0-5.58-3.43-9.29-8.56-9.29s-8.58,3.71-8.58,9.29,3.46,9.3,8.58,9.3S699.26,164.52,699.26,158.93Z"/><path class="cls-1" d="M730,162.4h-5.33V172h-5V145.86h11c5.51,0,9.15,3.32,9.15,8.27a7.65,7.65,0,0,1-4.84,7.31L741.81,172h-5.87Zm-5.33-4.14h5.05c3,0,4.95-1.66,4.95-4.13S732.8,150,730,150h-5.4Z"/></g></g></svg>