<?xml version="1.0" encoding="utf-8"?>
<!-- Generator: Adobe Illustrator 24.0.2, SVG Export Plug-In . SVG Version: 6.00 Build 0)  -->
<svg version="1.1" id="Capa_1" xmlns="http://www.w3.org/2000/svg" xmlns:xlink="http://www.w3.org/1999/xlink" x="0px" y="0px"
	 viewBox="0 0 151.4 36.3" style="enable-background:new 0 0 151.4 36.3;" xml:space="preserve">
<style type="text/css">
	.st0{fill:#2D3E8E;}
</style>
<g>
	<path class="st0" d="M95.2,23.1c-1.2,0.5-2.7,0.7-4.1,0.7c-3,0-5-2-5-5.1v-8h-2.7V7.4h2.7V2.7h4.1v4.7H95v3.3h-4.7v7.2
		c0,1.5,0.9,2.4,2.2,2.4c0.9,0,1.9-0.1,2.8-0.5v3.3H95.2z"/>
	<path class="st0" d="M124.2,7.1l-0.3,3.7c-3.3,0-5.6,1.6-5.6,4v8.6h-4.1v-16h3.9l0.1,2.1C119.5,8,121.6,7.1,124.2,7.1z"/>
	<g>
		<path class="st0" d="M83.5,31.7c0-2.7,1.8-4.5,4.6-4.5c1.5,0,2.6,0.5,3.4,1.4l-0.8,0.8c-0.6-0.7-1.4-1.2-2.6-1.2
			c-2,0-3.3,1.4-3.3,3.5s1.3,3.5,3.3,3.5c1.3,0,2.2-0.6,2.8-1.5l0.9,0.8c-0.8,1.1-2.1,1.8-3.7,1.8C85.3,36.3,83.5,34.4,83.5,31.7z"
			/>
		<path class="st0" d="M92,32.9c0-2,1.3-3.3,3.4-3.3c2,0,3.3,1.3,3.3,3.3s-1.3,3.3-3.3,3.3C93.3,36.3,92,34.9,92,32.9z M97.4,32.9
			c0-1.4-0.8-2.3-2.1-2.3c-1.3,0-2.1,0.9-2.1,2.3c0,1.4,0.8,2.3,2.1,2.3S97.4,34.3,97.4,32.9z"/>
		<path class="st0" d="M109.5,32.1v4h-1.2v-3.8c0-1-0.6-1.7-1.6-1.7s-1.6,0.7-1.6,1.7v3.8h-1.2v-3.8c0-1-0.6-1.7-1.6-1.7
			s-1.6,0.7-1.6,1.7v3.8h-1.2v-6.4h1.2v0.9c0.4-0.6,1.1-1,2-1s1.7,0.4,2.1,1.1c0.4-0.7,1.2-1.1,2.2-1.1
			C108.5,29.6,109.5,30.6,109.5,32.1z"/>
		<path class="st0" d="M116.5,33.4h-4.9c0.1,1.2,0.7,1.9,1.9,1.9c0.8,0,1.4-0.4,1.8-0.9l0.9,0.5c-0.6,0.9-1.6,1.4-2.8,1.4
			c-1.9,0-3.2-1.3-3.2-3.3s1.2-3.4,3.1-3.4s3.1,1.3,3.1,3.2C116.5,33,116.5,33.2,116.5,33.4z M111.6,32.6h3.7c-0.1-1.2-0.8-2-1.8-2
			C112.3,30.6,111.7,31.3,111.6,32.6z"/>
		<path class="st0" d="M120.9,29.6l-0.1,1.1c-1.5,0-2.3,0.7-2.3,1.8v3.6h-1.2v-6.4h1.2v1C119,30,119.8,29.6,120.9,29.6z"/>
		<path class="st0" d="M120.6,32.9c0-2,1.3-3.3,3.4-3.3c0.8,0,1.6,0.3,2.1,0.7l-0.7,0.8c-0.4-0.3-0.9-0.5-1.4-0.5
			c-1.3,0-2.1,0.9-2.1,2.3c0,1.4,0.8,2.3,2.1,2.3c0.6,0,1.2-0.2,1.6-0.6l0.7,0.8c-0.6,0.6-1.4,0.9-2.4,0.9
			C121.9,36.3,120.6,34.9,120.6,32.9z"/>
		<path class="st0" d="M126.7,27.6c0-0.4,0.3-0.8,0.8-0.8c0.4,0,0.8,0.3,0.8,0.8s-0.3,0.8-0.8,0.8C127.1,28.4,126.7,28.1,126.7,27.6
			z M126.9,29.7h1.2v6.4h-1.2C126.9,36.1,126.9,29.7,126.9,29.7z"/>
		<path class="st0" d="M129,32.9c0-2,1.3-3.3,3.4-3.3c2,0,3.3,1.3,3.3,3.3s-1.3,3.3-3.3,3.3C130.3,36.3,129,34.9,129,32.9z
			 M134.4,32.9c0-1.4-0.8-2.3-2.1-2.3s-2.1,0.9-2.1,2.3c0,1.4,0.8,2.3,2.1,2.3C133.5,35.2,134.4,34.3,134.4,32.9z"/>
		<path class="st0" d="M136.1,35.6l0.5-0.8c0.6,0.4,1.2,0.5,1.9,0.5c0.8,0,1.3-0.3,1.3-0.9c0-0.5-0.5-0.8-1.2-1l-0.6-0.2
			c-1-0.3-1.8-0.7-1.8-1.7c0-1.2,1-2,2.4-2c0.9,0,1.7,0.2,2.3,0.6l-0.5,0.8c-0.5-0.3-1.1-0.5-1.7-0.5c-0.7,0-1.2,0.3-1.2,0.8
			s0.5,0.7,1.1,0.9l0.6,0.2c1,0.3,1.9,0.8,1.9,1.9c0,1.2-1,1.9-2.5,1.9C137.5,36.3,136.7,36,136.1,35.6z"/>
	</g>
	<path class="st0" d="M24,1.5h-8.6V5h4.2H24c3.9,0,6.5,3,6.5,7.5S27.9,20,24,20h-3.9L17,23.4h7c6.5,0,10.8-4.4,10.8-11
		S30.5,1.5,24,1.5z"/>
	<path class="st0" d="M104.8,7.1c-5.2,0-8.6,3.3-8.6,8.3c0,2.4,0.8,4.5,2.2,5.9l5.3,7.1c0.5,0.7,1.6,0.7,2.2,0l5.3-7.1
		c1.4-1.5,2.2-3.5,2.2-5.9C113.4,10.5,109.9,7.1,104.8,7.1z M104.7,20.4c-2.7,0-4.9-2.2-4.9-4.9s2.2-4.9,4.9-4.9
		c2.7,0,4.9,2.2,4.9,4.9C109.7,18.2,107.5,20.4,104.7,20.4z"/>
	<path class="st0" d="M36.3,2.4c0-1.4,1-2.4,2.4-2.4s2.4,1,2.4,2.4s-1,2.4-2.4,2.4C37.4,4.8,36.3,3.8,36.3,2.4z M36.7,7.4h4.1v16.1
		h-4.1V7.4z"/>
	<path class="st0" d="M53.3,7.1L53,10.9c-3.3,0-5.6,1.6-5.6,4v8.6h-4.1V7.4h3.9l0.1,2.1C48.7,8,50.7,7.1,53.3,7.1z"/>
	<path class="st0" d="M68.4,16.9H56.8c0.3,2.3,1.5,3.7,3.9,3.7c1.6,0,3-0.7,3.9-1.9l3.1,1.6c-1.4,2.1-4,3.5-7,3.5
		c-4.9,0-8.2-3.3-8.2-8.2c0-5.1,3.2-8.4,8-8.4s8,3.2,8,8.1C68.6,15.8,68.5,16.4,68.4,16.9z M56.8,14.2h7.5c-0.3-2.4-1.6-3.9-3.8-3.9
		C58.4,10.3,57.1,11.7,56.8,14.2z"/>
	<path class="st0" d="M69.2,15.5c0-5,3.5-8.3,8.7-8.3c2.1,0,4,0.7,5.5,1.9l-2.3,2.7c-0.8-0.7-1.8-1.1-3.2-1.1
		c-2.7,0-4.5,1.9-4.5,4.9s1.8,4.9,4.5,4.9c1.5,0,2.7-0.4,3.6-1.4l2.3,2.7c-1.5,1.5-3.7,2.2-6.1,2.2C72.7,23.8,69.2,20.5,69.2,15.5z"
		/>
	<path class="st0" d="M124.6,2.4c0-1.4,1-2.4,2.4-2.4c1.4,0,2.4,1,2.4,2.4s-1,2.4-2.4,2.4C125.6,4.8,124.6,3.8,124.6,2.4z M125,7.4
		h4.1v16.1H125V7.4z"/>
	<path class="st0" d="M0.4,10.5l6.9,5c0.3,0.2,0.4,0.5,0.4,0.9L7,26c-0.1,0.9,1.1,1.4,1.7,0.7l14.8-16.4c0.6-0.6,0.1-1.6-0.7-1.6
		L1,8.7C0,8.7-0.4,9.9,0.4,10.5z"/>
	<circle class="st0" cx="139.3" cy="15.5" r="3.1"/>
	<path class="st0" d="M134,8.7c-3.7,2.9-4.4,8.3-1.5,12s8.3,4.4,12,1.5s4.4-8.3,1.5-12S137.8,5.8,134,8.7z M136.3,11.6
		c2.1-1.7,5.2-1.3,6.9,0.9c1.7,2.1,1.3,5.2-0.9,6.9c-2.1,1.7-5.2,1.3-6.9-0.9C133.8,16.3,134.2,13.3,136.3,11.6z"/>
	<path class="st0" d="M150.9,27.2l-2.8-3.6c-0.5-0.6-1.2-0.8-1.9-0.7l-3.1-4l-1.4,1.1l3.1,4c-0.3,0.6-0.2,1.4,0.2,2l2.8,3.6
		c0.7,0.9,1.9,1,2.7,0.3l0,0C151.4,29.3,151.6,28.1,150.9,27.2z"/>
</g>
</svg>
