<?xml version="1.0" encoding="utf-8"?>
<!-- Generator: Adobe Illustrator 24.0.2, SVG Export Plug-In . SVG Version: 6.00 Build 0)  -->
<svg version="1.1" id="Capa_1" xmlns="http://www.w3.org/2000/svg" xmlns:xlink="http://www.w3.org/1999/xlink" x="0px" y="0px"
	 viewBox="0 0 170.3 55.8" style="enable-background:new 0 0 170.3 55.8;" xml:space="preserve">
<style type="text/css">
	.st0{fill:#FFFFFF;}
	.st1{fill:#DBFE01;}
</style>
<g>
	<g>
		<path class="st0" d="M42.9,21.9c1.3,0,2.3-1,2.3-2.3v-4.5c0-1.3-1-2.3-2.3-2.3c-1.3,0-2.3,1-2.3,2.3v4.6
			C40.6,20.9,41.6,21.9,42.9,21.9z"/>
		<path class="st0" d="M60.1,21.8c1.3,0,2.3-1,2.3-2.3V15c0-1.3-1-2.3-2.3-2.3c-1.3,0-2.3,1-2.3,2.3v4.6
			C57.8,20.8,58.8,21.8,60.1,21.8z"/>
		<path class="st0" d="M72.5,25.4H39.9c-0.2,0.5-0.4,1-0.6,1.6h31.5l0.2,7.5v16.7c0,1.6-1.3,3-3,3H35c-1.6,0-3-1.3-3-3V36.7
			c-0.5,0.4-1,0.8-1.6,1.1v13.5c0,2.5,2,4.6,4.6,4.6h33c2.5,0,4.6-2,4.6-4.6V32.9L72.5,25.4z"/>
		<path class="st0" d="M72.6,21.4c0-2.5-2-4.6-4.6-4.6h-4.8v2.7c0,1.8-1.5,3.2-3.2,3.2c-1.8,0-3.2-1.5-3.2-3.2v-2.7H46v2.8
			c0,1.8-1.5,3.2-3.2,3.2c-0.8,0-1.6-0.3-2.2-0.8c-0.1,0.6-0.2,1.1-0.3,1.7h32.3V21.4L72.6,21.4z"/>
	</g>
	<path class="st1" d="M38,19c0-9.9-7.8-18.9-18.9-19C9.3-0.1,0.1,7.6,0,18.9c-0.1,9.6,7.5,18.9,18.9,19C28.6,38,37.7,30.3,38,19z
		 M27,31.7c-0.3-0.5-0.5-0.9-0.8-1.3c-0.1-0.1-0.2-0.3-0.3-0.3c-0.2,0-0.4,0.1-0.5,0.2c-0.1,0.1-0.1,0.4,0,0.6
		c0.2,0.5,0.5,0.9,0.8,1.4c-0.3,0.2-0.6,0.3-1,0.5c-1.6,0.7-3.2,1.1-4.9,1.3c-0.2,0-0.2-0.1-0.2-0.2c0-0.6,0-1.1,0-1.7
		c0-0.4-0.2-0.7-0.6-0.9c-0.3-0.1-0.7-0.1-1,0.1c-0.2,0.2-0.4,0.4-0.4,0.7c0,0.6,0,1.1,0,1.7c0,0.3-0.1,0.4-0.4,0.3
		c-1.9-0.2-3.7-0.7-5.5-1.6c-0.1,0-0.1-0.1-0.2-0.1c0.3-0.4,0.5-0.9,0.8-1.3c0.2-0.4,0.1-0.7-0.3-0.8c-0.3-0.1-0.5,0.1-0.6,0.3
		c-0.2,0.4-0.5,0.8-0.8,1.3c-1.8-1.1-3.4-2.6-4.6-4.4c0.5-0.3,1-0.6,1.5-0.9c0.2-0.1,0.4-0.3,0.6-0.5c0.2-0.3,0.1-0.8-0.1-1.1
		c-0.3-0.3-0.7-0.4-1.1-0.2c-0.4,0.2-0.8,0.4-1.1,0.7c-0.2,0.1-0.4,0.2-0.7,0.4c-1-1.9-1.5-3.9-1.6-6.1c0.3,0,0.5,0,0.8,0
		c0.3,0,0.7,0,1,0c0.3,0,0.4-0.2,0.4-0.5c0-0.3-0.2-0.4-0.4-0.4c-0.4,0-0.9,0-1.3,0c-0.1,0-0.2,0-0.3,0c0.1-2.2,0.6-4.2,1.5-6.2
		c0.5,0.3,0.9,0.5,1.4,0.8c0.1,0.1,0.3,0.2,0.4,0.2c0.5,0.2,1,0.1,1.3-0.4c0.3-0.5,0.1-1-0.3-1.3c-0.5-0.3-1-0.6-1.5-0.9
		c-0.1,0-0.1-0.1-0.2-0.1c1.2-1.8,2.7-3.2,4.5-4.4c0.3,0.4,0.5,0.9,0.8,1.3c0.2,0.3,0.5,0.4,0.7,0.3c0.3-0.1,0.3-0.4,0.1-0.8
		c-0.2-0.4-0.5-0.9-0.8-1.3c1.9-1,3.9-1.6,6.1-1.8c0,0.1,0,0.3,0,0.4c0,0.6,0,1.1,0,1.7c0,0.5,0.4,0.8,0.9,0.8c0.5,0,0.9-0.3,1-0.8
		c0-0.6,0-1.1,0-1.7c0-0.1,0-0.3,0-0.4c2.2,0.1,4.1,0.7,6.1,1.7c-0.3,0.5-0.5,0.9-0.8,1.4c-0.2,0.4-0.1,0.7,0.3,0.8
		c0.3,0.1,0.4-0.1,0.6-0.3c0.2-0.4,0.5-0.8,0.8-1.3c1.8,1.1,3.4,2.6,4.6,4.5c-0.5,0.3-1,0.6-1.5,0.9c-0.2,0.1-0.4,0.3-0.6,0.5
		c-0.2,0.3-0.2,0.8,0.1,1.1c0.3,0.3,0.7,0.4,1.1,0.2c0.4-0.2,0.8-0.4,1.2-0.7c0.2-0.1,0.4-0.2,0.6-0.3c1,1.9,1.5,3.9,1.5,6.1
		c-0.4,0-0.8,0-1.2,0c-0.2,0-0.4,0-0.6,0c-0.3,0-0.4,0.2-0.4,0.5c0,0.3,0.1,0.5,0.4,0.5c0.6,0,1.1,0,1.7,0c-0.1,2.2-0.6,4.2-1.5,6.2
		c-0.5-0.3-1-0.6-1.5-0.8c-0.3-0.2-0.7-0.4-1.1-0.2c-0.4,0.1-0.6,0.4-0.7,0.8c-0.1,0.4,0,0.7,0.4,0.9c0.5,0.3,1,0.6,1.6,0.9
		c0.1,0.1,0.2,0.1,0.3,0.2C30.2,29.1,28.7,30.5,27,31.7z"/>
	<path class="st1" d="M26.3,13.6c-2,1.1-4.1,2.3-6.1,3.4c-0.1,0.1-0.3,0.1-0.4,0c-0.5-0.2-1-0.2-1.5,0c-0.1,0-0.3,0-0.4,0
		c-0.9-0.5-1.8-1-2.7-1.5c-1.1-0.7-2.4-1.3-3.5-2c-0.5-0.3-1-0.2-1.4,0.2c-0.4,0.3-0.5,0.9-0.3,1.4c0.2,0.4,0.6,0.6,0.9,0.8
		c2,1.1,4,2.2,6,3.3c0.1,0.1,0.2,0.2,0.3,0.4c0.3,0.8,1.1,1.4,2.3,1.4c0.5,0,1.2-0.4,1.5-1.1c0.2-0.5,0.5-0.8,1-1
		c0.1-0.1,0.3-0.1,0.4-0.2c1.8-1,3.5-2,5.3-2.9c0.2-0.1,0.4-0.3,0.5-0.4c0.3-0.4,0.3-1.1-0.1-1.5C27.5,13.4,26.9,13.3,26.3,13.6z"/>
	<path class="st1" d="M102.1,18.6c0-1,0.7-1.7,1.7-1.7c1,0,1.7,0.7,1.7,1.7c0,1-0.7,1.7-1.7,1.7S102.1,19.5,102.1,18.6z"/>
	<g>
		<g>
			<path class="st0" d="M97.7,53.7l-4.1-6.3h-0.4h-4.1v6.3h-1.6V38.2h5.7c3.2,0,5.2,1.8,5.2,4.6c0,2.1-1.3,3.7-3.3,4.3l4.4,6.6H97.7
				L97.7,53.7z M89.1,46.1h3.9c2.2,0,3.8-1.3,3.8-3.3c0-2-1.5-3.3-3.8-3.3h-3.9V46.1z"/>
			<path class="st0" d="M110.7,48.7h-8.9c0.2,2.4,1.5,4,3.7,4c1.5,0,2.7-0.7,3.6-1.9l1.1,0.6c-1.1,1.6-2.8,2.5-4.7,2.5
				c-3.2,0-5.3-2.3-5.3-5.8c0-3.4,2.1-5.7,5.3-5.7c3.1,0,5.2,2.2,5.2,5.6C110.7,48.2,110.7,48.6,110.7,48.7z M101.8,47.7h7.3
				c-0.1-2.5-1.5-4-3.6-4S101.9,45.1,101.8,47.7z"/>
			<path class="st0" d="M112,52.8l0.6-1c0.9,0.7,2,0.9,3.2,0.9c1.6,0,2.6-0.7,2.6-1.8c0-1-1-1.6-2.3-2l-1.2-0.4
				c-1.7-0.5-2.9-1.2-2.9-2.9c0-1.9,1.5-3.2,3.9-3.2c1.5,0,2.7,0.3,3.8,1l-0.6,1c-1-0.6-1.9-0.8-3-0.8c-1.5,0-2.5,0.7-2.5,1.8
				c0,1,0.9,1.5,2.1,1.8l1.2,0.4c1.7,0.5,3.2,1.3,3.2,3.1c0,1.9-1.6,3.2-4.2,3.2C114.3,53.9,112.9,53.5,112,52.8z"/>
			<path class="st0" d="M131.9,48.7H123c0.2,2.4,1.5,4,3.7,4c1.5,0,2.7-0.7,3.6-1.9l1.1,0.6c-1.1,1.6-2.8,2.5-4.7,2.5
				c-3.2,0-5.3-2.3-5.3-5.8c0-3.4,2.1-5.7,5.3-5.7c3.1,0,5.2,2.2,5.2,5.6C131.9,48.2,131.9,48.6,131.9,48.7z M123,47.7h7.3
				c-0.1-2.5-1.5-4-3.6-4C124.5,43.6,123.1,45.1,123,47.7z"/>
			<path class="st0" d="M139.7,42.4l-0.1,1.4c-2.7,0-4.3,1.3-4.3,3.5v6.4h-1.5V42.6h1.5l0,1.8C136.1,43.1,137.6,42.4,139.7,42.4z"/>
			<path class="st0" d="M139.4,42.6h1.7l4.1,9.3l4.1-9.3h1.7l-5,11.1h-1.5L139.4,42.6z"/>
			<path class="st0" d="M160.2,46.7v7h-1.5l0-2.3c-0.8,1.6-2.4,2.5-4.1,2.5c-2.2,0-3.6-1.3-3.6-3.2c0-2,1.8-3.4,4.5-3.4
				c1,0,2.2,0.1,3.2,0.4v-0.8c0-2-1.3-3.3-3.3-3.3c-1.3,0-2.3,0.4-3.1,1.2l-0.7-0.9c1-1,2.3-1.5,4.1-1.5
				C158.4,42.4,160.2,44.1,160.2,46.7z M158.7,48.8c-1-0.2-2.1-0.4-3.1-0.4c-1.9,0-3.2,0.9-3.2,2.2c0,1.3,1,2.1,2.5,2.1
				C156.7,52.8,158.7,51.4,158.7,48.8z"/>
			<path class="st0" d="M162.2,52.8l0.6-1c0.9,0.7,2,0.9,3.2,0.9c1.6,0,2.6-0.7,2.6-1.8c0-1-1-1.6-2.3-2l-1.2-0.4
				c-1.7-0.5-2.9-1.2-2.9-2.9c0-1.9,1.5-3.2,3.9-3.2c1.5,0,2.7,0.3,3.8,1l-0.6,1c-1-0.6-1.9-0.8-3-0.8c-1.5,0-2.5,0.7-2.5,1.8
				c0,1,0.9,1.5,2.1,1.8l1.2,0.4c1.7,0.5,3.2,1.3,3.2,3.1c0,1.9-1.6,3.2-4.2,3.2C164.4,53.9,163.1,53.5,162.2,52.8z"/>
		</g>
		<path class="st0" d="M86.3,25.6c0-4.8,3.3-7.9,8.2-7.9c2.5,0,4.6,0.8,6.1,2.5L98.8,22c-0.9-1.1-2.4-1.9-4.2-1.9
			c-3.1,0-5.2,2.2-5.2,5.5c0,3.4,2.1,5.5,5.2,5.5c2.1,0,3.6-1,4.5-2.5l2,1.8c-1.5,2-3.8,3.1-6.6,3.1C89.6,33.6,86.3,30.4,86.3,25.6z
			"/>
		<rect x="102.4" y="22.1" class="st0" width="2.9" height="11.3"/>
		<path class="st0" d="M114.6,30.8v2.3c-0.9,0.4-1.8,0.5-2.9,0.5c-2.1,0-3.5-1.4-3.5-3.6v-5.6h-1.8v-2.3h1.8v-3.3h2.9v3.3h3.4v2.3
			h-3.4v5c0,1,0.6,1.7,1.5,1.7C113.3,31.2,114,31.1,114.6,30.8z"/>
		<path class="st0" d="M125.2,26.3v7.1h-2.8l-0.1-1.6c-0.8,1.2-2.1,1.8-3.4,1.8c-2.4,0-3.9-1.4-3.9-3.5c0-2.2,1.9-3.6,4.8-3.6
			c0.8,0,1.6,0.1,2.5,0.3v-0.2c0-1.5-1-2.4-2.7-2.4c-1.1,0-1.9,0.3-2.7,0.9l-1.2-1.7c1.2-1,2.7-1.5,4.6-1.5
			C123.3,21.9,125.2,23.6,125.2,26.3z M122.4,28.7c-0.7-0.1-1.5-0.2-2.1-0.2c-1.3,0-2.2,0.6-2.2,1.6c0,0.9,0.6,1.5,1.8,1.5
			C121.1,31.6,122.3,30.6,122.4,28.7z"/>
		<path class="st0" d="M126.8,32.3l1.1-1.7c1.1,0.6,2.1,0.8,3.3,0.8c1,0,1.8-0.4,1.8-1.1c0-0.7-0.8-1.1-1.9-1.3l-1-0.3
			c-1.9-0.5-3.2-1.2-3.2-3c0-2.2,1.8-3.8,4.5-3.8c1.7,0,3.2,0.4,4.3,1.1l-1.2,1.8c-0.9-0.5-1.8-0.7-2.9-0.7c-1,0-1.7,0.4-1.7,1
			c0,0.7,0.7,1,1.7,1.2l1,0.3c1.9,0.5,3.5,1.4,3.5,3.4c0,2.1-1.9,3.6-4.7,3.6C129.4,33.6,127.9,33.2,126.8,32.3z"/>
		<path class="st0" d="M141.6,37.9l0.3-2.3c0.3,0.1,0.5,0.2,0.9,0.2c0.9,0,1.3-0.6,1.7-1.4l0.6-1.2l-4.9-11.1h3.1l3.2,8l3-8h3.1
			l-5.3,12.6c-0.9,2.2-1.8,3.5-4.1,3.5C142.6,38.2,142,38.1,141.6,37.9z"/>
	</g>
	<g>
		<path class="st1" d="M39.9,40.1l10.7,10.6c1,1,2.7,1,3.8,0l21.7-21.5c1-1,1.1-2.7,0-3.8c-1-1-2.7-1.1-3.8,0L52.5,45.1l-8.8-8.8
			c-1-1-2.7-1-3.8,0C38.8,37.4,38.8,39,39.9,40.1L39.9,40.1z"/>
	</g>
</g>
</svg>
