<?xml version="1.0" encoding="utf-8"?>
<!-- Generator: Adobe Illustrator 24.0.2, SVG Export Plug-In . SVG Version: 6.00 Build 0)  -->
<svg version="1.1" id="Capa_1" xmlns="http://www.w3.org/2000/svg" xmlns:xlink="http://www.w3.org/1999/xlink" x="0px" y="0px"
	 viewBox="0 0 176.6 55.8" style="enable-background:new 0 0 176.6 55.8;" xml:space="preserve">
<style type="text/css">
	.st0{fill:#2D3E8E;}
</style>
<g>
	<path class="st0" d="M78.1,32.3H67.3c-0.1,0-0.1-0.1-0.1-0.1v-8.8c0-0.1-0.1-0.1-0.1-0.1h-4.5c-0.1,0-0.1,0.1-0.1,0.1v22.2
		c0,0.1,0.1,0.1,0.1,0.1h4.5c0.1,0,0.1-0.1,0.1-0.1v-9.1c0-0.1,0.1-0.1,0.1-0.1h10.8c0.1,0,0.1,0.1,0.1,0.1v9.1
		c0,0.1,0.1,0.1,0.1,0.1h4.5c0.1,0,0.1-0.1,0.1-0.1V23.4c0-0.1-0.1-0.1-0.1-0.1h-4.5c-0.1,0-0.1,0.1-0.1,0.1v8.8
		C78.3,32.2,78.2,32.3,78.1,32.3z"/>
	<path class="st0" d="M119.4,27.3h6.4c0.1,0,0.1,0.1,0.1,0.1v18.1c0,0.1,0.1,0.1,0.1,0.1h4.5c0.1,0,0.1-0.1,0.1-0.1v-18
		c0-0.1,0.1-0.1,0.1-0.1h6.4c0.1,0,0.1-0.1,0.1-0.1v-3.8c0-0.1-0.1-0.1-0.1-0.1h-17.6c-0.1,0-0.1,0.1-0.1,0.1L119.4,27.3
		C119.1,27.3,119.2,27.3,119.4,27.3z"/>
	<path class="st0" d="M139.1,45.7h4.3c0.1,0,0.1-0.1,0.1-0.1V29.4c0-0.1-0.1-0.1-0.1-0.1h-4.3c-0.1,0-0.1,0.1-0.1,0.1v16.1
		L139.1,45.7z"/>
	<path class="st0" d="M141.4,22.4c-1.6,0-2.7,1.1-2.7,2.7s1.1,2.7,2.7,2.7c1.6,0,2.7-1.1,2.7-2.7C144,23.6,142.8,22.4,141.4,22.4z"
		/>
	<path class="st0" d="M171.3,35.7l-1.3-0.3c-1.6-0.3-2.1-0.8-2.1-1.4c0-0.7,0.8-1.1,2.1-1.1c1.4,0,2.6,0.3,3.9,1h0.1l2.2-2.7V31
		c-1.6-1.1-4-1.9-6.4-1.9c-3.9,0-6.4,2.2-6.4,5.5c0,2.9,2.3,3.9,4.7,4.5l1.3,0.3c1.8,0.5,2.5,1,2.5,1.6c0,0.8-0.8,1.2-2.2,1.3
		c-1.6,0.1-3.5-0.5-4.9-1.6h-0.1l-2.1,2.7v0.1c2.7,2,5.2,2.3,7.1,2.3c4.1,0,6.9-2.1,6.9-5.2C176.5,37.3,173.5,36.2,171.3,35.7z"/>
	<path class="st0" d="M110.6,39.4l-4-10.4c0-0.1-0.1-0.1-0.1-0.1h-4.9c-0.1,0-0.1,0.1-0.1,0.1l6.8,15.9c0.1,0.1,0.1,0.2,0,0.3
		c-0.3,1-0.8,1.6-1.4,2.1s-1.6,0.7-2.6,0.7H102c-0.1,0-0.1,0.1-0.1,0.1v4.1c0,0.1,0.1,0.1,0.1,0.1h2.9l0,0l0,0
		c1.9,0,3.5-0.5,4.8-1.6c1.4-1.1,2.6-2.8,3.5-5.2l6.1-16.7c0-0.1,0-0.1-0.1-0.1h-4.8c-0.1,0-0.1,0-0.1,0.1l-3.4,10.4
		C110.6,39.4,110.6,39.4,110.6,39.4z"/>
	<g>
		<g>
			<path class="st0" d="M93.4,28.9c-4.7,0-7.9,3.2-8.2,7.9c-0.2,4.8,3.4,9,8.4,9c3,0,5.6-1.2,7.1-3.5v-0.1l-3.6-1.6H97
				c-0.9,1-2.1,1.6-3.4,1.6c-1.9,0-3-0.9-3.4-2.9c0-0.1,0.1-0.1,0.1-0.1h11.1c0.1,0,0.1,0,0.1-0.1c0.1-0.5,0.1-1.4,0.1-1.9
				C101.7,32.2,98.3,28.9,93.4,28.9z M90.1,35.9c0.3-2.1,1.6-3.2,3.4-3.2c1.9,0,3,1.1,3.4,3.2H90.1z"/>
		</g>
	</g>
	<path class="st0" d="M155.2,41.9c-2.5,0-4.2-1.8-4.2-4.5s1.6-4.5,4.1-4.5c1.1,0,2.1,0.3,2.9,1.1l0.1,0.1h0.1l2.5-3V31l-0.1-0.1
		c-1.6-1.2-3.5-1.9-5.7-1.9c-5.2,0-8.8,3.4-8.8,8.4c0,5.1,3.5,8.6,8.7,8.6c2.5,0,4.7-0.8,6.3-2.3v-0.1l-2.7-2.8h-0.1
		C157.6,41.4,156.4,41.9,155.2,41.9z"/>
	<g>
		<path class="st0" d="M25,31.5V30c0-0.2-0.1-0.4-0.3-0.3h-1.5c-0.2,0-0.3,0.1-0.3,0.3v1.8h1.8C24.9,31.8,25,31.7,25,31.5z"/>
		<path class="st0" d="M13.9,34.5h-1.5c-0.2,0-0.3,0.1-0.3,0.3v1.8h1.8c0.2,0,0.3-0.1,0.3-0.3v-1.5C14.2,34.7,14.1,34.5,13.9,34.5z"
			/>
		<path class="st0" d="M20.4,37.2h-1.6c-0.2,0-0.3,0.2-0.3,0.3v2h2c0.2,0,0.3-0.2,0.3-0.3v-1.6C20.7,37.4,20.6,37.2,20.4,37.2z"/>
		<path class="st0" d="M26.8,39.2h-1.6c-0.2,0-0.3,0.2-0.3,0.3v2h2c0.2,0,0.3-0.2,0.3-0.3v-1.6C27.1,39.4,27,39.2,26.8,39.2z"/>
		<path class="st0" d="M26,36.9v-1.5c0-0.2-0.1-0.3-0.3-0.3h-1.5c-0.2,0-0.3,0.1-0.3,0.3v1.8h1.8C25.9,37.2,26,37,26,36.9z"/>
		<path class="st0" d="M28.5,32.1H27c-0.2,0-0.3,0.1-0.3,0.3v1.8h1.8c0.2,0,0.3-0.1,0.3-0.3v-1.5C28.8,32.2,28.7,32.1,28.5,32.1z"/>
		<path class="st0" d="M38.4,23.3h-4c-0.5,0-0.8,0.3-0.8,0.8v4c0,0.5,0.3,0.8,0.8,0.8h4.8v-4.8C39.2,23.6,38.8,23.3,38.4,23.3z"/>
		<path class="st0" d="M55.3,40.1h-2c-1.6,0-2.7-1.2-2.7-2.7v-2.7c0-0.1,0.1-0.1,0.1-0.1h4.7c0.2-0.1,0.5-0.5,0.5-0.9v-4
			c0-0.5-0.3-0.8-0.8-0.8h-4.6c-0.1,0-0.1-0.1-0.1-0.1v-4.7c0-0.5-0.3-0.8-0.8-0.8h-4c-0.5,0-0.8,0.3-0.8,0.8v4.7
			c0,0.1-0.1,0.1-0.1,0.1h-5.4v5.6h5.4c0.1,0,0.1,0.1,0.1,0.1v2.6c0,4.7,3.8,8.4,8.4,8.4h2c0.5,0,0.8-0.3,0.8-0.8v-4
			C56,40.4,55.7,40.1,55.3,40.1z"/>
		<path class="st0" d="M33.6,35.3v4c0,0.4,0.3,0.8,0.8,0.8h4c0.5,0,0.8-0.3,0.8-0.8v-4.8h-4.8C33.9,34.5,33.6,34.8,33.6,35.3z"/>
	</g>
	<path class="st0" d="M43.5,47.2L43.3,44h-4.2l0.2,3.5c0,0.1,0,0.2,0,0.2c0,0.5-0.1,1-0.3,1.5c-0.3,0.7-0.8,1.3-1.4,1.7
		c-0.3,0.2-0.6,0.4-1,0.5s-0.7,0.2-1.2,0.2h-31l2.1-31.8c0-0.5,0.2-1,0.4-1.4c0.3-0.6,0.8-1.2,1.4-1.6c0.6-0.4,1.3-0.6,2.1-0.6h3.4
		v4.9c-1,0.3-1.7,1.2-1.7,2.4c0,1.4,1,2.5,2.5,2.5c1.4,0,2.4-1.1,2.4-2.5c0-1.1-0.6-2-1.6-2.4v-4.9H28v4.9c-1,0.3-1.7,1.2-1.7,2.4
		c0,1.4,1,2.5,2.5,2.5c1.4,0,2.4-1.1,2.4-2.5c0-1.2-0.6-2-1.6-2.4v-4.9h4c0.5,0,1,0.1,1.4,0.3c0.7,0.3,1.2,0.7,1.7,1.3
		c0.2,0.3,0.4,0.6,0.5,0.9h4.3c-0.1-0.8-0.4-1.5-0.7-2.2c-0.6-1.3-1.7-2.5-2.9-3.3s-2.8-1.3-4.4-1.3h-3.9V8c0-2.2-0.9-4.2-2.3-5.6
		C26,0.9,24,0,21.8,0s-4.2,0.9-5.6,2.3s-2.3,3.4-2.3,5.6v4h-3.5c-1.1,0-2.1,0.2-3,0.6C6,13.1,4.8,14,3.9,15.2s-1.4,2.7-1.5,4.3
		L0,55.8h35.6c1.1,0,2.2-0.2,3.2-0.6c1.5-0.6,2.7-1.6,3.6-2.9c0.4-0.6,0.8-1.3,1-2.1c0.1-0.4,0.2-0.9,0.3-1.3c0.1-0.5,0-0.9,0-1.4
		C43.5,47.3,43.5,47.3,43.5,47.2z M15.5,8c0-1.7,0.7-3.3,1.8-4.5c1.1-1.1,2.7-1.8,4.4-1.8c1.7,0,3.3,0.7,4.5,1.8
		C27.3,4.6,28,6.2,28,8v4H15.5V8z"/>
	<g>
		<g>
			<path class="st0" d="M124.8,52.7h-4c0.1,0.8,0.5,1.3,1.3,1.3c0.6,0,1-0.3,1.4-0.7l1.1,0.5c-0.5,0.7-1.4,1.2-2.4,1.2
				c-1.7,0-2.8-1.1-2.8-2.8s1.1-2.9,2.8-2.9c1.7,0,2.8,1.1,2.8,2.8C124.8,52.3,124.8,52.5,124.8,52.7z M120.8,51.8h2.6
				c-0.1-0.8-0.5-1.3-1.3-1.3C121.3,50.4,120.9,50.9,120.8,51.8z"/>
			<path class="st0" d="M125.3,51.1c0-2.3,1.5-3.9,3.9-3.9c1.2,0,2.2,0.5,2.9,1.2l-0.5,0.5c-0.5-0.6-1.3-1.1-2.3-1.1
				c-1.8,0-3.1,1.3-3.1,3.2c0,2,1.2,3.3,3,3.3c1.1,0,2-0.5,2.5-1.3l0.5,0.5c-0.7,0.9-1.8,1.5-3.1,1.5
				C126.8,55.1,125.3,53.5,125.3,51.1z"/>
			<path class="st0" d="M132.6,52.2c0-1.7,1.1-2.8,2.8-2.8s2.8,1.1,2.8,2.8s-1.1,2.8-2.8,2.8S132.6,53.9,132.6,52.2z M137.4,52.2
				c0-1.3-0.8-2.2-2-2.2s-2,0.9-2,2.2s0.8,2.2,2,2.2C136.6,54.4,137.4,53.6,137.4,52.2z"/>
			<path class="st0" d="M147.4,51.5V55h-0.7v-3.3c0-1-0.6-1.6-1.5-1.6s-1.5,0.6-1.5,1.6V55H143v-3.3c0-1-0.6-1.6-1.5-1.6
				s-1.5,0.6-1.5,1.6V55h-0.7v-5.4h0.7v0.9c0.3-0.6,0.9-1,1.8-1c0.9,0,1.5,0.4,1.8,1.1c0.3-0.7,1-1.1,1.9-1.1
				C146.6,49.4,147.4,50.3,147.4,51.5z"/>
			<path class="st0" d="M157,51.5V55h-0.7v-3.3c0-1-0.6-1.6-1.5-1.6s-1.5,0.6-1.5,1.6V55h-0.7v-3.3c0-1-0.6-1.6-1.5-1.6
				s-1.5,0.6-1.5,1.6V55h-0.7v-5.4h0.7v0.9c0.3-0.6,0.9-1,1.8-1c0.9,0,1.5,0.4,1.8,1.1c0.3-0.7,1-1.1,1.9-1.1
				C156.1,49.4,157,50.3,157,51.5z"/>
			<path class="st0" d="M163,52.5h-4.3c0.1,1.2,0.7,2,1.8,2c0.7,0,1.3-0.4,1.8-0.9l0.6,0.3c-0.5,0.8-1.4,1.2-2.3,1.2
				c-1.5,0-2.6-1.1-2.6-2.8s1-2.8,2.6-2.8c1.5,0,2.6,1.1,2.6,2.8C163,52.3,163,52.4,163,52.5z M158.6,52h3.6c-0.1-1.2-0.7-2-1.8-2
				C159.4,50,158.7,50.8,158.6,52z"/>
			<path class="st0" d="M166.7,49.4l-0.1,0.7c-1.3,0-2.1,0.7-2.1,1.7V55h-0.7v-5.4h0.7v0.9C164.9,49.8,165.7,49.4,166.7,49.4z"/>
			<path class="st0" d="M166.5,52.2c0-1.7,1.1-2.8,2.8-2.8c0.7,0,1.3,0.2,1.8,0.6l-0.4,0.5c-0.4-0.3-0.8-0.5-1.3-0.5
				c-1.2,0-2,0.9-2,2.2s0.8,2.2,2,2.2c0.6,0,1.1-0.2,1.5-0.6l0.4,0.5c-0.5,0.5-1.2,0.7-2,0.7C167.6,55.1,166.5,53.9,166.5,52.2z"/>
			<path class="st0" d="M176.5,52.5h-4.3c0.1,1.2,0.7,2,1.8,2c0.7,0,1.3-0.4,1.8-0.9l0.6,0.3c-0.5,0.8-1.4,1.2-2.3,1.2
				c-1.5,0-2.6-1.1-2.6-2.8s1-2.8,2.6-2.8c1.5,0,2.6,1.1,2.6,2.8C176.5,52.3,176.5,52.4,176.5,52.5z M172.2,52h3.6
				c-0.1-1.2-0.7-2-1.8-2S172.3,50.8,172.2,52z"/>
		</g>
	</g>
</g>
</svg>
