<?xml version="1.0" encoding="utf-8"?>
<!-- Generator: Adobe Illustrator 24.0.2, SVG Export Plug-In . SVG Version: 6.00 Build 0)  -->
<svg version="1.1" id="Capa_1" xmlns="http://www.w3.org/2000/svg" xmlns:xlink="http://www.w3.org/1999/xlink" x="0px" y="0px"
	 viewBox="0 0 152.5 55.8" style="enable-background:new 0 0 152.5 55.8;" xml:space="preserve">
<style type="text/css">
	.st0{fill:#2D3E8E;}
</style>
<g>
	<g>
		<g>
			<path class="st0" d="M95.2,30.6c0,0.2,0,0.5,0,0.7c0,2.1,1.1,3.4,3.1,3.4c1.7,0,3.2-0.9,4.4-2.1l1.9,1.2c-1.6,1.9-3.9,3-6.3,3
				c-3.6,0-5.8-2.2-5.8-5.7c0-4.7,3.2-8.6,7.9-8.6c3.6,0,5.7,2.2,5.7,5.6c0,0.8-0.2,1.9-0.4,2.5C105.7,30.6,95.2,30.6,95.2,30.6z
				 M95.5,28.8h7.8c0-0.3,0.1-0.5,0.1-0.8c0-2.2-1.2-3.4-3.1-3.4C97.8,24.6,96.2,26.5,95.5,28.8z"/>
			<path class="st0" d="M109.5,16.5h2.6l-3.6,20.1h-2.6L109.5,16.5z"/>
			<polygon class="st0" points="113.3,22.8 115.9,22.8 113.5,36.6 110.8,36.6 			"/>
			<path class="st0" d="M113.7,18.4c0-1,0.8-1.8,1.8-1.8c0.9,0,1.5,0.6,1.5,1.5c0,1-0.7,1.8-1.8,1.8
				C114.3,19.9,113.7,19.3,113.7,18.4z"/>
			<path class="st0" d="M116.4,22.8h2.8l2.5,10.7l6.3-10.7h2.9l-8.4,13.8h-2.6L116.4,22.8z"/>
			<path class="st0" d="M131.5,30.6c0,0.2,0,0.5,0,0.7c0,2.1,1.1,3.4,3.1,3.4c1.7,0,3.2-0.9,4.4-2.1l1.9,1.2c-1.6,1.9-3.9,3-6.3,3
				c-3.6,0-5.8-2.2-5.8-5.7c0-4.7,3.2-8.6,7.9-8.6c3.6,0,5.7,2.2,5.7,5.6c0,0.8-0.2,1.9-0.4,2.5C142,30.6,131.5,30.6,131.5,30.6z
				 M131.8,28.8h7.8c0-0.3,0.1-0.5,0.1-0.8c0-2.2-1.2-3.4-3.1-3.4C134.1,24.6,132.5,26.5,131.8,28.8z"/>
			<path class="st0" d="M144.6,22.8h2.6l-0.4,2.2c1.3-1.7,3.2-2.4,5.7-2.4L152,25c-3.1,0-5.4,1.6-5.8,4l-1.3,7.6h-2.6L144.6,22.8z"
				/>
			<g>
				<path class="st0" d="M91.9,25c0,6.5-4.6,11.4-11.1,11.4h-7l3.4-19.1h6.9C89,17.4,91.9,20.3,91.9,25z M89.1,25.2
					c0-3.5-2-5.6-5.5-5.6h-4L77,34.2h4C86,34.2,89.1,29.9,89.1,25.2z"/>
			</g>
		</g>
		<g>
			<path class="st0" d="M134.8,44.7h12.5c1.1,0,2-0.9,2-2s-0.9-2-2-2h-12.5c-1.1,0-2,0.9-2,2S133.7,44.7,134.8,44.7"/>
			<path class="st0" d="M121,44.7h5c1.1,0,2-0.9,2-2s-0.9-2-2-2h-5c-1.1,0-2,0.9-2,2S119.9,44.7,121,44.7"/>
			<path class="st0" d="M94.7,44.7h19c1.1,0,2-0.9,2-2s-0.9-2-2-2h-19c-1.1,0-2,0.9-2,2S93.6,44.7,94.7,44.7"/>
			<path class="st0" d="M136.9,51.4h2.8c1.1,0,2-0.9,2-2s-0.9-2-2-2h-2.8c-1.1,0-2,0.9-2,2S135.8,51.4,136.9,51.4"/>
			<path class="st0" d="M113.4,51.4h5c1.1,0,2-0.9,2-2s-0.9-2-2-2h-5c-1.1,0-2,0.9-2,2S112.3,51.4,113.4,51.4"/>
		</g>
	</g>
	<g>
		<path class="st0" d="M69.8,28.2c0.2,2.2-0.1,4.4-0.9,6.4c-0.2,0.5-0.4,0.9-0.6,1.3C64.5,43.1,59,49,53.4,55
			c-0.9,1-2.1,1.1-2.7,0.1c-3.3-4.7-6.4-9.6-8.8-15C41,38,40.1,35.9,40,33.5c-0.3-4.8,1.7-9,5.5-12.4c4.5-4,9.7-5.3,15-3.9
			s8.3,5,9.2,10.4C69.8,27.9,69.8,28.1,69.8,28.2z M63.4,31.1c0.6-4.6-2.8-8.4-7.5-8.4c-4.6,0-8.9,3.8-9.5,8.4
			c-0.6,4.5,2.6,8.4,7.6,8.4C58.7,39.5,62.9,35.7,63.4,31.1z"/>
		<path class="st0" d="M38.7,30.9c-1.1,8-7.4,13.3-15.5,13.3c-7.6,0-12.3-4.4-12.3-11.3c0-9.3,6.9-16.2,16.4-16.2
			c4.2,0,7.3,1.2,9.5,3.2l-4.6,3.7c-1.3-1.1-3.1-1.6-5.3-1.6c-5.5,0-9.5,5.1-9.5,10.6c0,3.9,2.4,6.4,6.3,6.4c3.8,0,7-2.2,8-5.4h-6.2
			l0.9-5.2H39C39,29.1,38.9,29.9,38.7,30.9z"/>
		<path class="st0" d="M18.9,14.6h13.3l2.4-11.5C35,1.5,34,0,32.6,0h-11c-1.2,0-2.3,1-2.6,2.3l-2,9.4C16.8,13.2,17.7,14.6,18.9,14.6
			z"/>
		<path class="st0" d="M43.2,15.6c-0.9-0.4-3.1-1.5-5.2-2.3l0,0c-0.1,0-0.2-0.1-0.4-0.2c-0.1-0.1-0.2-0.1-0.2-0.2
			c-0.4-0.3-0.4-0.8,0-1.1c0.6-0.5,1.6-1.2,3.2-2.1c2.7-1.5,3.5-3.3,1.7-3l0,0c0,0-10.9,1.4-10,5.9c0,0-1,2.3,4.5,4.1
			c5.4,1.8,5.2,2.1-3.8,8.3S52.2,19.7,43.2,15.6z"/>
		<path class="st0" d="M45.8,8.4c-0.8,0-1.5,0.7-1.5,1.5c-0.1,0.7,0.2,1.8,1.5,3.1c2.5,2.5,4.7,2.9,4.8,2.3c0.1-0.6-4.2-2.3-3.8-4.4
			S46.5,8.4,45.8,8.4z"/>
		<circle class="st0" cx="46.1" cy="3.1" r="3.1"/>
		<path class="st0" d="M6.3,30.7H0.9c-0.6,0-1-0.5-0.9-1.1l0.2-1c0.1-0.6,0.7-1.1,1.3-1.1h5.3c0.6,0,1,0.5,0.9,1.1l-0.2,1
			C7.4,30.2,6.8,30.7,6.3,30.7z"/>
		<path class="st0" d="M14.8,26.2H9.7c-0.6,0-1-0.5-0.9-1.1l0.2-1c0.1-0.6,0.7-1.1,1.3-1.1h5.1c0.6,0,1,0.5,0.9,1.1l-0.2,1
			C16,25.7,15.4,26.2,14.8,26.2z"/>
		<path class="st0" d="M6.7,26.2H4.3c-0.6,0-1-0.5-0.9-1.1l0.2-1C3.7,23.5,4.3,23,4.9,23h2.3c0.6,0,1,0.5,0.9,1.1l-0.2,1
			C7.8,25.7,7.3,26.2,6.7,26.2z"/>
		<path class="st0" d="M8.8,35.1H3.5c-0.6,0-1-0.5-0.9-1.1l0.2-1c0.1-0.5,0.7-1,1.3-1h5.3c0.6,0,1,0.5,0.9,1.1l-0.2,1
			C10,34.7,9.4,35.1,8.8,35.1z"/>
		<path class="st0" d="M67.2,38.1"/>
	</g>
</g>
</svg>
