<?xml version="1.0" encoding="utf-8"?>
<!-- Generator: Adobe Illustrator 24.0.2, SVG Export Plug-In . SVG Version: 6.00 Build 0)  -->
<svg version="1.1" id="Capa_1" xmlns="http://www.w3.org/2000/svg" xmlns:xlink="http://www.w3.org/1999/xlink" x="0px" y="0px"
	 viewBox="0 0 201.8 41" style="enable-background:new 0 0 201.8 41;" xml:space="preserve">
<style type="text/css">
	.st0{fill:#FFFFFF;}
	.st1{fill:#DBFE01;}
</style>
<g>
	<g>
		<path class="st0" d="M87.3,17.5c-2.1,0-3.6,2.3-3.6,4.3c0,1.5,0.6,2.1,2.1,2.1c2,0,3.5-2.3,3.5-4.3C89.3,17.7,88.3,17.5,87.3,17.5
			z"/>
		<path class="st0" d="M101.5,0c-5.7,0-10.6,2.1-14.2,5.7c0.3,0,0.6,0,0.9,0c3.1,0,5.9,0.7,8.2,2c1.2-0.6,2.6-0.9,4.1-0.9
			c4.7,0,7.5,2.9,7.5,7.6c0,4.8-2.8,9.3-6.9,10.9c-0.9,2.1-2.1,4-3.8,5.6c-0.7,0.7-1.5,1.3-2.3,1.8c0.5,0,1.1,0.1,1.7,0.1
			c11.3,0,19.5-8.3,19.5-19.3C116.2,5.3,110.6,0,101.5,0z"/>
		<path class="st0" d="M147.7,10.3h-5.8l0.4-2.3c0.4-2,2-3.2,4-3.2c1,0,1.9,0.1,2.7,0.4l0.7-4.2c-1.2-0.6-2.9-1-4.8-1
			c-4.1,0-7.3,2.6-8,6.8l-0.6,3.5h-3.2h-0.3h-5.5l0.4-2.3c0.4-2,2-3.2,4-3.2c1,0,1.9,0.1,2.7,0.4l0.7-4.2c-1.2-0.6-2.9-1-4.8-1
			c-4.1,0-7.3,2.6-8,6.8l-0.6,3.5h-3.6l-0.8,4.5h3.6l-3.1,17.5h5.6l3.1-17.5h5.4h0.4h3.2l-3.1,17.5h5.6l3.1-17.5h5.8L147.7,10.3z"/>
		<path class="st0" d="M158,9.9c-7.5,0-12.9,6.1-12.9,13.6c0,5.7,3.7,9.3,9.8,9.3c4,0,7.7-1.7,10.2-4.7l-4-2.5
			c-1.6,1.6-3.7,2.7-6.1,2.7c-2.7,0-4.2-1.6-4.2-4.3v-0.7h16.1c0.4-1.1,0.7-3,0.7-4.3C167.5,13.5,164,9.9,158,9.9z M161.9,19.6
			h-10.4c1.1-3,3.2-5.3,6.4-5.3c2.5,0,4,1.6,4,4.5C161.9,19,161.9,19.3,161.9,19.6z"/>
		<path class="st0" d="M185,9.9c-3.6,0-6.6,1-8.6,3.2l0.5-2.8h-5.4l-3.9,22.1h5.6l2-11.7c0.6-3.3,4.3-5.7,8.8-5.7L185,9.9z"/>
		<path class="st0" d="M194.2,19.3l-1.8-0.5c-1.6-0.5-2.7-0.9-2.7-2c0-1.6,2-2.5,4.3-2.5c1.8,0,3.6,0.4,5.1,1.4l2.7-3.4
			c-2-1.5-4.7-2.3-8.1-2.3c-5.4,0-9.7,3.4-9.7,7.9c0,3,2.3,4.5,5.4,5.2l1.8,0.5c2,0.5,3.2,1.1,3.2,2.3c0,1.6-2,2.7-4.3,2.7
			c-2.1,0-4.1-0.3-5.9-1.5l-2.4,3.2c1.8,1.8,4.6,2.7,8.2,2.7c5.6,0,10.1-2.9,10.1-7.8C200,21.8,197.4,20.3,194.2,19.3z"/>
	</g>
	<path class="st1" d="M73.4,22.8c0-8.3,6.3-14.3,14.9-14.3c7,0,11.4,4,11.4,10.2c0,8.3-6.3,14.4-14.8,14.4
		C77.9,33,73.4,29,73.4,22.8z M92.1,19.6c0-3-1.8-4.9-4.7-4.9c-3.7,0-6.3,3.5-6.3,7c0,3,1.8,4.9,4.9,4.9
		C89.5,26.7,92.1,23.2,92.1,19.6z"/>
	<path class="st1" d="M59.2,13.9l-1.1,6.3h7.4c-1.2,3.9-5,6.5-9.6,6.5c-4.7,0-7.6-3-7.6-7.7c0-6.6,4.7-12.7,11.4-12.7
		c2.6,0,4.9,0.6,6.4,2l5.5-4.4C69.1,1.5,65.4,0,60.3,0c-4,0-7.6,1-10.6,2.8c0,0,0,0,0,0h-9c-1,0-2,0.8-2.3,1.9L38,6.4
		c-0.1,1,0.5,1.9,1.5,1.9h4.3c-2.1,3.1-3.3,6.9-3.3,11.1c0,8.2,5.6,13.6,14.8,13.6c9.7,0,17.2-6.4,18.6-16c0.2-1.2,0.3-2.1,0.4-3.1
		H59.2z"/>
	<path class="st1" d="M31.9,8.3h-4.1c-1,0-1.7-0.8-1.5-1.9l0.3-1.7c0.2-1,1.2-1.9,2.3-1.9H33c1,0,1.7,0.8,1.5,1.9l-0.3,1.7
		C34,7.5,33,8.3,31.9,8.3z"/>
	<g>
		<path class="st0" d="M21.2,23.8c-0.9,0.4-1.2,1.5-0.9,2.3c0.3,0.7,0.9,1,1.7,0.7c0.9-0.4,1.2-1.5,0.8-2.3
			C22.6,23.8,22,23.5,21.2,23.8z"/>
		<path class="st0" d="M12,27.6c-0.9,0.4-1.2,1.5-0.9,2.3c0.3,0.7,0.9,1,1.7,0.7c0.9-0.4,1.2-1.5,0.8-2.3
			C13.4,27.6,12.8,27.3,12,27.6z"/>
		<path class="st0" d="M51,16.7c-0.4-0.4-1-0.4-1.4,0C48.9,17.4,48,18,47,18.5c-1.5,0.7-3.1,1.2-4.8,1.5c-1.3,0.2-2.5,0.3-3.7,0.4
			c0-0.2,0-0.3,0-0.5c0.1-1.4-0.7-2.6-1.8-3.4c-1.5-1.1-3-2-4.5-3c-1-0.7-2-1.3-3-1.9c-0.8-0.5-1.7-0.6-2.6-0.3
			c-8.3,3.2-16.6,6.3-24.9,9.5C0.7,21.1,0,21.9,0,23.1c0,0.4,0.1,0.8,0.2,1.1c1.9,5,3.8,10,5.7,15c0.6,1.6,1.9,2.2,3.5,1.6
			c0.7-0.3,1.4-0.5,2.1-0.8l0,0l0,0c1.4-0.5,2.9-1.1,4.3-1.6l2.9-1.1c2.8-1.1,5.6-2.1,8.3-3.2l1.7-0.6l2.6-1
			c0.4-0.2,1.5-0.6,2.3-0.9c0.7-0.3,1.2-0.8,1.5-1.4l2-4.3c0,0,0,0,0,0c0.3-1.1,0.7-2.2,1-3.3c0-0.1,0.1-0.2,0.1-0.4
			c1.9,0,4.1-0.2,6.3-0.8c1.2-0.3,2.4-0.7,3.5-1.3c1.1-0.6,2.2-1.3,3.1-2.2C51.4,17.7,51.4,17.1,51,16.7z M13.2,32.3
			c-1.7,0.7-3.2,0.2-3.8-1.4c-0.8-2,0.1-4.1,2.2-5c1.7-0.7,3.2-0.2,3.8,1.4C16.3,29.3,15.3,31.4,13.2,32.3z M15.5,34.9l1.4-14.6
			l1.7-0.7l-1.3,14.5L15.5,34.9z M22.4,28.5c-1.7,0.7-3.2,0.2-3.8-1.4c-0.8-2,0.1-4.1,2.2-5c1.7-0.7,3.2-0.2,3.8,1.4
			C25.5,25.6,24.5,27.7,22.4,28.5z M31.6,21.9L31.6,21.9c0,0,1,0.2,2.5,0.3c-0.5,0.8-1.3,1.4-2.4,1.4c-1.5,0-2.7-1.2-2.7-2.7
			c0-1.5,1.2-2.7,2.7-2.7c1.3,0,2.3,0.9,2.6,2.1c-0.3,0-0.6-0.1-0.9-0.1c-0.5-0.1-0.9-0.1-1.1-0.1c-0.1,0-0.2,0-0.3,0
			c0,0-0.1,0-0.1,0l0,0l0,0l0,0c-0.5-0.1-1,0.3-1.1,0.8C30.7,21.3,31.1,21.8,31.6,21.9z"/>
	</g>
	<path class="st1" d="M36.1,17.5H32c-1,0-1.7-0.8-1.5-1.9l0.3-1.7c0.2-1,1.2-1.9,2.3-1.9h4.1c1,0,1.7,0.8,1.5,1.9l-0.3,1.7
		C38.2,16.7,37.1,17.5,36.1,17.5z"/>
</g>
</svg>
