<?xml version="1.0" encoding="utf-8"?>
<!-- Generator: Adobe Illustrator 24.0.2, SVG Export Plug-In . SVG Version: 6.00 Build 0)  -->
<svg version="1.1" id="Capa_1" xmlns="http://www.w3.org/2000/svg" xmlns:xlink="http://www.w3.org/1999/xlink" x="0px" y="0px"
	 viewBox="0 0 192.7 55.8" style="enable-background:new 0 0 192.7 55.8;" xml:space="preserve">
<style type="text/css">
	.st0{fill:#2D3E8E;}
</style>
<g>
	<path class="st0" d="M8.3,25.4L8.3,25.4L8.3,25.4z"/>
	<path class="st0" d="M24.6,47.5L24.6,47.5L24.6,47.5z"/>
	<path class="st0" d="M8.3,47.5L8.3,47.5L8.3,47.5z"/>
	<path class="st0" d="M25.4,44V30.4h-2.6h-11l0,0l0,0c-1.2,0-2.3,0.5-3.1,1.3l0,0l0,0c-0.8,0.8-1.3,1.9-1.3,3.1l0,0l0,0V44l0,0
		c0,1.2,0.5,2.3,1.3,3.1l0,0l0,0c0.8,0.8,1.9,1.3,3.1,1.3l0,0l0,0H21l0,0c1.2,0,2.3-0.5,3.1-1.3l0,0C24.9,46.3,25.4,45.2,25.4,44
		L25.4,44L25.4,44z M20.2,42.9v0.3h-7.6v-7.6h7.6V42.9z"/>
	<path class="st0" d="M8.3,31.2L8.3,31.2L8.3,31.2z"/>
	<polygon class="st0" points="46.2,25.4 46.1,25.4 46.1,25.4 	"/>
	<path class="st0" d="M47,21.9v-9.3l0,0c0-1.2-0.5-2.3-1.3-3.1l0,0l0,0c-0.8-0.8-1.9-1.3-3.1-1.3l0,0l0,0h-9.3l0,0
		c-1.2,0-2.3,0.5-3.1,1.3l0,0l0,0c-0.8,0.8-1.3,1.9-1.3,3.1l0,0l0,0v13.6h2.6h11l0,0c1.2,0,2.3-0.5,3.1-1.3l0,0
		C46.5,24.2,47,23.1,47,21.9L47,21.9L47,21.9z M41.8,21h-7.6v-7.3v-0.3h7.6V21L41.8,21z"/>
	<path class="st0" d="M14.5,0H5.1C2.4,0,0.3,2.2,0.3,4.8v9.9c0,0.6,0.5,1,1,1c0.3,0,0.5-0.1,0.7-0.3s0.3-0.5,0.3-0.7V4.8l0,0
		c0-1.5,1.2-2.7,2.7-2.7h9.4c0.3,0,0.5-0.1,0.7-0.3s0.3-0.5,0.3-0.7C15.5,0.5,15.1,0,14.5,0z"/>
	<path class="st0" d="M34.7,42.9h8.6V30.3H30.9c-0.5,0-1,0.4-1,1s0.4,1,1,1h10.4V41h-6.6c-0.5,0-1,0.4-1,1
		C33.7,42.5,34.1,42.9,34.7,42.9z"/>
	<path class="st0" d="M15.2,53.1c-0.2-0.2-0.5-0.3-0.7-0.3H5.1c-1.5,0-2.7-1.2-2.7-2.7v-9.9c0-0.3-0.1-0.5-0.3-0.7s-0.5-0.3-0.7-0.3
		c-0.6,0-1,0.5-1,1v9.9c0,2.7,2.2,4.8,4.8,4.8h9.3c0.3,0,0.5-0.1,0.7-0.3s0.3-0.5,0.3-0.7C15.5,53.6,15.4,53.3,15.2,53.1z"/>
	<path class="st0" d="M39,54.6c0.2,0.2,0.5,0.3,0.7,0.3h9.4c2.7,0,4.8-2.2,4.8-4.8v-9.9c0-0.3-0.1-0.5-0.3-0.7s-0.5-0.3-0.7-0.3
		c-0.6,0-1,0.5-1,1V50c0,1.5-1.2,2.7-2.7,2.7l0,0h-9.4c-0.3,0-0.5,0.1-0.7,0.3s-0.3,0.5-0.3,0.7C38.7,54.1,38.8,54.4,39,54.6z"/>
	<path class="st0" d="M38.5,35.7h-8.6V43c0,0.5,0.4,1,1,1s1-0.4,1-1v-5.3h6.6c0.5,0,1-0.4,1-1C39.4,36.1,39,35.7,38.5,35.7z"/>
	<path class="st0" d="M47,31.3c0-0.5-0.4-1-1-1c-0.5,0-1,0.4-1,1v2.9c0,0.5,0.4,1,1,1c0.5,0,1-0.4,1-1V31.3z"/>
	<path class="st0" d="M44.9,48.4c0.6,0,1.2-0.3,1.5-0.7l0,0c0.3-0.4,0.6-1,0.6-1.6v-6.3c0-0.5-0.4-1-1-1c-0.5,0-1,0.4-1,1v0.3l0,0v6
		l0,0c0,0.1,0,0.2,0,0.2v0.2h-4.6c-0.5,0-1,0.4-1,1c0,0.5,0.4,1,1,1l0,0L44.9,48.4L44.9,48.4z"/>
	<path class="st0" d="M34.9,46.5h-4.1c-0.5,0-1,0.4-1,1c0,0.5,0.4,1,1,1h4.1c0.5,0,1-0.4,1-1S35.4,46.5,34.9,46.5z"/>
	<path class="st0" d="M53.5,27.6H1.1c-0.6,0-1.1,0.3-1.1,0.8s0.5,0.8,1.1,0.8h52.4c0.6,0,1.1-0.3,1.1-0.8S54.1,27.6,53.5,27.6z"/>
	<g>
		<path class="st0" d="M147.1,22c-4.4,0-8.1,1.6-10.6,4.7l-0.1-4.1h-7.9V36l-5.3,1.7c0.3,3-0.5,6-2.9,8.4c-3.4,3.4-7.1,3-10.8,0.2
			l16.6-16.7c-0.6-0.8-1.5-1.8-2.3-2.6c-7-7-16.2-7-23.1-0.1c-1.7,1.7-3,3.6-3.8,5.5L95,0.8C95,0.3,94.6,0,94.1,0H83.4
			c-0.3,0-0.7,0.2-0.8,0.5l-14.5,34l-4.6-10.7c-0.2-0.5-0.7-0.7-1.2-0.5s-0.7,0.7-0.5,1.2l5.4,12.7c0.2,0.3,0.5,0.5,0.8,0.5
			s0.7-0.2,0.8-0.5L84.1,1.8h9.3l3.2,51.3H84.3l-1.1-17.5c0-0.4-0.3-0.7-0.7-0.8c-0.4-0.1-0.8,0.2-1,0.5l-8,17.8H62.9l-5.4-12
			c-0.2-0.5-0.7-0.7-1.2-0.5s-0.7,0.7-0.5,1.2l0,0l5.7,12.5c0.2,0.3,0.5,0.5,0.8,0.5H74c0.3,0,0.7-0.2,0.8-0.5l6.8-15L82.5,54
			c0,0.5,0.4,0.8,0.9,0.8h13.9c0.2,0,0.5-0.1,0.7-0.3s0.3-0.4,0.2-0.7l-0.5-8.2c0.9,1.7,2.1,3.2,3.6,4.7c7.1,7.1,16.5,7.1,23.5,0
			c1.5-1.5,2.7-3.2,3.6-4.9V55h8.2V36c0-4.2,3-7,7.6-7s7.6,2.8,7.6,7v19.2h8.2V34.7C160.1,27.1,154.9,22,147.1,22z M105.3,31.5
			c3.1-3.1,7-2.9,10.9,0.1l-10.7,10.7C102.5,38.4,102.2,34.6,105.3,31.5z"/>
		<path class="st0" d="M184.5,22.6v19.2c0,4.2-2.8,7-7,7s-7.1-2.8-7.1-7V22.6h-8.2V43c0,7.7,5,12.7,12.4,12.7c4.1,0,7.7-1.6,10-4.6
			l0.2,4h7.9V22.6H184.5z"/>
	</g>
	<g>
		<path class="st0" d="M107.2,16.7l1.2-2.1c1.4,1.2,3,1.6,4.5,1.6c2.1,0,3.3-0.7,3.3-2c0-1.4-1.4-1.9-3.5-2.5l-0.9-0.3
			c-2.7-0.7-4.8-1.9-4.8-4.6c0-3.1,2.4-5.1,6.2-5.1c2.1,0,4,0.6,5.6,1.9l-1.4,2.2c-1.2-1-2.5-1.5-4.2-1.5s-2.9,0.7-2.9,1.9
			c0,1.3,1.3,1.8,3,2.3l1,0.3c2.5,0.7,5.3,2.1,5.3,5.1c0,2.9-2.5,4.9-6.4,4.9C110.8,18.8,108.7,18.1,107.2,16.7z"/>
		<path class="st0" d="M145.6,10.9v7.6h-3.1v-7.1c0-1.6-1-2.6-2.5-2.6s-2.5,1-2.5,2.6v7.1h-3.1v-7.1c0-1.6-1-2.6-2.5-2.6
			s-2.5,1-2.5,2.6v7.1h-3.1V6.4h2.9v1.4c0.8-1.1,2.1-1.7,3.6-1.7c1.6,0,2.9,0.7,3.7,1.8c0.9-1.2,2.3-1.8,3.9-1.8
			C143.7,6.2,145.6,8.1,145.6,10.9z"/>
		<path class="st0" d="M163.1,10.9v7.6h-2.9l-0.1-1.7c-0.8,1.3-2.2,2-3.7,2c-2.5,0-4.2-1.5-4.2-3.7c0-2.4,2.1-3.9,5.2-3.9
			c0.8,0,1.7,0.1,2.7,0.3v-0.2c0-1.6-1.1-2.6-2.9-2.6c-1.2,0-2.1,0.3-2.8,1L153,7.8c1.3-1,2.8-1.6,4.9-1.6
			C161.1,6.2,163.1,8.1,163.1,10.9z M160.1,13.5c-0.8-0.2-1.6-0.2-2.3-0.2c-1.4,0-2.4,0.7-2.4,1.7s0.7,1.7,1.9,1.7
			C158.7,16.6,160,15.5,160.1,13.5z"/>
		<path class="st0" d="M178,6.2L177.8,9c-2.5,0-4.2,1.2-4.2,3.1v6.5h-3.1V6.4h2.9V8C174.6,6.8,176.1,6.2,178,6.2z"/>
		<path class="st0" d="M191.9,15.8v2.5c-0.9,0.4-2,0.6-3.1,0.6c-2.2,0-3.7-1.5-3.7-3.8V8.9h-2V6.4h2V2.9h3.1v3.6h3.6V9h-3.6v5.4
			c0,1.1,0.7,1.8,1.7,1.8C190.6,16.1,191.2,16,191.9,15.8z"/>
	</g>
	<path class="st0" d="M60.2,15.7l-6.6-15c-0.2-0.3-0.5-0.5-0.8-0.5H38.9C38.4,0.1,38,0.5,38,1l0,0c0,0.5,0.4,0.9,0.9,0.9h13.3
		l6.3,14.5c0.1,0.3,0.4,0.5,0.7,0.6C59.9,17,60.4,16.3,60.2,15.7z"/>
	<path class="st0" d="M24.2,9.5L24.2,9.5c-0.8-0.8-1.9-1.3-3.1-1.3l0,0l0,0h-9.3l0,0c-1.2,0-2.3,0.5-3.1,1.3l0,0l0,0
		c-0.8,0.8-1.3,1.9-1.3,3.1l0,0l0,0v9.3l0,0c0,1.2,0.5,2.3,1.3,3.1l0,0c0.8,0.8,1.9,1.3,3.1,1.3l0,0h13.6v-2.6v-11l0,0
		C25.4,11.4,24.9,10.3,24.2,9.5z M20.2,21h-7.6v-7.3v-0.3h7.6V21z"/>
</g>
</svg>
