<?xml version="1.0" encoding="utf-8"?>
<!-- Generator: Adobe Illustrator 24.0.2, SVG Export Plug-In . SVG Version: 6.00 Build 0)  -->
<svg version="1.1" id="Capa_1" xmlns="http://www.w3.org/2000/svg" xmlns:xlink="http://www.w3.org/1999/xlink" x="0px" y="0px"
	 viewBox="0 0 193.2 51.3" style="enable-background:new 0 0 193.2 51.3;" xml:space="preserve">
<style type="text/css">
	.st0{fill:#FFFFFF;}
	.st1{fill:#DBFE01;}
</style>
<g>
	<g>
		<path class="st0" d="M62.1,10.8H49.6c-0.2,0-0.3,0.1-0.3,0.3v30.6c0,0.2,0.1,0.3,0.3,0.3h6.1c0.2,0,0.3-0.1,0.3-0.3v-10h5.8
			c3.3,0,6.2-1.1,8.2-2.9c2-1.9,3.1-4.6,3.1-7.7c0-3-1.1-5.6-3.1-7.4C68.1,11.8,65.3,10.8,62.1,10.8z M65,24.6
			c-0.8,0.8-2,1.3-3.5,1.3H56v-9.4h5.4c1.5,0,2.7,0.5,3.5,1.3c0.8,0.8,1.3,2,1.3,3.4C66.2,22.7,65.8,23.8,65,24.6z"/>
		<path class="st0" d="M84.7,18.6c-3.6,0-6.4,0.8-8.8,2.6c-0.1,0.1-0.6,0.4-0.8,0.6c-0.1,0-0.1,0.1,0,0.2l2.9,3.9c0,0,0,0,0.1,0
			c0.1-0.1,0.6-0.5,0.6-0.5c1.2-0.9,2.7-1.4,4.6-1.4c1.6,0,2.8,0.4,3.6,1.1c0.8,0.7,1.2,1.7,1.2,2.9c-1.5-0.3-3-0.4-4.4-0.4
			c-2.9,0-5.3,0.7-7.1,2c-1.8,1.3-2.8,3.2-2.8,5.5c0,2.2,0.8,4,2.3,5.3c1.4,1.3,3.5,2,5.8,2c2.4,0,4.7-1,6.3-2.7l0.1,2
			c0,0.1,0.1,0.3,0.3,0.3h5.7c0.2,0,0.3-0.1,0.3-0.3v-14c0-2.7-1-5-2.8-6.6C90.1,19.4,87.6,18.6,84.7,18.6z M86.7,36.1
			c-0.8,0.9-2,1.3-3.1,1.3c-1,0-1.8-0.3-2.2-0.7c-0.5-0.4-0.7-1-0.7-1.8c0-0.8,0.3-1.4,1-1.9c0.6-0.5,1.6-0.8,2.8-0.8
			c1.1,0,2.4,0.1,3.7,0.4C88,34.2,87.4,35.3,86.7,36.1z"/>
		<path class="st0" d="M121.2,18.9h-7c-0.1,0-0.1,0-0.2,0.1l-5,14.4c0,0.1-0.2,0.1-0.2,0L103,19c0-0.1-0.1-0.1-0.2-0.1h-7.1
			c-0.1,0-0.1,0.1-0.1,0.1l9.8,22c0.1,0.1,0.1,0.3,0,0.4c-0.5,1.3-1.3,2.3-2.1,3c-0.9,0.7-2.2,1-3.8,0.9l-3.4,0
			c-0.1,0-0.2,0.1-0.2,0.2v5.7c0,0.1,0.1,0.2,0.2,0.2h4.2v0c0,0,0,0,0,0c2.8,0,5.1-0.7,7-2.1c2.1-1.5,3.8-3.9,5.1-7.2l8.9-23
			C121.3,19,121.3,18.9,121.2,18.9z"/>
	</g>
	<g>
		<path class="st0" d="M136.2,40.3v1.9c0,0,0,0.1-0.1,0.1c-0.8,0.3-1.7,0.5-2.6,0.5c-1.2,0-2.2-0.5-2.7-1.4
			c-0.9,0.9-2.1,1.4-3.5,1.4c-2.6,0-4.4-1.7-4.4-4.1c0-1.7,1-3.1,2.7-3.8c-1.2-0.6-1.9-1.7-1.9-3c0-2.2,1.9-3.7,4.7-3.7
			c2.7,0,4.6,1.5,4.6,3.7v2h2.9c0.1,0,0.1,0,0.1,0.1v1.8c0,0.1,0,0.1-0.1,0.1H133v3c0,0.9,0.6,1.6,1.4,1.6c0.5,0,1.1-0.1,1.7-0.3
			C136.1,40.2,136.2,40.2,136.2,40.3z M130.4,38.3v-2.4h-2c-1.6,0-2.7,0.9-2.7,2.3c0,1.3,0.9,2.2,2.3,2.2
			C129.3,40.5,130.4,39.9,130.4,38.3z M126.5,32.1c0,1.1,0.8,1.8,2,1.8h2v-1.7c0-1.1-0.8-1.8-2-1.8
			C127.2,30.4,126.5,31.1,126.5,32.1z"/>
	</g>
	<path class="st1" d="M192.3,40.4l-6.3-3.7c-0.3-0.2-0.7,0.1-0.6,0.4l0.4,1.7c-0.5,0.2-5.6,1.6-10.2,1.4c-0.1,0-0.2,0-0.2,0
		c0,0,0,0,0,0c-0.1,0-0.2,0-0.2,0c-0.9-0.1-1.9-0.2-2.7-0.5c-3.4-1.1-5.6-4.4-5.6-8.7c0-5.5,3.4-9.2,8.5-9.2c5.1,0,8.5,3.7,8.5,9.2
		c0,2.3-0.6,4.3-1.7,5.9c0.2,0,0.4-0.1,0.6-0.1c0,0,0,0,0,0l0,0l0,0c0-0.8,0.3-1.5,0.8-2c0.5-0.5,1.2-0.8,1.9-0.8l0,0l0,0
		c0,0,0,0,0,0v0l0,0c0.5,0,0.9,0.1,1.4,0.4l0,0l0,0l5.1,3c0.7-1.9,1.1-4,1.1-6.3c0-10-7.1-16.6-17.8-16.6c-5.1,0-9.3,1.5-12.4,4.1
		c-2.8-2.4-7.5-4.1-12.3-4.1c-3.8,0-7.1,0.9-9.8,2.5c2.5-1.2,5.4-1.9,8.7-1.9c4.5,0,8.6,1.3,11.8,3.7c0.4,0.3,0.4,1,0.1,1.3
		l-4.5,4.3c-0.3,0.3-0.8,0.3-1.2,0c-1.7-1.5-3.5-2.1-6-2.1c-4.8,0-8.1,3.6-8.1,8.9c0,5.4,3.2,8.9,8,8.9c3.7,0,6.2-1.8,6.9-4.7h-5.1
		c-0.6,0-1.1-0.5-1.1-1.1v-5.1c0-0.6,0.5-1.1,1.1-1.1h13.3c0.5,0,0.9,0.4,1,0.9c0,0.7,0.1,1.4,0.1,2.1c0,9.5-6.3,16.2-16.2,16.2
		c-2.7,0-5.1-0.5-7.3-1.3c2.2,1,4.8,1.6,7.4,1.6c0.1,0,0.3,0,0.4,0c0.2,0,0.3,0,0.5,0c5,0,9-1.7,11.9-4.5c2.6,2.4,6.2,4,10.5,4.4
		c5.6,0.8,14-1.6,14.7-1.8l0.4,1.7c0.1,0.3,0.5,0.4,0.7,0.1l3.7-6.2C192.7,40.9,192.6,40.5,192.3,40.4z"/>
	<g>
		<g>
			<g>
				<path class="st1" d="M9.4,11.9v5.5c0,0.6,0.5,1.1,1.1,1.1h6.6v-6.6c0-0.6-0.5-1.1-1.1-1.1h-5.5C9.8,10.8,9.4,11.3,9.4,11.9z"/>
				<path class="st1" d="M40.2,25.1v-5.5c0-0.6-0.5-1.1-1.1-1.1h-6.4c-0.1,0-0.2-0.1-0.2-0.2v-6.4c0-0.6-0.5-1.1-1.1-1.1h-5.5
					c-0.6,0-1.1,0.5-1.1,1.1v6.4c0,0.1-0.1,0.2-0.2,0.2h-7.5v7.7h7.5c0.1,0,0.2,0.1,0.2,0.2V30c0,6.4,5.2,11.6,11.6,11.6h2.8
					c0.6,0,1.1-0.5,1.1-1.1V35c0-0.6-0.5-1.1-1.1-1.1h-2.8c-2.1,0-3.8-1.7-3.8-3.8v-3.7c0-0.1,0.1-0.2,0.2-0.2h6.4
					C39.7,26.2,40.2,25.7,40.2,25.1z"/>
				<path class="st1" d="M10.5,33.9H16c0.6,0,1.1-0.5,1.1-1.1v-6.6h-6.6c-0.6,0-1.1,0.5-1.1,1.1v5.5C9.4,33.4,9.8,33.9,10.5,33.9z"
					/>
			</g>
		</g>
		<path class="st1" d="M38.7,2.7c0-0.3-0.1-0.6-0.3-0.8c-0.2-0.2-0.5-0.3-0.8-0.3h-6.4c-0.9,0-1.6-0.7-1.6-1.6v0l7.9,0
			c0.7,0,1.4,0.3,1.9,0.8c0.5,0.5,0.8,1.2,0.8,1.9v8.1l0,0c-0.9,0-1.6-0.7-1.6-1.6L38.7,2.7z"/>
		<path class="st1" d="M2.8,1.6C2.5,1.6,2.2,1.8,2,2C1.8,2.2,1.6,2.5,1.6,2.8v6.4c0,0.9-0.7,1.6-1.6,1.6h0l0-7.9
			c0-0.7,0.3-1.4,0.8-1.9C1.4,0.4,2,0.1,2.8,0.1h8.1v0c0,0.9-0.7,1.6-1.6,1.6L2.8,1.6z"/>
		<path class="st1" d="M1.6,38.9c0,0.3,0.1,0.6,0.3,0.8c0.2,0.2,0.5,0.3,0.8,0.3h6.4c0.9,0,1.6,0.7,1.6,1.6l0,0l-7.9,0
			c-0.7,0-1.4-0.3-1.9-0.8C0.3,40.4,0,39.7,0,38.9l0-8.1h0c0.9,0,1.6,0.7,1.6,1.6L1.6,38.9z"/>
		<path class="st1" d="M6.3,7.7v13.9h13.9v-0.4V7.7H6.3z M7,8.4h12.4v12.4H7V8.4z"/>
	</g>
</g>
</svg>
