<?xml version="1.0" encoding="utf-8"?>
<!-- Generator: Adobe Illustrator 24.0.2, SVG Export Plug-In . SVG Version: 6.00 Build 0)  -->
<svg version="1.1" id="Capa_1" xmlns="http://www.w3.org/2000/svg" xmlns:xlink="http://www.w3.org/1999/xlink" x="0px" y="0px"
	 viewBox="0 0 210.6 79.3" style="enable-background:new 0 0 210.6 79.3;" xml:space="preserve">
<style type="text/css">
	.st0{fill:#2D3E8E;}
</style>
<g>
	<g>
		<path class="st0" d="M17.1,25.1L17.1,25.1L17.1,25.1L17.1,25.1L17.1,25.1c-0.2,0.5-0.3,0.9-0.3,1.4c0,1.3,0.7,2.7,2.1,3.4
			c1.3,0.7,2.7,1.1,3.5,1.4l0.3,0.1c0.3,0,0.5,0,0.8,0c1,0,1.9-0.2,2.6-0.7s1.2-1.2,1.5-2c0.1-0.3,0.1-0.6,0.1-0.9
			c0-1.5-1-2.9-2.5-3.7c-1-0.5-2.1-0.9-3.2-1.2c-0.4-0.1-0.8-0.2-1.2-0.2C19.2,22.9,17.7,23.7,17.1,25.1z"/>
		<path class="st0" d="M16.7,38.1c2,0.8,4,1.6,6.1,2.4c0.5,0.2,1.1,0.3,1.6,0.3c1.5,0,2.9-0.6,3.6-1.9c0.3-0.6,0.4-1.2,0.4-1.8
			c0-1.2-0.6-2.6-1.9-3.2c-2.6-1.3-5.3-2.3-7.5-3.1l-0.3-0.1h-0.8c-2,0-3.6,1.1-4.1,2.8l0,0l0,0l0,0l0,0c-0.1,0.3-0.1,0.6-0.1,0.9
			C13.9,35.9,15.1,37.4,16.7,38.1z"/>
		<path class="st0" d="M16.2,46.6c2.3,1,4.6,1.9,7,2.8c0.5,0.2,0.9,0.2,1.4,0.2c1.4,0,2.7-0.8,3.4-2c0.3-0.6,0.5-1.2,0.5-1.7
			c0-1.2-0.7-2.4-1.8-3c-2.7-1.4-5.5-2.5-7.5-3.3l-0.3-0.1h-0.7c-1,0-1.9,0.2-2.7,0.7c-0.7,0.5-1.2,1.2-1.4,2l1,0.3l-1-0.3
			C14,42.4,14,42.7,14,43C14,44.5,14.8,45.9,16.2,46.6z"/>
		<path class="st0" d="M24.6,56.1l0.4-0.6l0.1-0.1c0.3-0.5,0.4-1.1,0.4-1.7c0-1.6-1.1-3-2.7-3.7s-3-1.1-4.3-1.2
			c-0.8,0-1.5,0.2-2.1,0.5c-0.6,0.4-1.1,1-1.4,1.6c-0.1,0.3-0.2,0.5-0.2,0.7v0.2v0.1v0.2l0,0c0,1,0.3,1.9,0.9,2.6
			c0.6,0.7,1.4,1.2,2.4,1.6l0,0c1.1,0.4,2.2,1,3.6,1c0.9,0,2-0.3,2.8-1.1L24.6,56.1z"/>
		<path class="st0" d="M24.2,61L24.2,61L24.2,61z"/>
		<path class="st0" d="M58.4,61.9c0-1.9,0-3.6,0-5.1c0-3.1,0-5.8,0-9.7V47v-0.5v-0.1l0,0v-0.2c0-0.1,0-0.3-0.1-0.9l0,0
			c0-1-0.8-1.7-1.8-1.7c-0.9,0-1.6,0.7-1.7,1.5l0,0l-0.1,0.2c0,0,0,1.4,0,1.9c0,7.1,0,8.1,0.1,15.2l0,0c0,0.9-0.2,1.5-0.6,1.9
			c-0.4,0.4-1,0.6-1.9,0.6c-3.8,0-7.6,0-11.4,0c-4.1,0-8.2,0-12.2,0c-0.8,0-1.3-0.2-1.7-0.5c-0.4-0.3-0.6-0.8-0.8-1.6
			c-0.1-0.4-0.2-0.8-0.4-1.1C25.5,61.2,25,61,24.5,61h-0.3c-0.5,0.1-1,0.3-1.2,0.7s-0.3,0.8-0.3,1.2v0.3c0.2,2.9,2.6,5.1,5.6,5.1
			c1.6,0,3.2,0,4.8,0c2.5,0,4.9,0,7.4,0c3.8,0,7.6,0,11.5,0c2,0,3.7-0.5,4.8-1.6C57.9,65.6,58.4,63.9,58.4,61.9z M58.3,46.6
			L58.3,46.6L58.3,46.6L58.3,46.6z M58.4,46.4L58.4,46.4L58.4,46.4L58.4,46.4z"/>
		<path class="st0" d="M37.7,58.9c0,1.7,1.3,2.9,3,2.9s2.9-1.3,2.9-3s-1.3-2.9-3-2.9C38.9,56,37.7,57.2,37.7,58.9z"/>
		<path class="st0" d="M85.8,52.1L85.8,52.1c-2-0.7-6.6-2.2-8.9-3c-0.6-0.2-1-0.3-1.5-0.4c-0.5,0-1,0.3-1.2,0.6
			c-0.1,0.2-0.3,0.4-0.4,0.6c-0.6-0.5-0.9-1.2-1-2c-0.5-3.1-1-6.3-1.6-9.5c-0.7-3.9-1.7-7.7-3.8-11.3c-1.3-2.3-2.6-4.6-3.9-6.9
			c-0.4-0.7-0.8-1.4-1.4-2c-0.6-0.6-1.4-1-2.4-1.1h-0.3c-2,0-3.3,1.3-4.1,2.7c-0.9,1.6-1.4,3.3-1.4,5c0,1.1,0.2,2.1,0.6,3.2
			c1,2.7,2.2,5.1,2.5,7.8c0,0.4,0.2,0.8,0.5,1.2s0.8,0.6,1.3,0.6l0.6-0.1c0.4-0.1,0.7-0.3,0.9-0.6s0.3-0.7,0.3-0.9
			c0-0.3-0.1-0.6-0.1-0.9c-0.4-2.5-0.8-5.1-2.3-7.5L57.6,27c-0.1-0.7-0.2-1.4-0.2-2.1c0-1.3,0.3-2.4,1.1-3.5
			c0.3-0.4,0.6-0.5,0.8-0.5s0.5,0.1,0.8,0.6c0.2,0.3,0.3,0.7,0.6,1.2c0.8,1.5,1.3,3.2,2.5,4.7c1.8,2.3,3,4.9,3.6,7.7
			c0.9,4.4,1.7,8.9,2.5,13.3c0.4,2,1.3,3.8,3.1,5l0.1,0.3l0,0c-0.5,1.6-1.1,3.3-1.6,4.9c-1.1,3.4-2.3,6.7-3.5,10.2l0,0
			c-0.3-0.2-0.5-0.2-1-0.3c-0.6-0.1-1.4-0.2-2.1-0.2c-0.6,0-1.1,0.1-1.7,0.3c-1,0.5-1.6,1-2,1.2c-0.4,0.3-0.5,0.3-0.8,0.3
			S59,70,58.2,69.7c-0.4-0.1-1.1-0.5-1.8-0.5l-0.7,0.2c-0.3,0.1-0.5,0.4-0.6,0.7L55,70.8c0,0.5,0.2,0.9,0.5,1.1
			c0.3,0.3,0.6,0.4,1,0.5c1.5,0.5,2.3,0.8,3.3,0.8c1.1,0,2-0.4,3.5-1.2c0.4-0.2,1-0.4,1.4-0.4H65c0.3,0.1,0.5,0.1,0.6,0.1l0.3,0.1
			c0.1,0,0.2,0.1,0.3,0.2c-0.1,0.2-0.1,0.4-0.2,0.6c-0.1,0.3-0.1,0.6-0.1,0.8c0,1.1,0.7,2.1,1.8,2.5c2.5,0.9,7,2.4,8.9,3l0.6,0.1
			c0.7,0,1.4-0.5,1.7-1.2l0,0l0,0l0,0l0.1-0.6c0-0.7-0.5-1.4-1.2-1.7c-2.6-0.9-5.4-1.8-8.1-2.7c2.3-6.8,4.6-13.5,6.9-20.4
			c0.5,0.2,1,0.3,1.5,0.5l6.6,2.2l0.6,0.1c0.7,0,1.4-0.5,1.7-1.2l0,0l0,0l0,0l0.1-0.6C87,53.1,86.5,52.4,85.8,52.1z"/>
		<path class="st0" d="M14.6,17.4c0,1.5,1.2,2.7,2.7,2.7s2.7-1.2,2.7-2.7s-1.2-2.7-2.7-2.7S14.6,15.9,14.6,17.4z"/>
		<path class="st0" d="M18.8,9.4c0-1-0.8-1.8-1.8-1.8c-5,0-9,4-9,9c0,1,0.8,1.8,1.8,1.8s1.8-0.8,1.8-1.8c0-1.5,0.6-2.8,1.6-3.8
			s2.3-1.6,3.8-1.6C18,11.2,18.8,10.4,18.8,9.4z"/>
		<path class="st0" d="M15.5,3.7c1,0,1.8-0.8,1.8-1.8s-0.8-1.8-1.8-1.8C6.9,0.1,0,7,0,15.6c0,1,0.8,1.8,1.8,1.8s1.8-0.8,1.8-1.8
			c0-3.3,1.3-6.2,3.5-8.4C9.2,5,12.2,3.7,15.5,3.7z"/>
		<path class="st0" d="M36,12.6c0-0.6-0.5-1.1-1.1-1.1s-1.1,0.5-1.2,1.1c0,0.6,0.5,1.1,1.2,1.1C35.5,13.7,36,13.2,36,12.6z"/>
		<path class="st0" d="M22.7,18.1L22.7,18.1L22.7,18.1L22.7,18.1v0.3v0.1l0,0c0.2,0.7,0.8,1.3,1.7,1.3c0.8,0,1.4-0.5,1.6-1.3
			c0.1-0.1,0.1-0.3,0.1-0.4V18l0,0l0,0l0,0c0-0.4,0-1.2,0-1.5c0-2.2,0-2.2,0-2.4s0-0.5,0-2.3c0-0.8,0.2-1.4,0.6-1.8
			c0.4-0.4,0.9-0.6,1.6-0.6c4,0,8.1,0,12.1,0s8.1,0,12.1,0c0.8,0,1.3,0.2,1.6,0.6c0.4,0.4,0.6,0.9,0.6,1.7c0,0.5,0,0.6,0.1,0.8l0,0
			l0,0v0.1l0,0v0.1l0,0v0.1V13l0,0l0,0v0.1v0.1l0,0c0.2,0.7,0.8,1.2,1.6,1.2c1,0,1.7-0.8,1.7-1.7l0,0l0,0c0,0,0-0.2,0-1.1
			c-0.1-1.7-0.7-3.1-1.7-4.1S53.9,6,52.2,6s-3.4,0-5,0c-2.3,0-4.5,0-6.8,0H40c-2.3,0-4.7,0-7,0c-1.7,0-3.3,0-5,0
			c-2.9,0-5.5,2.2-5.5,5.2c-0.1,2.3-0.1,2.8-0.1,3.5C22.7,15.3,22.7,16,22.7,18.1L22.7,18.1z"/>
		<path class="st0" d="M39.1,11.4L39.1,11.4h-0.3v0.1c-0.5,0.1-0.9,0.6-0.9,1.1s0.4,1,0.9,1.1l0,0H39l0,0l0,0l0,0h7.1l0,0h0.1h0.1
			l0,0h0.4v-0.1c0.4-0.2,0.7-0.6,0.7-1c0-0.5-0.3-0.8-0.7-1v-0.1h-7.6V11.4z"/>
		<path class="st0" d="M48.4,30.1c-1.8-1.8-4.3-3-7.1-3c-5.5,0-9.9,4.6-9.9,10.2c0,2.8,1.1,5.4,2.9,7.2l0,0c1.8,1.8,4.3,3,7,3
			c5.5,0,9.9-4.6,9.9-10.1l0,0v-0.3C51.2,34.4,50.2,31.9,48.4,30.1z M47.1,42.7c0,0.2-0.1,0.4-0.4,0.4h-1c-2.3,0-4.2-1.8-4.2-4.2
			v-1.3c0,0,0-0.1-0.1-0.1h-2.7V40c0,0.2-0.1,0.4-0.4,0.4h-2c-0.2,0-0.4-0.2-0.4-0.4v-2c0-0.2,0.1-0.4,0.4-0.4h2.4v-2.8h-2.4
			c-0.2,0-0.4-0.1-0.4-0.4v-2c0-0.2,0.2-0.4,0.4-0.4h2c0.2,0,0.4,0.1,0.4,0.4v2.4h2.7c0,0,0.1,0,0.1-0.1v-2.3c0-0.2,0.1-0.4,0.4-0.4
			h2c0.2,0,0.4,0.1,0.4,0.4v2.3c0,0,0,0.1,0.1,0.1h2.3c0.2,0,0.4,0.1,0.4,0.4v2c0,0.2-0.2,0.4-0.3,0.4h-2.3c0,0-0.1,0-0.1,0.1V39
			c0,0.8,0.6,1.4,1.4,1.4h1c0.2,0,0.4,0.1,0.4,0.4v1.9H47.1z"/>
	</g>
	<g>
		<g>
			<path class="st0" d="M115.4,20.1c0,4.4-3.1,7.4-7.8,7.4H103V35h-4.2V13h8.9C112.4,13,115.4,15.9,115.4,20.1z M111.1,20.3
				c0-2.3-1.5-3.8-3.8-3.8H103V24h4.3C109.7,24.1,111.1,22.5,111.1,20.3z"/>
			<path class="st0" d="M129.4,25v10h-3.9l-0.1-2.3c-1.1,1.7-2.9,2.6-4.9,2.6c-3.3,0-5.6-2-5.6-5c0-3.1,2.7-5.1,6.8-5.1
				c1.1,0,2.3,0.1,3.5,0.4v-0.3c0-2.1-1.4-3.4-3.9-3.4c-1.5,0-2.7,0.4-3.7,1.3l-1.8-2.4c1.7-1.4,3.7-2.1,6.5-2.1
				C126.7,18.7,129.4,21.2,129.4,25z M125.4,28.3c-1-0.2-2.1-0.3-3-0.3c-1.9,0-3.1,0.9-3.1,2.3c0,1.3,0.9,2.2,2.5,2.2
				C123.6,32.4,125.4,31,125.4,28.3z"/>
			<path class="st0" d="M147.8,19v14.5c0,5-3.8,8.3-9.5,8.3c-2.9,0-5.3-0.7-7.1-2l0.9-3.2c1.8,1.2,3.8,1.7,6.1,1.7
				c3.3,0,5.6-1.9,5.6-4.9v-0.8c-1.1,1.6-2.9,2.6-5.3,2.6c-4.3,0-7.7-3.4-7.7-8.4s3.3-8.2,7.7-8.2c2.5,0,4.2,1,5.4,2.7l0.1-2.4h3.8
				V19z M143.8,27c0-2.9-1.8-4.8-4.4-4.8c-2.6,0-4.4,1.9-4.4,4.8s1.8,4.9,4.4,4.9C142,31.8,143.8,29.9,143.8,27z"/>
			<path class="st0" d="M149.3,27c0-5,3.4-8.3,8.6-8.3c5.1,0,8.6,3.3,8.6,8.3s-3.4,8.3-8.6,8.3C152.8,35.3,149.3,32,149.3,27z
				 M162.3,27c0-2.9-1.8-4.8-4.4-4.8c-2.6,0-4.4,1.9-4.4,4.8s1.8,4.8,4.4,4.8S162.3,29.9,162.3,27z"/>
			<path class="st0" d="M167.3,33.4l1.5-2.4c1.5,0.9,3,1.2,4.6,1.2c1.5,0,2.5-0.6,2.5-1.6s-1.1-1.5-2.7-1.9l-1.3-0.4
				c-2.7-0.7-4.5-1.8-4.5-4.3c0-3.2,2.5-5.3,6.3-5.3c2.4,0,4.5,0.5,6,1.6l-1.7,2.6c-1.3-0.7-2.6-1-4.1-1s-2.5,0.5-2.5,1.5
				s1,1.4,2.4,1.8l1.3,0.4c2.7,0.7,4.9,2,4.9,4.8c0,3-2.7,5-6.7,5C170.9,35.3,168.7,34.7,167.3,33.4z"/>
			<path class="st0" d="M186.7,41.4l0.4-3.3c0.4,0.2,0.8,0.3,1.3,0.3c1.3,0,1.8-0.8,2.5-2l0.8-1.7L184.8,19h4.4l4.5,11.3L198,19h4.4
				l-7.5,17.9c-1.3,3.1-2.6,5-5.7,5C188.2,41.9,187.3,41.7,186.7,41.4z"/>
			<path class="st0" d="M108.1,49.8l-0.3,3.7c-3.3,0-5.5,1.6-5.5,4v8.6h-4v-16h3.9l0.1,2.1C103.5,50.6,105.5,49.8,108.1,49.8z"/>
			<path class="st0" d="M123,59.5h-11.6c0.3,2.3,1.5,3.7,3.8,3.7c1.6,0,3-0.7,3.9-1.9l3.1,1.6c-1.4,2.1-4,3.5-7,3.5
				c-4.9,0-8.2-3.3-8.2-8.2c0-5,3.2-8.4,8-8.4s8,3.2,8,8C123.1,58.4,123.1,59,123,59.5z M111.4,56.8h7.5c-0.3-2.4-1.6-3.8-3.7-3.8
				C113,53,111.8,54.4,111.4,56.8z"/>
			<path class="st0" d="M123.7,58.1c0-5,3.4-8.3,8.6-8.3c2.1,0,4,0.7,5.5,1.8l-2.3,2.7c-0.8-0.7-1.8-1.1-3.1-1.1
				c-2.7,0-4.5,1.9-4.5,4.8c0,2.9,1.8,4.8,4.5,4.8c1.5,0,2.7-0.4,3.6-1.4l2.3,2.7c-1.5,1.5-3.7,2.2-6.1,2.2
				C127.1,66.4,123.7,63.1,123.7,58.1z"/>
			<path class="st0" d="M152.4,56v10.1h-3.9l-0.1-2.3c-1.1,1.7-2.9,2.6-4.9,2.6c-3.3,0-5.6-2-5.6-5c0-3.1,2.7-5.1,6.8-5.1
				c1.1,0,2.3,0.1,3.5,0.4v-0.3c0-2.1-1.4-3.4-3.9-3.4c-1.5,0-2.7,0.4-3.7,1.3l-1.8-2.4c1.7-1.4,3.7-2.1,6.5-2.1
				C149.7,49.8,152.4,52.2,152.4,56z M148.4,59.4c-1-0.2-2.1-0.3-3-0.3c-1.9,0-3.1,0.9-3.1,2.3c0,1.3,0.9,2.2,2.5,2.2
				C146.6,63.5,148.4,62,148.4,59.4z"/>
			<path class="st0" d="M164.6,49.8l-0.3,3.7c-3.3,0-5.5,1.6-5.5,4v8.6h-4v-16h3.9l0.1,2.1C160,50.6,162,49.8,164.6,49.8z"/>
			<path class="st0" d="M180.6,50.1v14.5c0,5-3.8,8.3-9.5,8.3c-2.9,0-5.3-0.7-7.1-2l0.9-3.2c1.8,1.2,3.8,1.7,6.1,1.7
				c3.3,0,5.6-1.9,5.6-4.9v-0.8c-1.1,1.6-2.9,2.6-5.3,2.6c-4.3,0-7.7-3.4-7.7-8.4s3.3-8.2,7.7-8.2c2.5,0,4.2,1,5.4,2.7l0.1-2.4
				L180.6,50.1L180.6,50.1z M176.6,58.1c0-2.9-1.8-4.8-4.4-4.8c-2.6,0-4.4,1.9-4.4,4.8c0,2.9,1.8,4.9,4.4,4.9
				C174.8,62.9,176.6,61,176.6,58.1z"/>
			<path class="st0" d="M196.3,56v10.1h-3.9l-0.1-2.3c-1.1,1.7-2.9,2.6-4.9,2.6c-3.3,0-5.6-2-5.6-5c0-3.1,2.7-5.1,6.8-5.1
				c1.1,0,2.3,0.1,3.5,0.4v-0.3c0-2.1-1.4-3.4-3.9-3.4c-1.5,0-2.7,0.4-3.7,1.3l-1.8-2.4c1.7-1.4,3.7-2.1,6.5-2.1
				C193.5,49.8,196.3,52.2,196.3,56z M192.3,59.4c-1-0.2-2.1-0.3-3-0.3c-1.9,0-3.1,0.9-3.1,2.3c0,1.3,0.9,2.2,2.5,2.2
				C190.5,63.5,192.2,62,192.3,59.4z"/>
			<path class="st0" d="M197.8,64.5l1.5-2.4c1.5,0.9,3,1.2,4.6,1.2c1.5,0,2.5-0.6,2.5-1.6s-1.1-1.5-2.7-1.9l-1.3-0.4
				c-2.7-0.7-4.5-1.8-4.5-4.3c0-3.2,2.5-5.3,6.3-5.3c2.4,0,4.5,0.5,6,1.6l-1.7,2.6c-1.3-0.7-2.6-1-4.1-1s-2.5,0.5-2.5,1.5
				s1,1.4,2.4,1.8l1.3,0.4c2.7,0.7,4.9,2,4.9,4.8c0,3-2.7,5-6.7,5C201.5,66.4,199.3,65.8,197.8,64.5z"/>
		</g>
	</g>
</g>
</svg>
