<svg xmlns="http://www.w3.org/2000/svg" viewBox="0 0 26.62 25.4"><defs><style>.cls-1{fill:#fff;}.cls-2{fill:#02dcff;}</style></defs><title>MIS ACCIONES</title><g id="Capa_2" data-name="Capa 2"><g id="Capa_1-2" data-name="Capa 1"><path class="cls-1" d="M26.62,16.74V24c0,.92-.44,1.36-1.35,1.36H22.73a1.18,1.18,0,0,1-1.31-1.33c0-3.31,0-6.62,0-9.94,0-1.55,0-3.11,0-4.67a1.21,1.21,0,0,1,1.37-1.39h2.54a1.17,1.17,0,0,1,1.28,1.27Q26.63,13,26.62,16.74Z"/><path class="cls-1" d="M12.34,18v6A1.19,1.19,0,0,1,11,25.39H8.41A1.17,1.17,0,0,1,7.14,24.1V14.71c0-1,0-2,0-3a1.13,1.13,0,0,1,1.27-1.2h2.65a1.14,1.14,0,0,1,1.26,1.18c0,1.09,0,2.18,0,3.27Z"/><path class="cls-2" d="M17.85,6.74l3.84-3.66a2.41,2.41,0,0,1,.24-.21.88.88,0,0,0,.38-1,1.62,1.62,0,0,1,1-1.72,1.73,1.73,0,0,1,2.23,2.41,1.64,1.64,0,0,1-1.8.86.83.83,0,0,0-.88.27c-1.33,1.29-2.67,2.56-4,3.83a.66.66,0,0,0-.24.58,1.73,1.73,0,0,1-3.43.4.78.78,0,0,0-.24-.41c-1.29-.8-2.59-1.58-3.9-2.37a1.59,1.59,0,0,1-1.89.39c-.56-.32-.86-.09-1.26.2-1.1.81-2.2,1.6-3.31,2.38a.5.5,0,0,0-.25.52A1.75,1.75,0,0,1,3,11a1.78,1.78,0,0,1-1.85-.69,1.74,1.74,0,0,1,.06-2.1,1.7,1.7,0,0,1,2-.48.48.48,0,0,0,.53-.07c1.31-1,2.62-1.88,3.92-2.84A.76.76,0,0,0,8,4.39a1.75,1.75,0,0,1,3.46-.16.81.81,0,0,0,.3.46c1.19.74,2.38,1.46,3.59,2.17a.46.46,0,0,0,.37,0A1.85,1.85,0,0,1,17.85,6.74Z"/><path class="cls-1" d="M19.48,20.15v3.92a1.17,1.17,0,0,1-1.31,1.32H15.55a1.17,1.17,0,0,1-1.27-1.28q0-4,0-8a1.2,1.2,0,0,1,1.31-1.3h2.58a1.2,1.2,0,0,1,1.31,1.3Z"/><path class="cls-1" d="M5.2,20.55v3.52a1.18,1.18,0,0,1-1.32,1.32H1.3A1.17,1.17,0,0,1,0,24.09V17a1.18,1.18,0,0,1,1.28-1.32H3.9A1.18,1.18,0,0,1,5.2,17Z"/></g></g></svg>