<svg xmlns="http://www.w3.org/2000/svg" viewBox="0 0 24.03 24.69"><defs><style>.cls-1{fill:#22284d;}</style></defs><title>NOMBRE</title><g id="Capa_2" data-name="Capa 2"><g id="Capa_1-2" data-name="Capa 1"><polygon class="cls-1" points="6.38 2.35 6.38 2.34 6.38 2.34 6.38 2.35"/><polygon class="cls-1" points="6.38 13.61 6.38 13.61 6.38 13.61 6.38 13.61"/><path class="cls-1" d="M24,23.42A12.73,12.73,0,0,0,15,15.36a8.05,8.05,0,0,0,2.62-1.74h0A8,8,0,0,0,20,8h0a8,8,0,0,0-2.32-5.63h0A8,8,0,1,0,9,15.37,12.7,12.7,0,0,0,.06,23.42a1,1,0,0,0,.57,1.22,1,1,0,0,0,1.22-.58h0a10.8,10.8,0,0,1,20.33,0A1,1,0,1,0,24,23.42ZM7.73,12.26a6,6,0,0,1,0-8.57h0A5.93,5.93,0,0,1,12,1.91a6.05,6.05,0,0,1,4.31,1.78,6.07,6.07,0,0,1,0,8.57A6.06,6.06,0,0,1,12,14.05a5.93,5.93,0,0,1-4.28-1.78Z"/></g></g></svg>