<svg xmlns="http://www.w3.org/2000/svg" viewBox="0 0 80.32 80.29"><defs><style>.cls-1{fill:#2d3d88;}</style></defs><title>PAISES</title><g id="Capa_2" data-name="Capa 2"><g id="Capa_1-2" data-name="Capa 1"><path class="cls-1" d="M80.32,40.19A40.16,40.16,0,1,1,40.47,0,40.28,40.28,0,0,1,80.32,40.19ZM17.67,41.31c-.65-.44-1.13-.75-1.59-1.08a13.93,13.93,0,0,0-2-1.42,1.65,1.65,0,0,0-2.27.93,8.77,8.77,0,0,0-.24,2.69,5.7,5.7,0,0,0,2,.09c1.3-.47,1.64.09,1.68,1.22a7.33,7.33,0,0,0,.13.94C16,48,16,48,19.25,47a5.3,5.3,0,0,1,4.72.33c1.8,1.16,3.63,2.27,5.36,3.53,4.46,3.25,4.74,5.91,1.26,10.22-1.74,2.16-3.51,4.31-5,6.62A14.7,14.7,0,0,0,24,71.84c-.25.89.23,1.49,1.14,1.88a36.7,36.7,0,0,0,49.6-22.4c.88-2.65.79-4.76-1.19-6.79-1.79-1.83-3.7-3.29-6.56-3.32,0,3-1.54,4.64-4.17,5.59h2.47a12,12,0,0,1-1.91,5.26c-1.51,2.79-2.89,5.66-4.49,8.39a17.37,17.37,0,0,1-3,3.82c-1.19,1.12-2.42.8-3-.72a18.82,18.82,0,0,1-1-3.94c-.34-2.06-.41-4.17-.85-6.2C50.52,51,49.29,50.16,46.91,50c-.72-.06-1.45-.12-2.17-.22a4.78,4.78,0,0,1-4.35-4.8,7.9,7.9,0,0,1,3.54-7.42c-1.21-1.13-1.3-1.53-.15-2.57s2-2.09,1.68-3.63l-2.62-1A18.61,18.61,0,0,1,44,27.9c.35-.5,1.09-1.26,1.38-1.15a3.17,3.17,0,0,1,1.49,1.49,5.7,5.7,0,0,1,.33,1.88l.4.08a23,23,0,0,0,1.14-2.67c.31-1,.4-2.15.65-3.21.61-2.62,2-3.87,4.73-3.76a30.18,30.18,0,0,1,4.54.82c.6-1.72,2.6-.87,3.87-1.64-2-1.75-2.3-2.36-1.6-3.58a2.5,2.5,0,0,1,2.76-1.45,12.57,12.57,0,0,0-1.51,3.19c-.07.37,1.31,1,1.74,1.32L67,15.77C54.44,1.12,31.94-.28,17.79,11.08L22,13.53l-1.47-2.95c4.05.2,7.77-1.19,11.68-.37A89,89,0,0,1,43.05,13a30.88,30.88,0,0,0-1.25,4.1,6.84,6.84,0,0,1-3.72,5.36c-1.65.89-3.15,2.06-4.86,3.2a4.35,4.35,0,0,1-1.8-3.21c-.26-1.57-.38-3.16-.55-4.74-.15-1.34-.22-2.74-2.48-2.43l1.05-2.83-4.26,1.71.73,1-1.06.59c2.42,1,3,3.17,4,5.1.17.35.27,1,.08,1.18s-.79.26-1.1.35c-.3.42-.52,1.05-.87,1.15-1.08.28-.84,1-.93,1.82,1.58-.26,2.14.68,2.4,1.89.33,1.54.62,3.09.92,4.64-1.39.61-1.63.44-1.67-1.36L25.48,31l0,.35,1.53.88c-1.38.67-2.5,1.19-3.6,1.75-.84.43-1.94.72-2.42,1.41C19.81,37.16,18.87,39.13,17.67,41.31Zm4.07,30.47c-.28-3.08-.54-6.2-.84-9.31-.27-2.85-1.93-5.06-3.51-7.27a3.5,3.5,0,0,1-.33-3.94,7.08,7.08,0,0,0,.65-2.19,1.14,1.14,0,0,0-.71-.86,7.62,7.62,0,0,1-5.09-2.63c-1.55-1.51-3-3.18-4.47-4.81l-.59.45c-2.49-3.82-1.72-8-1.7-12.14C-.56,44.94,7,64.19,21.74,71.78Z"/><path class="cls-1" d="M63.18,61.29a3.56,3.56,0,0,1-.8-3.85c.43-1,1.13-1.43,2.64-1.41C64.78,57.9,64.78,59.79,63.18,61.29Z"/></g></g></svg>