<svg xmlns="http://www.w3.org/2000/svg" viewBox="0 0 23.3 23.3"><defs><style>.cls-1{fill:#02dcff;}.cls-2{fill:#22284d;}</style></defs><title>PAÍS</title><g id="Capa_2" data-name="Capa 2"><g id="Capa_1-2" data-name="Capa 1"><path class="cls-1" d="M17.94,18.43a8.71,8.71,0,0,1-14-9.93,12,12,0,0,1,1.44.75c-.27.29.41.58.5,1,.29-.13.3,1.2.87-.39-.07.9.19,1.28.72,1.13a1.47,1.47,0,0,0,.2,1.16.8.8,0,0,0,1,.48c.31.43-.67,1.46-1,1.85-.57.63.42,1.07.91,1.78S9.13,17.5,9.82,18a3.14,3.14,0,0,1,.65,1.07c.13.32.18.22.19.57s.39.62.72.68c0-.4-.33-.68-.29-1.09S11,18.39,11,18a6.59,6.59,0,0,1,1.42-2.49,2.38,2.38,0,0,0,.72-1.38c0-.27-.44-.43-.86-.72-.05,0-.63-.08-.68-.11-.38-.24-.18-.6-.63-.73a8.36,8.36,0,0,0-1.83-.09c-.94-.13-1,.23-1-.34.29,0,.19-1.11.06-1.38s0,0,0-.3.36-.59.66-.75c1.24-.66.31-1.64,1.55-2.3.42-.22,3.27-.48,3.54-.88A3.89,3.89,0,0,1,16.59,5a8.58,8.58,0,0,1,1.11.88c0,.08.07.14.17.21l.09.07L17.84,6l.1.1.17.18L18,6.16a4.91,4.91,0,0,1,.72,1.18.37.37,0,0,1,0,.25c0,.1-.14.14-.24.19-.6.26-1.55.39-1.88,1-.06.11-.38.42-.36.55s-.3.51-.38.67c-.21.45,0,.14.19.55.1.25.59.11.82.25.81.47.63-.11.9-.07s.43.44.46.7a1.34,1.34,0,0,1-.06.4c-.09.49.26.68.76.7-.09.34.36,1,.36,1,.22,0,.19-.17.26-.38s.22-.16.19-.37a.58.58,0,0,1,.5,0,2.27,2.27,0,0,1-.32,1c-.2.31-.49.66-.37,1a.58.58,0,0,0,.45.35A8.58,8.58,0,0,1,17.94,18.43Z"/><path class="cls-2" d="M11.65,0A11.65,11.65,0,1,0,23.3,11.65,11.65,11.65,0,0,0,11.65,0Zm7.47,19.12a10.56,10.56,0,0,1-17-12A13.45,13.45,0,0,1,3.88,8c-.33.35.49.71.6,1.19.35-.16.36,1.46,1.06-.47-.09,1.09.23,1.55.87,1.37a1.77,1.77,0,0,0,.23,1.4,1,1,0,0,0,1.24.59c.38.52-.8,1.76-1.23,2.24-.7.77.51,1.3,1.11,2.15S8.44,18,9.28,18.59a3.83,3.83,0,0,1,.79,1.29c.15.39.22.27.23.69s.48.76.87.83c0-.49-.4-.82-.35-1.32s-.14-1-.06-1.45a7.94,7.94,0,0,1,1.72-3A2.79,2.79,0,0,0,13.35,14c0-.34-.53-.53-1-.88-.06,0-.76-.09-.83-.14-.46-.28-.21-.72-.76-.87a9.71,9.71,0,0,0-2.21-.12c-1.14-.16-1.2.28-1.2-.41.34,0,.22-1.34.07-1.67s0,0,0-.37.44-.71.8-.9c1.5-.8.38-2,1.88-2.79.5-.27,4-.58,4.29-1.07a4.75,4.75,0,0,1,3.13-1.89,11.43,11.43,0,0,1,1.34,1.07c0,.1.08.17.21.25l.1.09L19,4.06l.12.12.21.22c-.07-.05-.12-.11-.19-.15A6.19,6.19,0,0,1,20,5.68a.4.4,0,0,1,0,.3c0,.12-.17.18-.28.23-.73.32-1.89.47-2.28,1.16-.08.14-.46.51-.43.67s-.38.62-.47.81c-.26.55,0,.17.23.67.12.3.71.14,1,.3,1,.57.77-.14,1.09-.08s.53.53.57.85a1.61,1.61,0,0,1-.08.48c-.11.6.32.82.93.85-.12.42.43,1.26.43,1.26.26.06.22-.21.31-.46s.27-.19.23-.45a.76.76,0,0,1,.61,0,2.75,2.75,0,0,1-.39,1.18c-.24.38-.6.8-.45,1.23a.71.71,0,0,0,.55.42A10.47,10.47,0,0,1,19.12,19.12Z"/></g></g></svg>