<svg xmlns="http://www.w3.org/2000/svg" viewBox="0 0 69.35 69.35"><defs><style>.cls-1{fill:#22294d;}.cls-2{fill:#02dbff;}.cls-3{fill:#000a64;}</style></defs><title>PDF-DESCARGAR</title><g id="Capa_2" data-name="Capa 2"><g id="Capa_1-2" data-name="Capa 1"><path class="cls-1" d="M41.34,63.05A1.69,1.69,0,0,1,40,62.3l-.4-.52c-2-2.52-4-5.14-5.92-7.74a1.66,1.66,0,0,1-.32-1.74A1.74,1.74,0,0,1,35,51.37h.47a6.6,6.6,0,0,0,1.69-.1,9.5,9.5,0,0,0,.06-1.59V44.79q0-1.62,0-3.24c0-1.81.82-2.59,2.67-2.6H42.8c1.87,0,2.63.77,2.64,2.61v9.2c0,.22,0,.44,0,.6h2.06a1.63,1.63,0,0,1,1.41,2.81l-5.14,6.71-.38.5c-.22.3-.44.59-.67.88A1.73,1.73,0,0,1,41.34,63.05Z"/><path class="cls-2" d="M46.68,13.34V20a5.34,5.34,0,0,1-5.34,5.34H6.67A5.34,5.34,0,0,1,1.33,20V13.34A5.34,5.34,0,0,1,6.67,8H41.34A5.34,5.34,0,0,1,46.68,13.34Z"/><path class="cls-3" d="M12.76,18.33h1.11c1.89,0,3.61-1,3.61-3.16s-1.67-3-3.61-3h-3.5v9h2.39Zm0-4.27h1c.89,0,1.39.3,1.39,1.11s-.45,1.28-1.39,1.28h-1Z"/><path class="cls-3" d="M26.24,16.64c0-3.19-1.88-4.47-4.63-4.47H18.94v9h2.81C24.36,21.19,26.24,19.83,26.24,16.64Zm-4.91,2.64V14.09h.14c1.3,0,2.33.44,2.33,2.55s-1,2.64-2.33,2.64Z"/><polygon class="cls-3" points="30.23 17.89 33.23 17.89 33.23 15.89 30.23 15.89 30.23 14.17 33.73 14.17 33.73 12.17 27.85 12.17 27.85 21.19 30.23 21.19 30.23 17.89"/><rect class="cls-3" x="5.33" y="18.67" width="2.67" height="2.67"/><path class="cls-3" d="M55.62.39A1.33,1.33,0,0,0,54.68,0H20a6.67,6.67,0,0,0-6.66,6.67H6.67A6.67,6.67,0,0,0,0,13.34V20a6.67,6.67,0,0,0,6.67,6.67h6.67V57.35A6.68,6.68,0,0,0,20,64h4a1.34,1.34,0,0,0,0-2.67H20a4,4,0,0,1-4-4V26.67H41.34A6.67,6.67,0,0,0,48,20V13.34a6.67,6.67,0,0,0-6.67-6.67H16a4,4,0,0,1,4-4H52v8a6.67,6.67,0,0,0,6.67,6.67h8v40a4,4,0,0,1-4,4h-4a1.34,1.34,0,0,0,0,2.67h4a6.68,6.68,0,0,0,6.67-6.67V14.67a1.33,1.33,0,0,0-.39-.94Zm-14.28,9a4,4,0,0,1,4,4V20a4,4,0,0,1-4,4H6.67a4,4,0,0,1-4-4V13.34a4,4,0,0,1,4-4Z"/><path class="cls-3" d="M49.35,42.68H47.92c0,.88,0,1.77,0,2.66h1.42a4,4,0,0,1,4,4V62.68a4,4,0,0,1-4,4h-16a4,4,0,0,1-4-4V49.34a4,4,0,0,1,4-4h1.37V42.68H33.34a6.68,6.68,0,0,0-6.67,6.66V62.68a6.68,6.68,0,0,0,6.67,6.67h16A6.67,6.67,0,0,0,56,62.68V49.34A6.67,6.67,0,0,0,49.35,42.68Z"/></g></g></svg>