<svg xmlns="http://www.w3.org/2000/svg" viewBox="0 0 27.67 20.48"><defs><style>.cls-1{fill:#02dcff;}.cls-2{fill:#fff;}</style></defs><title>POLITICAS DE PRIVACIDAD</title><g id="Capa_2" data-name="Capa 2"><g id="Capa_1-2" data-name="Capa 1"><path class="cls-1" d="M8.27,14.09a10.47,10.47,0,0,0-6.16,4.4,1.18,1.18,0,0,0,1,1.83H18.41a1.19,1.19,0,0,0,1-1.83,10.49,10.49,0,0,0-6.07-4.37.83.83,0,0,0-.81.24,2.46,2.46,0,0,1-1.76.69A2.53,2.53,0,0,1,9,14.3.87.87,0,0,0,8.27,14.09Z"/><path class="cls-2" d="M17.71,13.65a12.25,12.25,0,0,0-4.08-1.55l-.09.49.19.46a6.81,6.81,0,0,0,4.14-6.26,6.93,6.93,0,0,0-.16-1.49A6.76,6.76,0,0,0,12.54.15,7.31,7.31,0,0,0,11.08,0,6.8,6.8,0,0,0,8.42,13.05a.51.51,0,0,0,.66-.27.5.5,0,0,0-.27-.65A5.8,5.8,0,0,1,11.08,1a6.13,6.13,0,0,1,1.26.13,5.75,5.75,0,0,1,4.39,4.38,6.27,6.27,0,0,1,.14,1.28,5.82,5.82,0,0,1-3.53,5.34.5.5,0,0,0,.1.95,11.08,11.08,0,0,1,3.75,1.43.49.49,0,0,0,.68-.17.5.5,0,0,0-.16-.69Z"/><path class="cls-2" d="M3.52,14.27a13,13,0,0,0-3.2,3.29,1.81,1.81,0,0,0-.32,1A1.92,1.92,0,0,0,.53,19.9a1.9,1.9,0,0,0,1.37.58H15.79a.5.5,0,0,0,0-1H1.9a.9.9,0,0,1-.9-.89.77.77,0,0,1,.15-.47,12,12,0,0,1,2.95-3,.5.5,0,0,0,.12-.7.51.51,0,0,0-.7-.11Z"/><path class="cls-1" d="M23.43,14.38a1,1,0,1,1-1-1A1,1,0,0,1,23.43,14.38Z"/><path class="cls-2" d="M22.42,19.93v-.5a4.23,4.23,0,0,1-4.25-4.25V11.67l.08-.08h8.34l.08.08v3.51a4.25,4.25,0,0,1-4.25,4.25v1a5.25,5.25,0,0,0,5.25-5.25V11.67a1.08,1.08,0,0,0-1.08-1.08H18.25a1.08,1.08,0,0,0-1.08,1.08v3.51a5.25,5.25,0,0,0,5.25,5.25Z"/><path class="cls-2" d="M20.64,11.09V9.7a1.78,1.78,0,1,1,3.56,0v1.39a.5.5,0,0,0,1,0V9.7a2.78,2.78,0,1,0-5.56,0v1.39a.5.5,0,0,0,.5.5.51.51,0,0,0,.5-.5Z"/><path class="cls-2" d="M22.42,13.37a1,1,0,1,1-1,1,1,1,0,0,1,1-1m0-1a2,2,0,1,0,2,2A2,2,0,0,0,22.42,12.37Z"/><path class="cls-2" d="M22.92,17.33V16.06a.5.5,0,0,0-.5-.5.5.5,0,0,0-.5.5v1.27a.5.5,0,0,0,.5.5.51.51,0,0,0,.5-.5"/></g></g></svg>