<svg xmlns="http://www.w3.org/2000/svg" viewBox="0 0 36.95 36.95"><defs><style>.cls-1{fill:#2d3e8e;}</style></defs><title>RECORRIDO VIRTUAL</title><g id="Capa_2" data-name="Capa 2"><g id="Capa_1-2" data-name="Capa 1"><path class="cls-1" d="M24,24.14c0,.86-.66,1.44-1.72,1.44a2,2,0,0,1-1.38-.45l.33-.63a1.26,1.26,0,0,0,.95.37c.58,0,.93-.29.93-.73s-.34-.7-.86-.7a1.29,1.29,0,0,0-.62.14l-.23-.43,1.25-1.43H21.13V21h2.66v.53l-1.16,1.24A1.32,1.32,0,0,1,24,24.14Z"/><path class="cls-1" d="M27.69,24.14a1.43,1.43,0,0,1-1.58,1.44,1.43,1.43,0,0,1-1.58-1.43A2.19,2.19,0,0,1,25,22.81L26.3,21h1L26,22.78a1.72,1.72,0,0,1,.34,0A1.35,1.35,0,0,1,27.69,24.14Zm-.89,0a.69.69,0,1,0-.69.73A.68.68,0,0,0,26.8,24.14Z"/><path class="cls-1" d="M28.13,23.26c0-1.39.69-2.32,1.73-2.32s1.71.93,1.71,2.32-.68,2.32-1.71,2.32S28.13,24.66,28.13,23.26Zm2.56,0c0-1-.33-1.6-.83-1.6s-.83.64-.83,1.6.32,1.61.83,1.61S30.69,24.23,30.69,23.26Z"/><path class="cls-1" d="M32.1,19.68a.86.86,0,1,0,0,1.71.85.85,0,0,0,.85-.85A.86.86,0,0,0,32.1,19.68Zm0,1.24a.38.38,0,1,1,.37-.38A.38.38,0,0,1,32.1,20.92Z"/><path class="cls-1" d="M33.57,5H30.21l-.16-.62a1.19,1.19,0,0,0-1.15-.88H25a1.17,1.17,0,0,0-1.14.88L23.66,5H20.3a2.81,2.81,0,0,0-2.81,2.81V15.3a2.8,2.8,0,0,0,2.81,2.8H33.57a2.8,2.8,0,0,0,2.81-2.8V7.84A2.81,2.81,0,0,0,33.57,5ZM26,4.58h1.81a.53.53,0,0,1,.53.53.52.52,0,0,1-.53.52H26a.52.52,0,0,1-.52-.52A.52.52,0,0,1,26,4.58Zm.91,11.51a4.53,4.53,0,1,1,4.52-4.52A4.52,4.52,0,0,1,26.94,16.09Zm7.35-7.51h-.77A.57.57,0,0,1,33,8a.56.56,0,0,1,.56-.57h.77a.57.57,0,0,1,.57.57A.58.58,0,0,1,34.29,8.58Z"/><path class="cls-1" d="M33.6,24.89a14.73,14.73,0,0,1,1.17,5.23,4.72,4.72,0,0,1-1.18,3.47,4.72,4.72,0,0,1-3.47,1.18c-2.85,0-6.93-1.51-11.13-4.35a1.09,1.09,0,0,0-1.22,1.81c4.45,3,8.78,4.71,12.35,4.72a6.88,6.88,0,0,0,5-1.82,6.88,6.88,0,0,0,1.82-5,16.75,16.75,0,0,0-1.32-6,1.09,1.09,0,0,0-2,.8Z"/><path class="cls-1" d="M13.83,20.76a.83.83,0,0,0-.56-.6.8.8,0,0,0-.79.21L10.2,22.64a41.08,41.08,0,0,1-5.78-8.22A17.59,17.59,0,0,1,2.18,6.83,4.64,4.64,0,0,1,3.37,3.37,4.64,4.64,0,0,1,6.83,2.18,15.36,15.36,0,0,1,12.67,3.6a1.09,1.09,0,1,0,.86-2A17.37,17.37,0,0,0,6.83,0a6.94,6.94,0,0,0-5,1.82A6.92,6.92,0,0,0,0,6.83a19.71,19.71,0,0,0,2.48,8.58,43.11,43.11,0,0,0,6.18,8.78L6.43,26.42a.77.77,0,0,0-.2.79.79.79,0,0,0,.59.55l7.69,1.68a.81.81,0,0,0,.74-.21.82.82,0,0,0,.22-.73ZM8.59,26.51l4-4,1.08,5.08Z"/><circle class="cls-1" cx="26.94" cy="11.57" r="2.5"/></g></g></svg>