<svg xmlns="http://www.w3.org/2000/svg" viewBox="0 0 25.99 20.82"><defs><style>.cls-1{fill:#02dcff;}.cls-2{fill:#fff;}</style></defs><title>TERM Y CONDICIONES</title><g id="Capa_2" data-name="Capa 2"><g id="Capa_1-2" data-name="Capa 1"><path class="cls-1" d="M10,2.18H3.54A3.53,3.53,0,0,0,0,5.72V15.87a3.54,3.54,0,0,0,3.54,3.54H8.77a1.14,1.14,0,0,0,1.06-1.59,14.7,14.7,0,0,1-1.24-5.21c-.07-2-.07-4.11-.05-5.61a2.85,2.85,0,0,1,1.87-2.6l.05,0A1.15,1.15,0,0,0,10,2.18Z"/><path class="cls-2" d="M20.4,14.72V12.61a1,1,0,0,0-2,0v2.11a1,1,0,0,0,2,0"/><path class="cls-2" d="M12.22,17.23H4a1.9,1.9,0,0,1-1.89-1.89V2.89A1.9,1.9,0,0,1,4,1h9.46A2.54,2.54,0,0,1,16,3.54a.5.5,0,0,0,.5.5.5.5,0,0,0,.5-.5A3.54,3.54,0,0,0,13.42,0H4A2.89,2.89,0,0,0,1.07,2.89V15.34A2.9,2.9,0,0,0,4,18.23h8.26a.51.51,0,0,0,.5-.5.5.5,0,0,0-.5-.5Z"/><path class="cls-2" d="M23.2,5.86v-.5H15.28a.5.5,0,0,0-.35.14.51.51,0,0,0-.15.36A1.79,1.79,0,0,1,13,7.65a.5.5,0,0,0-.35.14.51.51,0,0,0-.15.36V12.5a7.38,7.38,0,0,0,3.33,6.17L19,20.74a.5.5,0,0,0,.55,0l3.15-2.07A7.38,7.38,0,0,0,26,12.5V8.15a.51.51,0,0,0-.15-.36.5.5,0,0,0-.35-.14A1.79,1.79,0,0,1,23.7,5.86a.55.55,0,0,0-.15-.36.5.5,0,0,0-.35-.14v.5h-.5a2.79,2.79,0,0,0,2.79,2.79v-.5H25V12.5a6.38,6.38,0,0,1-2.88,5.34l-2.87,1.88-2.87-1.88a6.38,6.38,0,0,1-2.88-5.34V8.15H13v.5a2.79,2.79,0,0,0,2.79-2.79h-.5v.5H23.2v-.5h0Z"/><path class="cls-1" d="M20.53,10.79A1.14,1.14,0,1,1,19.4,9.66,1.14,1.14,0,0,1,20.53,10.79Z"/><path class="cls-2" d="M19.4,9.66a1.14,1.14,0,1,1-1.14,1.13A1.14,1.14,0,0,1,19.4,9.66m0-1a2.14,2.14,0,1,0,2.13,2.13A2.14,2.14,0,0,0,19.4,8.66Z"/><path class="cls-2" d="M5,3.93h8a.5.5,0,0,0,.5-.5.5.5,0,0,0-.5-.5H5a.5.5,0,0,0-.5.5.51.51,0,0,0,.5.5"/><path class="cls-2" d="M5,6.81h5.77a.5.5,0,0,0,.5-.5.5.5,0,0,0-.5-.5H5a.51.51,0,0,0-.5.5.5.5,0,0,0,.5.5"/><path class="cls-2" d="M5,9.61h5.77a.5.5,0,0,0,.5-.5.5.5,0,0,0-.5-.5H5a.51.51,0,0,0-.5.5.5.5,0,0,0,.5.5"/><path class="cls-2" d="M5,15.3H9.9a.5.5,0,1,0,0-1H5a.5.5,0,0,0,0,1"/></g></g></svg>