<svg xmlns="http://www.w3.org/2000/svg" viewBox="0 0 19.54 20.39"><defs><style>.cls-1{fill:#fff;}</style></defs><title>TU CUENTA</title><g id="Capa_2" data-name="Capa 2"><g id="Capa_1-2" data-name="Capa 1"><path class="cls-1" d="M19.54,1.13a1,1,0,0,0-.3-.7.94.94,0,0,0-.67-.27,1.09,1.09,0,0,0-.49.13,6.89,6.89,0,0,1-2.89.94l-.59,0A7.18,7.18,0,0,1,11,.22,1.6,1.6,0,0,0,10.17,0a1.47,1.47,0,0,0-.71.18A8.07,8.07,0,0,1,5.8,1.1c-.24,0-.48,0-.73,0A7.77,7.77,0,0,1,2.29.23h0A.87.87,0,0,0,1.84.12a1,1,0,0,0-.68.27,1,1,0,0,0-.29.7V4.62A.58.58,0,1,0,2,4.62V1.4A8.92,8.92,0,0,0,5,2.22a8.13,8.13,0,0,0,.84,0,9.14,9.14,0,0,0,4.2-1,.34.34,0,0,1,.17-.05.41.41,0,0,1,.2.06A8.28,8.28,0,0,0,14.6,2.41a5.39,5.39,0,0,0,.69,0,8,8,0,0,0,3.09-.92V6.09c0,.21,0,.42,0,.62h0a13.9,13.9,0,0,1-5.58,10.41l-2.58,2L8.81,18a.58.58,0,0,0-.7.92l1.74,1.32a.59.59,0,0,0,.71,0l2.93-2.22a15,15,0,0,0,6-11.29h0c0-.22,0-.45,0-.67ZM1.75,1.26Z"/><path class="cls-1" d="M10,17.68a.38.38,0,0,0,.47,0L12.63,16a11.22,11.22,0,0,0,4.48-8.29h0c0-.2,0-.4,0-.6V3.37A.42.42,0,0,0,17,3.05a.39.39,0,0,0-.35,0,8.86,8.86,0,0,1-1.22.36,12,12,0,0,1-1.47.19l-.43,0a5.33,5.33,0,0,1-2.76-.79,1.08,1.08,0,0,0-.55-.15,1.14,1.14,0,0,0-.51.13,5.1,5.1,0,0,1-1.32.4,16.49,16.49,0,0,1-2,.26l-.54,0A3.67,3.67,0,0,1,3.88,3a.41.41,0,0,0-.4,0,.4.4,0,0,0-.2.34V4.2a.39.39,0,0,0,.78,0V4a5.13,5.13,0,0,0,1.7.25l.6,0A20.85,20.85,0,0,0,8.5,3.92,6,6,0,0,0,10,3.45a.28.28,0,0,1,.15,0,.24.24,0,0,1,.15,0,6.17,6.17,0,0,0,3.16.89,4.26,4.26,0,0,0,.5,0,12.21,12.21,0,0,0,1.55-.2,6.93,6.93,0,0,0,.81-.21V7.13c0,.19,0,.38,0,.56h0a10.41,10.41,0,0,1-4.17,7.71l-2,1.48-.06,0a.39.39,0,0,0-.47.61Z"/><path class="cls-1" d="M7.88,14A4.21,4.21,0,0,0,7,13.21a4.68,4.68,0,0,0-1.25-.61,4.37,4.37,0,0,0-.52-.12,3.18,3.18,0,0,0,1.2-.73,3.09,3.09,0,0,0,.9-2.18,3.14,3.14,0,0,0-.9-2.19,3.1,3.1,0,0,0-2.19-.91,3,3,0,0,0-2.18.91,3.08,3.08,0,0,0,1.18,5.1,4.87,4.87,0,0,0-.52.12,5,5,0,0,0-1.25.61A4.49,4.49,0,0,0,.58,14h0a4.43,4.43,0,0,0-.43.54.83.83,0,0,0,.22,1.14,6.8,6.8,0,0,0,7.76,0,.82.82,0,0,0,.22-1.13A4.34,4.34,0,0,0,7.88,14Z"/><path class="cls-1" d="M10.2,6.45A1.74,1.74,0,0,0,8.46,8.19a1.72,1.72,0,0,0,.83,1.48v2.12a.91.91,0,0,0,1.82,0V9.67a1.72,1.72,0,0,0,.83-1.48A1.74,1.74,0,0,0,10.2,6.45Z"/></g></g></svg>