<svg xmlns="http://www.w3.org/2000/svg" viewBox="0 0 15.53 11.62"><title>VER CONTRASEÑA</title><g id="Capa_2" data-name="Capa 2"><g id="Capa_1-2" data-name="Capa 1"><path d="M12.3,7.77,11.65,7a10,10,0,0,0,1.15-.84c.51-.48,1-1,1.47-1.53.11-.12,0-.21,0-.3A8,8,0,0,0,1.34,4.27a.3.3,0,0,0,0,.44A7.91,7.91,0,0,0,8.63,7.92.32.32,0,0,1,9,8.05l.58.71a.7.7,0,0,1,0,.11C8.94,8.92,8.3,9,7.66,9A8.8,8.8,0,0,1,2.3,7.16,8.9,8.9,0,0,1,.08,4.72a.36.36,0,0,1,0-.45A8.74,8.74,0,0,1,6.77.05a8.81,8.81,0,0,1,8.66,4.17.44.44,0,0,1,0,.55,9.21,9.21,0,0,1-2.89,2.87,1,1,0,0,1-.17.1Z"/><path d="M10.64,7.21,10.87,7,10.93,7a1,1,0,0,0,.09.18c.81,1,1.64,1.94,2.44,2.93a1.8,1.8,0,0,1,.37.76.6.6,0,0,1-.83.72,1.57,1.57,0,0,1-.63-.41c-.88-1-1.74-2.06-2.61-3.09l0-.08.23-.2-.52-.62a3.19,3.19,0,0,1-1.69.46A3.09,3.09,0,0,1,4.93,5.84a3.14,3.14,0,0,1,3.92-4.3A3.12,3.12,0,0,1,10.9,4.35a2.9,2.9,0,0,1-.67,2.09c-.1.11-.1.19,0,.29S10.5,7,10.64,7.21Zm-.78-2.7A2.1,2.1,0,1,0,7.73,6.59,2.1,2.1,0,0,0,9.86,4.51Z"/><path d="M7.72,5.59a1.07,1.07,0,0,1-1-1.1,1.09,1.09,0,1,1,2.18,0A1.07,1.07,0,0,1,7.72,5.59Z"/></g></g></svg>