<svg xmlns="http://www.w3.org/2000/svg" viewBox="0 0 31.53 38.85"><defs><style>.cls-1{opacity:0.44;}.cls-2{fill:#22274e;}.cls-3{fill:#02dcff;}.cls-4{fill:#fff;}</style></defs><title>VIDEO</title><g id="Capa_2" data-name="Capa 2"><g id="Capa_1-2" data-name="Capa 1"><g class="cls-1"><path class="cls-2" d="M30.48,20.85,5.24,37.2C3.17,38.47,0,37.36,0,35.14V2.6C0,.38,3-.73,5.24.54L30.32,16.88A2.31,2.31,0,0,1,30.48,20.85Z"/></g><path class="cls-3" d="M30.48,16.88,5.24.54C3.17-.73,0,.38,0,2.6V35.3C0,36.41.79,37,1.75,37.68c0-.32-.16-.32-.16-.64V4.19C1.59,2,4.6.85,6.83,2.12L31.43,18A1.7,1.7,0,0,0,30.48,16.88Z"/><path class="cls-4" d="M5.24,38.31,30.32,22a1.92,1.92,0,0,0,.79-2.54,2.58,2.58,0,0,1-.79,1.43L5.24,37.2C3.17,38.47,0,37.36,0,35.14v1.11C0,38.47,3.17,39.58,5.24,38.31Z"/></g></g></svg>